<svg width="135" height="60" viewBox="0 0 135 60" fill="none" xmlns="http://www.w3.org/2000/svg">
<g clip-path="url(#clip0_213_183)">
<path d="M27.1387 9.69525C26.379 7.5671 25.2186 5.59085 23.7262 3.89094C19.8782 6.92648 17.4472 11.3927 17.0057 16.3307C16.7761 18.8919 17.1056 21.4719 17.9486 23.8787C17.2736 25.0423 16.7263 26.2712 16.3199 27.5509C15.2634 25.4935 14.556 23.2797 14.2209 21.0052C14.1413 20.4835 14.0829 19.9567 14.0404 19.4261C13.9681 18.4182 13.9713 17.398 14.0485 16.3826C14.0562 16.2738 14.0533 16.1675 14.0609 16.0586C14.0832 15.7998 14.1214 15.5372 14.1504 15.2825C14.9029 9.34656 18.1194 4.06223 23.0681 0.685269L24.0757 0L24.9415 0.858058C26.8498 2.75169 28.3713 4.99667 29.4321 7.44727C29.428 7.4539 29.4174 7.45638 29.4134 7.46302C28.5963 8.14794 27.8459 8.9014 27.1387 9.69525Z" fill="#7409F6"/>
<path d="M47.0418 13.1327C47.0365 13.134 47.0246 13.1312 47.0194 13.1324C45.9585 13.0306 44.8981 13.0244 43.841 13.0793C44.7955 11.0437 45.359 8.82527 45.5049 6.57123C40.6406 5.97966 35.7754 7.40471 31.987 10.5725C30.2354 12.0379 28.8073 13.8261 27.7369 15.8218C27.587 15.8744 27.4305 15.9231 27.2806 15.9757C26.0146 16.4466 24.7986 17.0802 23.6621 17.8357C24.3623 15.6973 25.3958 13.6878 26.7249 11.8838C27.0384 11.4599 27.365 11.044 27.7114 10.6403C28.3693 9.8751 29.0902 9.16243 29.8556 8.4955C29.9396 8.42477 30.0105 8.34591 30.0957 8.28054C30.297 8.11427 30.5008 7.95862 30.7086 7.79639C35.4193 4.14953 41.4179 2.70763 47.3018 3.83897L48.5002 4.07136L48.5056 5.2923C48.5141 7.98262 48.0125 10.6482 47.0418 13.1327Z" fill="#7409F6"/>
<path d="M46.6574 17.1385C45.2359 17.0044 43.8193 17.055 42.4276 17.2573C40.9931 16.411 39.4522 15.7759 37.8613 15.3781C39.2068 14.8882 40.5934 14.5237 42.0116 14.315C42.532 14.2416 43.0496 14.1801 43.5735 14.1452C44.5818 14.0738 45.592 14.0807 46.6081 14.1594C46.7164 14.1673 46.8235 14.1699 46.9265 14.1792C47.1842 14.2022 47.4456 14.2412 47.6992 14.2709C53.6035 15.0425 58.8708 18.2866 62.2452 23.2721L62.9295 24.2861L62.0774 25.1539C59.5925 27.6785 56.0018 28.0562 52.2841 27.6698C54.7827 26.9388 57.0985 25.6543 59.056 23.9257C56.0191 20.0483 51.5681 17.5951 46.6574 17.1385Z" fill="#7409F6"/>
<path d="M15.5226 50.452C15.5282 50.4503 15.5406 50.4531 15.5461 50.452C16.6579 50.5511 17.7638 50.5574 18.8606 50.5044C17.8653 52.5151 17.2763 54.7008 17.1254 56.932C22.1983 57.5159 27.2722 56.1086 31.223 52.9801C31.9835 52.3801 32.6866 51.7152 33.3336 51.0126C33.6641 50.6542 33.9726 50.2788 34.273 49.8939C34.2772 49.8874 34.2815 49.8808 34.2856 49.8743C34.3652 49.7729 34.4325 49.6687 34.5122 49.5673C34.6519 49.3799 34.7986 49.1966 34.9303 49C35.6235 51.7528 31.079 57.93 24.3728 59.4444C21.426 60.1099 18.3252 60.1875 15.2558 59.6233L14.006 59.3937L14.0002 58.1881C13.9872 55.5378 14.5091 52.9003 15.5226 50.452Z" fill="#7409F6"/>
<path d="M0.852 38.1063C2.73213 36.1936 4.96298 34.6702 7.39956 33.6104C7.40614 33.6144 7.40867 33.6251 7.41525 33.6291C8.0989 34.4517 8.83725 35.2218 9.6225 35.9301C7.51806 36.6911 5.55912 37.8512 3.86948 39.3413C6.89994 43.2146 11.351 45.6677 16.2669 46.1231C17.8192 46.2654 19.3563 46.203 20.8595 45.9515C21.7766 46.8368 22.7938 47.625 23.8782 48.2957C23.4857 48.4118 23.0919 48.5227 22.6943 48.6175C22.1059 48.7578 21.5045 48.8674 20.9087 48.9532C20.4002 49.0294 19.8879 49.0896 19.3745 49.1219C18.3662 49.1934 17.3429 49.1784 16.3202 49.0956C16.2119 49.0876 16.1061 49.0904 16.0018 49.0759C15.7441 49.0528 15.4827 49.0138 15.2291 48.9841C9.32458 48.2126 4.05733 44.9684 0.684462 39.9883L0 38.9743L0.852 38.1063Z" fill="#7409F6"/>
<path d="M12.9789 19.1557C10.944 18.1879 8.73992 17.6152 6.48554 17.4657C5.90833 22.3516 7.33829 27.2432 10.5002 31.057C11.9328 32.7881 13.6566 34.2132 15.5809 35.2807C15.6534 35.8435 15.7394 36.3919 15.864 36.9142C16.0133 37.6108 16.2091 38.2907 16.4367 38.963C14.7797 38.288 13.2225 37.4203 11.7967 36.3521C11.3806 36.0403 10.9778 35.7139 10.5818 35.3689C9.81727 34.7008 9.10621 33.9748 8.43808 33.1935C8.36873 33.1143 8.29413 33.0363 8.22352 32.9518C8.05754 32.7492 7.90217 32.544 7.74023 32.3348C4.09927 27.5932 2.64986 21.5629 3.76719 15.6526L3.9956 14.4491L5.21083 14.4465C7.8859 14.4337 10.5455 14.9429 13.0166 15.9306C13.0179 15.9359 13.0151 15.9479 13.0164 15.9532C12.9135 17.0254 12.9165 18.0948 12.9789 19.1557Z" fill="#7409F6"/>
<path d="M20.0239 32.1596C19.8686 33.4583 19.8757 34.7803 20.0919 36.0862C20.2869 37.3971 20.6342 38.6886 21.1578 39.9212C22.1986 42.3822 23.8974 44.6187 26.1226 46.2903C28.2895 47.9758 30.814 49.0466 33.6776 49.5183C30.7651 49.875 27.9133 49.2878 25.1952 47.852C25.182 47.8439 25.1636 47.837 25.1505 47.8289C24.0745 47.2406 23.0567 46.5202 22.1205 45.6959C20.6927 44.4311 19.4576 42.9176 18.5433 41.1981C18.234 40.6297 17.9687 40.0341 17.7246 39.4333C17.3655 38.5388 17.0782 37.616 16.8757 36.673C16.8122 36.4065 16.7658 36.1416 16.7182 35.8713C16.485 34.5413 16.4334 33.1737 16.5257 31.8224C16.5989 30.8136 16.7764 29.8194 17.0251 28.842C17.3522 27.5586 17.8296 26.3182 18.4398 25.1419C18.8696 24.3128 19.3614 23.5084 19.9226 22.7606C20.8535 21.5191 21.9564 20.4112 23.1807 19.4602C24.3677 18.5406 25.6709 17.7792 27.0516 17.2021C27.0557 17.1955 27.061 17.1943 27.0649 17.1876C29.9261 15.9814 33.1164 15.6149 36.1345 16.1004C36.4777 16.1537 36.817 16.2136 37.1548 16.2908C38.4202 16.5691 39.6404 17.0103 40.7946 17.5743C42.4831 18.4051 44.0248 19.5131 45.3146 20.8334C47.4682 23.074 48.9644 25.8939 49.4359 28.8343C46.9954 23.4177 41.9847 19.7688 36.6658 19.1504C34.0191 18.8129 31.3419 19.1923 28.9425 20.2207C26.5433 21.2492 24.4382 22.9003 22.8909 24.9872C21.3344 27.0595 20.3292 29.5635 20.0239 32.1596Z" fill="white"/>
<path d="M102.244 29.2514H98.8105V26H102.244V29.2514ZM102.158 45.7268H98.8956V31.8743H102.158V45.7268ZM113.691 34.5246C113.218 34.5246 112.679 34.6339 112.074 34.8525C111.468 35.071 110.749 35.499 109.917 36.1366V45.7268H106.654V31.8743H109.747V33.7322C110.636 32.9854 111.478 32.4481 112.272 32.1202C113.067 31.7741 113.871 31.6011 114.684 31.6011C116.065 31.6011 117.115 32.0291 117.833 32.8852C118.552 33.7231 118.912 34.9071 118.912 36.4372V45.7268H115.649V36.8197C115.649 35.2896 114.996 34.5246 113.691 34.5246ZM134.999 37.9672V39.6066C134.999 41.5373 134.45 43.0856 133.353 44.2514C132.256 45.4171 130.705 46 128.7 46C126.695 46 125.144 45.4171 124.047 44.2514C122.95 43.0856 122.401 41.5373 122.401 39.6066V37.9672C122.401 36.0364 122.94 34.4973 124.018 33.3497C125.115 32.184 126.676 31.6011 128.7 31.6011C130.724 31.6011 132.275 32.184 133.353 33.3497C134.45 34.4973 134.999 36.0364 134.999 37.9672ZM131.651 37.9672C131.651 36.8561 131.396 35.9908 130.885 35.3715C130.374 34.734 129.646 34.4152 128.7 34.4152C127.754 34.4152 127.026 34.734 126.515 35.3715C126.005 35.9908 125.749 36.8561 125.749 37.9672V39.6066C125.749 40.7177 126.005 41.5919 126.515 42.2295C127.026 42.867 127.754 43.1857 128.7 43.1857C129.646 43.1857 130.374 42.867 130.885 42.2295C131.396 41.5919 131.651 40.7177 131.651 39.6066V37.9672Z" fill="#7409F6"/>
<path d="M53.805 31.8743L48.6977 45.7268H45.7186L40.6113 31.8743H43.9027L46.3712 38.7868L47.3074 41.6557L48.2154 38.7868L50.5704 31.8743H53.805ZM67.1764 44.9344C66.1928 45.3169 65.2659 45.5902 64.3958 45.7541C63.5256 45.918 62.7028 46 61.9272 46C59.7898 46 58.1724 45.4171 57.0753 44.2514C55.9782 43.0856 55.4296 41.5373 55.4296 39.6066V37.9672C55.4296 36.674 55.6756 35.5537 56.1674 34.6066C56.6592 33.6594 57.3591 32.9217 58.267 32.3934C59.175 31.8652 60.2437 31.6011 61.4733 31.6011C62.4758 31.6011 63.4121 31.8014 64.2823 32.2021C65.1713 32.5846 65.8901 33.1949 66.4387 34.0328C67.0061 34.8525 67.2899 35.9089 67.2899 37.2022C67.2899 37.5847 67.2615 37.9945 67.2048 38.4317C67.148 38.8506 67.0534 39.2969 66.921 39.7704H58.5791C58.617 40.8998 58.9102 41.7468 59.4587 42.3115C60.0073 42.8761 60.8869 43.1585 62.0975 43.1585C62.7406 43.1585 63.4027 43.0856 64.0836 42.9398C64.7835 42.7941 65.5023 42.5756 66.24 42.2842L67.1764 44.9344ZM61.4733 34.2514C60.6031 34.2514 59.9222 34.5246 59.4303 35.071C58.9575 35.5993 58.6832 36.3642 58.6075 37.3661H64.0553C64.0742 37.275 64.0836 37.193 64.0836 37.1202C64.0836 37.0291 64.0836 36.9471 64.0836 36.8743C64.0836 35.9999 63.8283 35.3442 63.3176 34.9071C62.8068 34.4699 62.1921 34.2514 61.4733 34.2514ZM78.0856 34.5246C77.6127 34.5246 77.0736 34.6339 76.4683 34.8525C75.8629 35.071 75.1441 35.499 74.3118 36.1366V45.7268H71.0489V31.8743H74.1416V33.7322C75.0307 32.9854 75.8724 32.4481 76.6669 32.1202C77.4613 31.7741 78.2653 31.6011 79.0786 31.6011C80.4595 31.6011 81.5093 32.0291 82.2281 32.8852C82.9469 33.7231 83.3063 34.9071 83.3063 36.4372V45.7268H80.0433V36.8197C80.0433 35.2896 79.3908 34.5246 78.0856 34.5246Z" fill="white"/>
<path d="M39.1793 42.5847V45.7268H28V27.1475H38.8955V30.2896H31.4048V34.7432H38.0443V37.8852H31.4048V42.5847H39.1793ZM96.273 45.2623C95.7812 45.4809 95.2137 45.6539 94.5706 45.7814C93.9274 45.9271 93.2748 46 92.6128 46C91.5157 46 90.6361 45.7814 89.974 45.3443C89.312 44.9071 88.8296 44.2969 88.527 43.5137C88.2432 42.7304 88.1014 41.8379 88.1014 40.8361V34.6066H85.7747V31.8743H88.1014V28.2678H91.3643V31.8743H95.8474V34.6066H91.3643V40.8361C91.3643 41.674 91.5251 42.2568 91.8467 42.5847C92.1872 42.8944 92.6695 43.0492 93.2938 43.0492C93.5964 43.0492 93.918 43.0218 94.2585 42.9672C94.6179 42.8943 95.0151 42.776 95.4502 42.612L96.273 45.2623Z" fill="white"/>
</g>
<defs>
<clipPath id="clip0_213_183">
<rect width="135" height="60" fill="white"/>
</clipPath>
</defs>
</svg>
