<svg width="46" height="41" viewBox="0 0 46 41" fill="none" xmlns="http://www.w3.org/2000/svg">
<path d="M45.0003 22.458C45.5005 22.458 46.0006 21.9683 46.0006 21.4785V15.6035C46.0006 13.9388 44.7008 12.666 43.0006 12.666H35V40.083H42.9997C44.6998 40.083 45.9997 38.8102 45.9997 37.1455V31.2705C45.9992 31.0109 45.8936 30.762 45.7061 30.5784C45.5186 30.3949 45.2645 30.2915 44.9994 30.291C43.9493 30.2751 42.9477 29.8554 42.2108 29.1227C41.474 28.3899 41.061 27.4028 41.061 26.3745C41.061 25.3462 41.474 24.3591 42.2108 23.6263C42.9477 22.8936 43.9493 22.4739 44.9994 22.458H45.0003Z" fill="white"/>
<path d="M44.3031 9.72939C44.8033 9.53387 45.1028 8.94637 44.9031 8.45663L42.9025 2.87491C42.4023 1.30793 40.5985 0.524912 39.1028 1.01465L10.7031 10.6102H42.7028C43.1771 10.2237 43.7194 9.92522 44.3031 9.72939Z" fill="white"/>
<path d="M0 15.6045V21.4795C0 22.067 0.40032 22.459 1.00032 22.459C1.5308 22.4509 2.05762 22.5463 2.5501 22.7395C3.04259 22.9327 3.4909 23.2199 3.86895 23.5844C4.24699 23.9489 4.54722 24.3833 4.75215 24.8625C4.95707 25.3417 5.06261 25.856 5.06261 26.3755C5.06261 26.895 4.95707 27.4093 4.75215 27.8885C4.54722 28.3676 4.24699 28.8021 3.86895 29.1666C3.4909 29.5311 3.04259 29.8183 2.5501 30.0115C2.05762 30.2047 1.5308 30.3 1.00032 30.292C0.40032 30.292 0 30.684 0 31.2715V37.1465C0 38.8112 1.29984 40.084 3 40.084H33V12.667H3C1.30368 12.667 0 13.9398 0 15.6045ZM12 20.5H18C18.6 20.5 19.0003 20.892 19.0003 21.4795C19.0003 22.067 18.6 22.459 18 22.459H12C11.4 22.459 10.9997 22.067 10.9997 21.4795C10.9997 20.892 11.4 20.5 12 20.5ZM12 25.3955H24.9994C25.5994 25.3955 25.9997 25.7875 25.9997 26.375C25.9997 26.9625 25.5994 27.3545 24.9994 27.3545H12C11.4 27.3545 10.9997 26.9625 10.9997 26.375C10.9997 25.7875 11.4 25.3955 12 25.3955ZM12 30.2911H24.9994C25.5994 30.2911 25.9997 30.683 25.9997 31.2705C25.9997 31.858 25.5994 32.25 24.9994 32.25H12C11.4 32.25 10.9997 31.858 10.9997 31.2705C10.9997 30.683 11.4 30.292 12 30.292V30.2911Z" fill="white"/>
</svg>
