<svg width="50" height="44" viewBox="0 0 50 44" fill="none" xmlns="http://www.w3.org/2000/svg">
<path d="M48.8337 24.1662C49.3755 24.1662 49.9174 23.6244 49.9174 23.0825V16.5825C49.9174 14.7407 48.5092 13.3325 46.6674 13.3325H38V43.6662H46.6663C48.5082 43.6662 49.9163 42.258 49.9163 40.4162V33.9162C49.9158 33.629 49.8014 33.3536 49.5983 33.1505C49.3952 32.9474 49.1199 32.8331 48.8326 32.8325C47.695 32.8149 46.61 32.3506 45.8118 31.5399C45.0135 30.7292 44.5661 29.6371 44.5661 28.4994C44.5661 27.3616 45.0135 26.2695 45.8118 25.4588C46.61 24.6481 47.695 24.1838 48.8326 24.1662H48.8337Z" fill="white"/>
<path d="M48.0797 10.0835C48.6215 9.86722 48.946 9.21722 48.7297 8.67538L46.5623 2.49986C46.0205 0.766181 44.0663 -0.100139 42.446 0.441701L11.6797 11.058H46.346C46.8598 10.6304 47.4473 10.3002 48.0797 10.0835Z" fill="white"/>
<path d="M0.0859375 16.5835V23.0835C0.0859375 23.7335 0.519618 24.1672 1.16962 24.1672C1.74431 24.1583 2.31502 24.2638 2.84855 24.4775C3.38207 24.6913 3.86775 25.0091 4.2773 25.4123C4.68685 25.8156 5.01209 26.2963 5.2341 26.8264C5.4561 27.3566 5.57043 27.9256 5.57043 28.5003C5.57043 29.0751 5.4561 29.6441 5.2341 30.1743C5.01209 30.7044 4.68685 31.1851 4.2773 31.5884C3.86775 31.9916 3.38207 32.3094 2.84855 32.5231C2.31502 32.7369 1.74431 32.8424 1.16962 32.8335C0.519618 32.8335 0.0859375 33.2672 0.0859375 33.9172V40.4172C0.0859375 42.259 1.4941 43.6672 3.33594 43.6672H35.8359V13.3335H3.33594C1.49826 13.3335 0.0859375 14.7417 0.0859375 16.5835ZM13.0859 21.9998H19.5859C20.2359 21.9998 20.6696 22.4335 20.6696 23.0835C20.6696 23.7335 20.2359 24.1672 19.5859 24.1672H13.0859C12.4359 24.1672 12.0023 23.7335 12.0023 23.0835C12.0023 22.4335 12.4359 21.9998 13.0859 21.9998ZM13.0859 27.4161H27.1686C27.8186 27.4161 28.2523 27.8498 28.2523 28.4998C28.2523 29.1498 27.8186 29.5835 27.1686 29.5835H13.0859C12.4359 29.5835 12.0023 29.1498 12.0023 28.4998C12.0023 27.8498 12.4359 27.4161 13.0859 27.4161ZM13.0859 32.8325H27.1686C27.8186 32.8325 28.2523 33.2661 28.2523 33.9161C28.2523 34.5661 27.8186 34.9998 27.1686 34.9998H13.0859C12.4359 34.9998 12.0023 34.5661 12.0023 33.9161C12.0023 33.2661 12.4359 32.8335 13.0859 32.8335V32.8325Z" fill="white"/>
</svg>
