<svg width="52" height="35" viewBox="0 0 52 35" fill="none" xmlns="http://www.w3.org/2000/svg">
<path d="M50.4766 13.1698C51.3179 13.1698 52 12.5795 52 11.8514V5.49701C52 2.82347 49.4865 0.648438 46.3972 0.648438H5.6029C2.51347 0.648525 0 2.82355 0 5.4971V11.8515C0 12.5796 0.682094 13.1699 1.52344 13.1699C4.28248 13.1699 6.52722 15.1124 6.52722 17.5001C6.52722 19.8877 4.28248 21.8302 1.52344 21.8302C0.682094 21.8302 0 22.4204 0 23.1485V29.5029C0 32.1765 2.51347 34.3515 5.6029 34.3515H46.3972C49.4865 34.3515 52 32.1765 52 29.5029V23.1485C52 22.4204 51.3179 21.8302 50.4766 21.8302C47.7176 21.8302 45.473 19.8876 45.473 17.5C45.473 15.1123 47.7176 13.1698 50.4766 13.1698ZM36.8541 16.5419L32.5324 20.1875L33.5383 25.2634C33.5633 25.3582 33.5764 25.4567 33.5764 25.558C33.5764 26.2852 32.8959 26.8748 32.056 26.8763H32.0508C31.8083 26.8763 31.5649 26.8263 31.342 26.7249L26 24.2944L20.6582 26.7249C20.4066 26.8394 20.123 26.8907 19.8395 26.873C19.5559 26.8553 19.2838 26.7692 19.0538 26.6246C18.8238 26.48 18.6452 26.2826 18.5381 26.0548C18.431 25.8269 18.3997 25.5776 18.4477 25.3352L19.4678 20.1876L15.146 16.542C14.9425 16.3703 14.7985 16.1527 14.7304 15.9139C14.6623 15.6751 14.6727 15.4245 14.7606 15.1906C14.8484 14.9566 15.0101 14.7485 15.2274 14.59C15.4447 14.4314 15.709 14.3286 15.9903 14.2933L21.9629 13.5422L24.6339 8.85865C24.7597 8.63806 24.9543 8.45233 25.1957 8.32246C25.4371 8.19259 25.7157 8.12376 26 8.12376C26.2843 8.12376 26.5629 8.19259 26.8043 8.32246C27.0457 8.45233 27.2403 8.63806 27.3661 8.85865L30.0371 13.5422L36.0098 14.2933C36.2911 14.3287 36.5553 14.4315 36.7726 14.59C36.9899 14.7486 37.1516 14.9566 37.2395 15.1905C37.3273 15.4244 37.3378 15.675 37.2696 15.9138C37.2015 16.1526 37.0576 16.3702 36.8541 16.5419Z" fill="white"/>
</svg>
