<svg width="50" height="31" viewBox="0 0 50 31" fill="none" xmlns="http://www.w3.org/2000/svg">
<path d="M48.5625 11.5276C48.9688 11.5276 49.375 11.1382 49.375 10.7487V2.57035C49.375 1.16834 48.1562 0 46.775 0H39.4625V2.72613C39.4625 3.11558 39.1375 3.50502 38.65 3.50502C38.2437 3.50502 37.8375 3.11558 37.8375 2.72613V0H3.225C1.7625 0 0.625 1.16834 0.625 2.57035V10.7487C0.625 11.1382 1.03125 11.5276 1.4375 11.5276C3.7125 11.5276 5.5 13.3191 5.5 15.5C5.5 17.6809 3.63125 19.4724 1.4375 19.4724C1.03125 19.4724 0.625 19.8618 0.625 20.2513V28.4296C0.625 29.8317 1.84375 31 3.225 31H37.7563V28.2739C37.7563 27.8065 38.1625 27.495 38.5688 27.495C39.0563 27.495 39.3813 27.8065 39.3813 28.2739V31H46.6938C48.1562 31 49.2938 29.8317 49.2938 28.4296V20.2513C49.2938 19.8618 48.8875 19.4724 48.4813 19.4724C46.2063 19.4724 44.4188 17.6809 44.4188 15.5C44.5 13.3191 46.2875 11.5276 48.5625 11.5276ZM21.6687 23.6005C16.9562 23.6005 13.2188 19.9397 13.2188 15.5C13.2188 11.0603 17.0375 7.3995 21.6687 7.3995C26.3813 7.3995 30.1187 11.0603 30.1187 15.5C30.1187 19.9397 26.3813 23.6005 21.6687 23.6005ZM39.4625 24.6131C39.4625 25.0025 39.1375 25.392 38.65 25.392C38.2437 25.392 37.8375 25.0025 37.8375 24.6131V20.9523C37.8375 20.5628 38.2437 20.1734 38.65 20.1734C39.1375 20.1734 39.4625 20.5628 39.4625 20.9523V24.6131ZM39.4625 17.2915C39.4625 17.7588 39.1375 18.0704 38.65 18.0704C38.2437 18.0704 37.8375 17.7588 37.8375 17.2915V13.6307C37.8375 13.2412 38.2437 12.8518 38.65 12.8518C39.1375 12.8518 39.4625 13.2412 39.4625 13.6307V17.2915ZM39.4625 10.0477C39.4625 10.4372 39.1375 10.8266 38.65 10.8266C38.2437 10.8266 37.8375 10.4372 37.8375 10.0477V6.38693C37.8375 5.99749 38.2437 5.60804 38.65 5.60804C39.1375 5.60804 39.4625 5.99749 39.4625 6.38693V10.0477Z" fill="white"/>
<path d="M25.1625 12.5403L20.6938 16.8242L18.2563 14.4097C17.9313 14.0981 17.4438 14.0981 17.1188 14.4097C16.7938 14.7212 16.7938 15.1885 17.1188 15.5001L20.2063 18.4599C20.3688 18.6157 20.6125 18.6936 20.775 18.6936C21.0188 18.6936 21.1813 18.6157 21.3438 18.4599L26.3813 13.6308C26.7063 13.3192 26.7063 12.8519 26.3813 12.5403C26.0563 12.2288 25.4875 12.2288 25.1625 12.5403Z" fill="white"/>
</svg>
