<svg width="46" height="46" viewBox="0 0 46 46" fill="none" xmlns="http://www.w3.org/2000/svg">
<path fill-rule="evenodd" clip-rule="evenodd" d="M23.0026 2.39575C11.6232 2.39575 2.39844 11.6206 2.39844 22.9999C2.39844 34.3792 11.6232 43.6041 23.0026 43.6041C34.3819 43.6041 43.6068 34.3792 43.6068 22.9999C43.6068 11.6205 34.3819 2.39575 23.0026 2.39575ZM24.9342 13.4147C24.9342 12.3562 24.0761 11.498 23.0176 11.498C21.959 11.498 21.1009 12.3562 21.1009 13.4147V18.6227C19.4087 19.3621 18.2259 21.0509 18.2259 23.0156C18.2259 25.662 20.3712 27.8073 23.0176 27.8073C23.6332 27.8073 24.2216 27.6912 24.7621 27.4797L27.4255 30.1431C28.174 30.8916 29.3876 30.8916 30.1361 30.1431C30.8845 29.3947 30.8845 28.1811 30.1361 27.4326L27.4767 24.7732C27.6913 24.2289 27.8092 23.6361 27.8092 23.0156C27.8092 21.0509 26.6266 19.3621 24.9342 18.6227V13.4147Z" fill="#487FFF"/>
</svg>
