<svg width="50" height="50" viewBox="0 0 50 50" fill="none" xmlns="http://www.w3.org/2000/svg">
<path d="M38.2971 3.5C38.2071 7.09833 35.2655 10 31.6471 10H18.3138C14.6955 10 11.7538 7.09667 11.6638 3.5C7.85214 4.26667 4.98047 7.63 4.98047 11.6667V41.6667C4.98047 46.2683 8.71213 50 13.3138 50H36.6471C41.2488 50 44.9805 46.2683 44.9805 41.6667V11.6667C44.9805 7.63 42.1088 4.265 38.2971 3.5ZM21.1588 38.6783L16.7138 43.1233C16.3888 43.4483 15.9621 43.6117 15.5355 43.6117C15.1088 43.6117 14.6821 43.4483 14.3571 43.1233L12.1355 40.9017C11.4838 40.2517 11.4838 39.1967 12.1355 38.545C12.7855 37.8933 13.8405 37.8933 14.4921 38.545L15.5355 39.5883L18.8005 36.3233C19.4521 35.6717 20.5055 35.6717 21.1571 36.3233C21.8088 36.975 21.8088 38.0283 21.1571 38.68L21.1588 38.6783ZM21.1588 28.6783L16.7138 33.1233C16.3888 33.4483 15.9621 33.6117 15.5355 33.6117C15.1088 33.6117 14.6821 33.4483 14.3571 33.1233L12.1355 30.9017C11.4838 30.2517 11.4838 29.1967 12.1355 28.545C12.7855 27.8933 13.8405 27.8933 14.4921 28.545L15.5355 29.5883L18.8005 26.3233C19.4521 25.6717 20.5055 25.6717 21.1571 26.3233C21.8088 26.975 21.8088 28.0283 21.1571 28.68L21.1588 28.6783ZM21.1588 18.6783L16.7138 23.1233C16.3888 23.4483 15.9621 23.6117 15.5355 23.6117C15.1088 23.6117 14.6821 23.4483 14.3571 23.1233L12.1355 20.9017C11.4838 20.2517 11.4838 19.1967 12.1355 18.545C12.7855 17.8933 13.8405 17.8933 14.4921 18.545L15.5355 19.5883L18.8005 16.3233C19.4521 15.6717 20.5055 15.6717 21.1571 16.3233C21.8088 16.975 21.8088 18.0283 21.1571 18.68L21.1588 18.6783ZM36.6471 41.6667H26.6471C25.7271 41.6667 24.9805 40.92 24.9805 40C24.9805 39.08 25.7271 38.3333 26.6471 38.3333H36.6471C37.5671 38.3333 38.3138 39.08 38.3138 40C38.3138 40.92 37.5671 41.6667 36.6471 41.6667ZM36.6471 31.6667H26.6471C25.7271 31.6667 24.9805 30.92 24.9805 30C24.9805 29.08 25.7271 28.3333 26.6471 28.3333H36.6471C37.5671 28.3333 38.3138 29.08 38.3138 30C38.3138 30.92 37.5671 31.6667 36.6471 31.6667ZM36.6471 21.6667H26.6471C25.7271 21.6667 24.9805 20.92 24.9805 20C24.9805 19.08 25.7271 18.3333 26.6471 18.3333H36.6471C37.5671 18.3333 38.3138 19.08 38.3138 20C38.3138 20.92 37.5671 21.6667 36.6471 21.6667Z" fill="#7409F6"/>
<path d="M31.6471 0H18.3138C16.4729 0 14.9805 1.49238 14.9805 3.33333C14.9805 5.17428 16.4729 6.66667 18.3138 6.66667H31.6471C33.4881 6.66667 34.9805 5.17428 34.9805 3.33333C34.9805 1.49238 33.4881 0 31.6471 0Z" fill="#7409F6"/>
</svg>
