<svg width="50" height="50" viewBox="0 0 50 50" fill="none" xmlns="http://www.w3.org/2000/svg">
<path fill-rule="evenodd" clip-rule="evenodd" d="M18.0072 30.1435C18.7016 28.9365 20.018 28.0866 21.588 27.5998C23.5381 29.2938 26.439 29.2938 28.3893 27.5998C29.9592 28.0867 31.2757 28.9365 31.9699 30.1464C28.6398 35.1069 21.3373 35.1069 18.0072 30.1435ZM47.0474 12.7355L45.1316 15.2101L46.4914 18.0273L43.5474 16.9674L41.286 19.1337L41.384 16.0053L38.6243 14.5246L41.6317 13.6518L42.1877 10.5724L43.9478 13.1592L47.0474 12.7357V12.7355ZM37.7255 3.4107L37.3021 6.51318L39.8889 8.27331L36.8095 8.82929L35.9337 11.8338L34.453 9.07705L31.3246 9.17207L33.4908 6.91357L32.4337 3.96953L35.251 5.32916L37.7255 3.4107ZM2.92979 12.7355L6.03227 13.159L7.79229 10.5722L8.34827 13.6516L11.3528 14.5244L8.59604 16.0051L8.69115 19.1335L6.43267 16.9671L3.48567 18.0271L4.84824 15.2099L2.92969 12.7354L2.92979 12.7355ZM12.2545 3.4107L14.7261 5.32926L17.5463 3.96964L16.4861 6.91368L18.6523 9.17217L15.5239 9.07715L14.0433 11.8339L13.1704 8.82939L10.0881 8.27341L12.6777 6.51328L12.2543 3.4108L12.2545 3.4107ZM24.99 0L26.1739 2.89801L29.2937 3.1285L26.9057 5.14786L27.6488 8.18987L24.9899 6.5393L22.3282 8.18987L23.0742 5.14786L20.6833 3.1285L23.806 2.89801L24.99 0ZM24.99 19.7125C27.1822 19.7125 28.9567 21.4899 28.9567 23.6821C28.9567 25.8744 27.1822 27.6517 24.99 27.6517C22.7978 27.6517 21.0204 25.8743 21.0204 23.6821C21.0204 21.49 22.7978 19.7125 24.99 19.7125ZM22.6048 11.298C24.0336 10.2955 25.9464 10.2955 27.3751 11.298C28.173 11.8599 29.0373 12.0902 30.0081 12.0038C31.7481 11.8512 33.4044 12.8075 34.1419 14.3891C34.5538 15.2763 35.1847 15.9072 36.069 16.319C37.6534 17.0565 38.6098 18.7101 38.4543 20.45C38.3707 21.4236 38.6012 22.2851 39.1601 23.0858C40.1626 24.5146 40.1626 26.4274 39.1601 27.8562C38.6012 28.6542 38.3707 29.5184 38.4543 30.4921C38.6099 32.2291 37.6535 33.8854 36.069 34.6229C35.1847 35.0349 34.5538 35.6657 34.1419 36.5502C33.4044 38.1346 31.748 39.091 30.0081 38.9383C29.0373 38.8519 28.173 39.0822 27.3751 39.644C25.9463 40.6465 24.0335 40.6465 22.6048 39.644C21.804 39.0823 20.9427 38.8519 19.9689 38.9383C18.229 39.0909 16.5727 38.1345 15.8381 36.5502C15.4261 35.6658 14.7924 35.035 13.908 34.6229C12.3266 33.8854 11.3702 32.2291 11.5229 30.4921C11.6092 29.5184 11.3788 28.6542 10.817 27.8562C9.81455 26.4274 9.81455 24.5146 10.817 23.0858C11.3787 22.2851 11.6092 21.4236 11.5229 20.45C11.3702 18.7101 12.3266 17.0565 13.908 16.319C14.7924 15.9072 15.4261 15.2763 15.8381 14.3891C16.5727 12.8075 18.229 11.8512 19.9689 12.0038C20.9427 12.0903 21.804 11.8599 22.6048 11.298ZM24.99 15.8496C30.302 15.8496 34.6086 20.1591 34.6086 25.471C34.6086 30.783 30.302 35.0896 24.99 35.0896C19.678 35.0896 15.3686 30.783 15.3686 25.471C15.3686 20.1591 19.6752 15.8496 24.99 15.8496ZM14.5015 36.6566L11.5747 47.5803L17.2007 44.6304L20.5999 50L22.9533 41.2139C22.5847 41.0641 22.2333 40.8711 21.9048 40.6406C21.3431 40.2459 20.7583 40.0904 20.0756 40.1509C17.8257 40.3497 15.6825 39.111 14.7319 37.0657C14.6628 36.9188 14.588 36.7806 14.5015 36.6566ZM35.4758 36.6566L38.4025 47.5803L32.7767 44.6304L29.3774 50L27.0239 41.2139C27.3926 41.0641 27.744 40.8711 28.0753 40.6406C28.6371 40.2459 29.2189 40.0904 29.9017 40.1509C32.1516 40.3497 34.2948 39.111 35.2454 37.0657C35.3145 36.9188 35.3922 36.7806 35.4758 36.6566Z" fill="#7409F6"/>
</svg>
