<svg width="50" height="50" viewBox="0 0 50 50" fill="none" xmlns="http://www.w3.org/2000/svg">
<g clip-path="url(#clip0_196_20)">
<path d="M43.4605 26.0131C44.7078 26.0131 45.9067 25.6526 46.9638 24.9431C48.7161 23.7586 49.9324 21.61 49.9797 19.3755C50.0341 18.2397 49.9797 17.0367 49.8138 15.6962C49.7204 14.9294 49.0447 14.3353 48.1744 14.4216C46.6868 14.6131 45.1623 15.3193 43.8914 16.4249C43.8316 15.93 43.7525 15.439 43.6541 14.9521C45.0641 14.2537 46.1541 13.132 46.7177 11.7322C47.5345 9.77245 47.2784 7.35196 46.0468 5.41506C45.3615 4.33499 44.6235 3.34368 43.8553 2.46537C43.3217 1.85736 42.4005 1.79447 41.7897 2.32807C40.4651 3.48538 39.5724 5.16477 39.2077 7.19894C38.8779 9.15137 39.1344 10.7976 39.8721 12.5815C42.9379 19.8651 40.1224 28.1931 33.7445 32.2613C33.2931 32.5429 32.9364 32.9324 32.6922 33.3857H26.4647V27.4016L31.6202 30.0784C32.1242 30.3388 32.7183 30.2826 33.1565 29.9625C33.6056 29.6363 33.8317 29.0856 33.7402 28.5377L32.5172 21.1791L37.8315 15.9449C38.2263 15.5558 38.3679 14.9764 38.1962 14.45C38.0246 13.9221 37.5697 13.5359 37.0218 13.4529L29.6805 12.3474L26.3345 4.95032C25.8596 3.90032 24.1401 3.90032 23.6652 4.95032L20.3192 12.3474L12.9778 13.4532C12.43 13.5362 11.975 13.9224 11.8034 14.4503C11.6318 14.9767 11.7734 15.556 12.1682 15.9452L17.4825 21.1794L16.2595 28.538C16.1679 29.0858 16.3938 29.6366 16.8431 29.9628C17.2924 30.2889 17.8846 30.3333 18.3795 30.0787L23.535 27.4017V33.3859H17.2615C16.7191 32.4766 15.8903 32.0643 15.114 31.4576C10.9997 28.1304 8.91527 23.3384 8.91527 18.7375C8.91527 12.8886 11.6154 11.9599 10.8164 7.18194C10.4517 5.1635 9.56048 3.48548 8.23724 2.32826C7.63217 1.79613 6.70229 1.85619 6.17163 2.46556C5.39771 3.34964 4.65963 4.34241 3.98014 5.41379C2.7485 7.35069 2.48952 9.77109 3.30065 11.7166C3.87018 13.1294 4.96275 14.2541 6.37407 14.9531C6.27553 15.4404 6.19673 15.9317 6.13677 16.4269C4.86167 15.3193 3.3109 14.6131 1.82488 14.4217C1.43865 14.3802 1.04666 14.479 0.73914 14.7193C0.431623 14.9582 0.231331 15.3115 0.18553 15.6978C0.0209805 17.0396 -0.0319489 18.2441 0.0181484 19.3513C0.0796715 21.6673 1.33933 23.8216 3.07594 24.9546C4.09303 25.6556 5.29605 26.0145 6.55346 26.0145C6.84672 26.0145 7.14457 25.9791 7.44232 25.9398C7.62777 26.3924 7.81332 26.8439 8.03226 27.2811C6.7144 27.1107 5.06607 27.1524 3.45211 27.9529C2.70778 28.3221 2.42478 29.2282 2.80553 29.9485C3.31911 30.9256 3.93131 32.0543 4.65943 33.0398C5.90034 34.8511 7.94105 36.0968 10.3514 36.0968C11.8096 36.0968 13.2113 35.538 14.3681 34.5351C14.5475 34.6631 14.716 34.789 14.7459 34.8509V45.1048H13.2811C12.4714 45.1048 11.8162 45.7599 11.8162 46.5696C11.8162 47.3793 12.4714 48.0344 13.2811 48.0344H36.7184C37.5281 48.0344 38.1833 47.3793 38.1833 46.5696C38.1833 45.7599 37.5281 45.1048 36.7184 45.1048H35.2536V35.0082C35.2713 34.9174 35.3094 34.8323 35.3094 34.7377C35.4236 34.6648 35.5223 34.5752 35.6346 34.5001C38.6823 37.1886 42.9969 36.3631 45.4016 33.0484C46.0886 32.0024 46.759 31.0069 47.277 29.8827C47.6088 29.1632 47.307 28.3092 46.596 27.9572C45.2592 27.2951 43.7416 27.1007 41.9893 27.3158C42.2163 26.865 42.4401 26.4123 42.6307 25.9435C42.9086 25.9783 43.1866 26.0131 43.4605 26.0131ZM27.9295 42.1749H22.0702C21.2605 42.1749 20.6053 41.5197 20.6053 40.7101C20.6053 39.9004 21.2605 39.2452 22.0702 39.2452H27.9295C28.7392 39.2452 29.3943 39.9004 29.3943 40.7101C29.3943 41.5197 28.7392 42.1749 27.9295 42.1749Z" fill="#7409F6"/>
</g>
<defs>
<clipPath id="clip0_196_20">
<rect width="50" height="50" fill="white"/>
</clipPath>
</defs>
</svg>
