<svg width="50" height="50" viewBox="0 0 50 50" fill="none" xmlns="http://www.w3.org/2000/svg">
<path d="M34.4248 20.9634C29.2198 15.7584 20.7819 15.7584 15.5769 20.9634C10.3718 26.1684 10.3718 34.6063 15.5769 39.8114C20.7819 45.0164 29.2198 45.0164 34.4248 39.8114C39.6191 34.6063 39.6191 26.1684 34.4248 20.9634ZM19.1439 44.165C17.0748 43.2814 15.232 41.9451 13.7664 40.2747L10.3934 46.1156L13.8203 45.5768C14.1113 45.5229 14.413 45.6199 14.607 45.8677L16.6976 48.4325L19.1439 44.165ZM36.2353 40.2747C34.7589 41.9451 32.9269 43.2814 30.8471 44.165L33.3041 48.4217L35.3947 45.8569C35.5887 45.6199 35.8904 45.5121 36.1814 45.566L39.6083 46.1048L36.2353 40.2747ZM30.3082 25.08C27.3771 22.1488 22.6246 22.1488 19.6935 25.08C16.7623 28.0112 16.7623 32.7636 19.6935 35.6948C22.6246 38.626 27.3771 38.626 30.3082 35.6948C33.2394 32.7636 33.2394 28.0112 30.3082 25.08ZM24.9955 21.2328C30.0496 21.2328 34.1554 25.3278 34.1554 30.3928C34.1554 35.4469 30.0604 39.5527 24.9955 39.5527C19.9413 39.5527 15.8355 35.4577 15.8355 30.3928C15.8463 25.3278 19.9413 21.2328 24.9955 21.2328ZM20.728 30.9962C20.5017 30.5975 20.631 30.1018 21.0297 29.8755C21.4285 29.6492 21.9242 29.7785 22.1505 30.1772L23.4652 32.4511L27.9698 27.9465C28.2931 27.6232 28.8211 27.6232 29.1336 27.9465C29.4569 28.2698 29.4569 28.7871 29.1336 29.1104L23.8747 34.3693C23.4975 34.7464 22.851 34.671 22.5815 34.1968L20.728 30.9962ZM44.0159 9.23862L45.6431 12.6116L49.3502 13.1181C49.986 13.2043 50.2123 13.9803 49.7705 14.4113L47.0656 16.9977L47.7337 20.6832C47.8415 21.3082 47.1841 21.7716 46.6345 21.4806L43.337 19.7133L40.0394 21.4806C39.5005 21.7716 38.8001 21.319 38.9509 20.6401L39.6083 16.9977L36.9034 14.4113C36.4508 13.9803 36.6987 13.2043 37.3345 13.1181L41.0308 12.6116L42.658 9.23862C42.9274 8.66747 43.7357 8.67825 44.0159 9.23862ZM7.33289 9.23862L8.96013 12.6116L12.6672 13.1181C13.2923 13.2043 13.5293 13.9803 13.0875 14.4113L10.3826 16.9977L11.0508 20.6832C11.1585 21.3082 10.5012 21.7716 9.96234 21.4806L6.66475 19.7133L3.36716 21.4806C2.82834 21.7716 2.13865 21.319 2.27874 20.6401L2.9361 16.9977L0.231218 14.4113C-0.221392 13.9803 0.026466 13.2043 0.662276 13.1181L4.35859 12.6116L5.98583 9.23862C6.25524 8.66747 7.06348 8.67825 7.33289 9.23862ZM25.6744 1.42571L27.3016 4.79873L31.0087 5.30522C31.6337 5.39144 31.8708 6.16734 31.429 6.5984L28.7241 9.18474L29.3922 12.8703C29.5 13.4953 28.8426 13.9587 28.2931 13.6677L24.9955 11.8896L21.6979 13.657C21.159 13.9479 20.4694 13.4953 20.6095 12.8164L21.2668 9.17396L18.5619 6.58762C18.1093 6.15656 18.3572 5.38066 18.993 5.29445L22.6893 4.78796L24.3165 1.41493C24.5967 0.854557 25.405 0.865334 25.6744 1.42571Z" fill="#7409F6"/>
</svg>
