<svg width="30" height="30" viewBox="0 0 30 30" fill="none" xmlns="http://www.w3.org/2000/svg">
<g clip-path="url(#clip0_4791_2)">
<mask id="mask0_4791_2" style="mask-type:luminance" maskUnits="userSpaceOnUse" x="0" y="0" width="30" height="30">
<path d="M30 0H0V30H30V0Z" fill="white"/>
</mask>
<g mask="url(#mask0_4791_2)">
<path fill-rule="evenodd" clip-rule="evenodd" d="M10.949 21.9684C8.03163 21.9684 5.27241 20.826 3.21617 18.7522C1.14235 16.6784 0 13.9367 0 11.0193C0 8.08437 1.14235 5.34272 3.21617 3.26891C5.27241 1.19509 8.03163 0.0703125 10.949 0.0703125C13.8664 0.0703125 16.6257 1.19509 18.6995 3.26891C20.7557 5.34272 21.8981 8.08437 21.8981 11.0193C21.8981 13.9367 20.7557 16.6784 18.6995 18.7522C16.6257 20.826 13.8664 21.9684 10.949 21.9684ZM10.949 19.5079C8.6819 19.5079 6.53779 18.6292 4.93849 17.0299C3.33919 15.413 2.44288 13.2865 2.44288 11.0193C2.44288 8.73464 3.33919 6.6081 4.93849 4.99123C6.53779 3.39193 8.6819 2.51319 10.949 2.51319C13.2162 2.51319 15.3603 3.39193 16.9596 4.99123C20.2812 8.31284 20.2812 13.7083 16.9596 17.0299C15.3603 18.6292 13.2162 19.5079 10.949 19.5079Z" fill="black"/>
<path fill-rule="evenodd" clip-rule="evenodd" d="M21.0542 23.0049C20.9136 23.0049 20.773 22.9522 20.6675 22.8468L18.3125 20.4917C18.7167 20.1754 19.0858 19.8591 19.4373 19.49C19.8415 19.1033 20.193 18.6816 20.5269 18.2422L22.8995 20.6148C23.1104 20.8257 23.1104 21.1596 22.8995 21.3705C22.794 21.4584 22.671 21.5111 22.5304 21.5111C22.4074 21.5111 22.302 21.4759 22.2141 21.4056L21.5287 22.2492C21.6165 22.4425 21.5814 22.671 21.4232 22.8468C21.3178 22.9522 21.1772 23.0049 21.0542 23.0049Z" fill="black"/>
<path fill-rule="evenodd" clip-rule="evenodd" d="M27.7154 29.9298C27.1178 29.9298 26.5379 29.7013 26.1161 29.2619L21.16 24.3235C20.7382 23.9017 20.5098 23.3217 20.5098 22.7242C20.5098 22.109 20.7382 21.5291 21.16 21.1073C21.5994 20.6855 22.1618 20.4395 22.7769 20.4395C23.392 20.4395 23.9544 20.6855 24.3938 21.1073L29.3323 26.0458C30.211 26.9421 30.211 28.3832 29.3323 29.2619C28.8929 29.7013 28.3305 29.9298 27.7154 29.9298Z" fill="black"/>
<path fill-rule="evenodd" clip-rule="evenodd" d="M7.39941 14.5697C5.43104 12.6014 5.43104 9.42034 7.39941 7.45197C7.59273 7.24108 7.59273 6.90716 7.39941 6.71384C7.18851 6.50294 6.85459 6.50294 6.6437 6.71384C4.27111 9.08642 4.27111 12.9353 6.6437 15.3079C6.74914 15.4133 6.88974 15.466 7.01276 15.466C7.15336 15.466 7.29396 15.4133 7.39941 15.3079C7.59273 15.1145 7.59273 14.7806 7.39941 14.5697Z" fill="black"/>
</g>
</g>
<defs>
<clipPath id="clip0_4791_2">
<rect width="30" height="30" fill="white"/>
</clipPath>
</defs>
</svg>
