<svg width="40" height="40" viewBox="0 0 40 40" fill="none" xmlns="http://www.w3.org/2000/svg">
<path d="M34.4561 16.5346H34.3571V14.1089C34.3571 6.31678 28.0404 0 20.2482 0C12.456 0 6.13931 6.31678 6.13931 14.1089V16.5346H5.54529C3.36705 16.5346 1.6839 18.4653 1.6839 20.6931V26.8812C1.62904 29.0404 3.33502 30.8352 5.49421 30.8901C5.51127 30.8906 5.52823 30.8909 5.54529 30.8911H9.20863C9.72751 30.8667 10.1284 30.4262 10.104 29.9073C10.1031 29.8886 10.1017 29.87 10.0997 29.8514V17.7227C10.0997 17.1287 9.75319 16.5346 9.20863 16.5346H8.11951V14.1088C8.11951 7.41036 13.5498 1.98011 20.2482 1.98011C26.9467 1.98011 32.3769 7.41036 32.3769 14.1088V16.5346H31.2878C30.7432 16.5346 30.3967 17.1286 30.3967 17.7227V29.8514C30.3415 30.3679 30.7154 30.8315 31.2319 30.8867C31.2505 30.8887 31.2691 30.8901 31.2878 30.891H32.4264L32.3274 31.0394C30.8419 33.0137 28.5109 34.17 26.0402 34.1582C25.4994 31.5061 22.9108 29.7945 20.2587 30.3355C17.9908 30.798 16.3556 32.7843 16.3373 35.0989C16.3644 37.8136 18.5729 40 21.2878 39.9998C22.6317 39.978 23.9127 39.4265 24.8521 38.4651C25.4859 37.8161 25.9012 36.9854 26.0402 36.0889C29.1342 36.1006 32.052 34.6509 33.9115 32.178L34.8521 30.7918C36.9808 30.6434 38.3174 29.3067 38.3174 27.376V21.1879C38.3175 19.0594 36.7334 16.5346 34.4561 16.5346ZM8.11951 28.9109H5.54529C4.47929 28.8849 3.63615 27.9998 3.66212 26.9338C3.66259 26.9163 3.66325 26.8987 3.6641 26.8811V20.693C3.6641 19.5544 4.45617 18.5148 5.54529 18.5148H8.11951V28.9109ZM23.4166 37.0792C22.8679 37.674 22.0971 38.0147 21.2879 38.0198C19.6772 37.9942 18.3702 36.709 18.3176 35.099C18.3169 33.4858 19.6241 32.1776 21.2372 32.177C22.8503 32.1763 24.1585 33.4835 24.1592 35.0966C24.1592 35.0973 24.1592 35.0982 24.1592 35.099C24.2004 35.834 23.9309 36.5525 23.4166 37.0792ZM36.3373 27.3762C36.3373 28.7128 35.0502 28.9109 34.4561 28.9109H32.3769V18.5148H34.4561C35.5453 18.5148 36.3373 20.0495 36.3373 21.1881V27.3762Z" fill="#7409F6"/>
</svg>
