<svg width="40" height="40" viewBox="0 0 40 40" fill="none" xmlns="http://www.w3.org/2000/svg">
<g clip-path="url(#clip0_510_3393)">
<path d="M24.2634 10.4653C24.115 10.4653 23.9666 10.4106 23.8494 10.2935C23.6228 10.0669 23.6228 9.69193 23.8494 9.46538L25.529 7.78578C25.7712 7.5436 25.904 7.21549 25.904 6.87176C25.904 6.52802 25.7712 6.20773 25.529 5.95774C25.2868 5.71556 24.9587 5.58276 24.615 5.58276C24.2712 5.58276 23.951 5.71556 23.701 5.95774L20.4589 9.20758C20.2324 9.43413 19.8574 9.43413 19.6309 9.20758C19.4043 8.98103 19.4043 8.60605 19.6309 8.3795L22.8729 5.13747C23.3338 4.67655 23.9588 4.41875 24.615 4.41875C25.2712 4.41875 25.8884 4.67655 26.3571 5.13747C26.818 5.59838 27.0758 6.21554 27.0758 6.87176C27.0758 7.52798 26.818 8.14513 26.3571 8.61386L24.6775 10.2935C24.5603 10.4028 24.4119 10.4653 24.2634 10.4653Z" fill="#7409F6"/>
<path d="M25.9667 14.0549C25.8183 14.0549 25.6698 14.0002 25.5526 13.8831C25.3261 13.6565 25.3261 13.2815 25.5526 13.055L28.1775 10.4301C28.6775 9.93013 28.6775 9.10986 28.1775 8.60988C27.6775 8.10991 26.8573 8.10991 26.3573 8.60988L24.6386 10.3286C24.4121 10.5551 24.0371 10.5551 23.8105 10.3286C23.584 10.102 23.584 9.72702 23.8105 9.50047L25.5292 7.7818C26.4901 6.82091 28.0525 6.82091 29.0056 7.7818C29.9665 8.74269 29.9665 10.3051 29.0056 11.2582L26.3807 13.8831C26.2714 14.0002 26.1229 14.0549 25.9667 14.0549Z" fill="#7409F6"/>
<path d="M28.6151 16.7053C28.4667 16.7053 28.3182 16.6506 28.2011 16.5335C27.9745 16.3069 27.9745 15.9319 28.2011 15.7054L30.8259 13.0805C31.3259 12.5805 31.3259 11.7603 30.8259 11.2603C30.3259 10.7603 29.5057 10.7603 29.0057 11.2603L26.7167 13.5492C26.4902 13.7758 26.1152 13.7758 25.8887 13.5492C25.6621 13.3227 25.6621 12.9477 25.8887 12.7211L28.1776 10.4322C29.1385 9.4713 30.7009 9.4713 31.654 10.4322C32.6149 11.3931 32.6149 12.9477 31.654 13.9086L29.0369 16.5335C28.9198 16.6506 28.7713 16.7053 28.6151 16.7053Z" fill="#7409F6"/>
<path d="M4.50192 39.7605C4.35349 39.7605 4.20506 39.7058 4.08788 39.5886C3.86133 39.3621 3.86133 38.9871 4.08788 38.7605L16.1654 26.683C16.9623 25.8862 18.0169 25.4487 19.1418 25.4487C22.1182 25.4487 24.915 24.2925 27.0164 22.1832L33.4771 15.7304C33.977 15.2304 33.977 14.4102 33.4771 13.9102C32.9771 13.4102 32.1568 13.4102 31.6568 13.9102L29.3679 16.1992C29.1413 16.4257 28.7664 16.4257 28.5398 16.1992C28.3133 15.9726 28.3133 15.5976 28.5398 15.3711L30.8288 13.0821C31.7896 12.1212 33.3521 12.1212 34.3052 13.0821C35.266 14.043 35.266 15.5976 34.3052 16.5585L27.8445 23.0191C26.6961 24.1675 25.3525 25.0659 23.8525 25.6909C22.3526 26.3158 20.7668 26.6283 19.1418 26.6283C18.3294 26.6283 17.5716 26.9408 16.9935 27.5189L4.91596 39.5964C4.8066 39.7058 4.65817 39.7605 4.50192 39.7605Z" fill="#7409F6"/>
<path d="M14.1169 18.6584C13.4607 18.6584 12.8436 18.4006 12.3748 17.9397L9.56246 15.1274C9.10155 14.6665 8.84375 14.0415 8.84375 13.3853C8.84375 12.729 9.10155 12.1119 9.56246 11.6432C10.0234 11.1822 10.6483 10.9244 11.3046 10.9244C11.9608 10.9244 12.5779 11.1822 13.0467 11.6432L15.859 14.4555C16.3199 14.9164 16.5777 15.5414 16.5777 16.1976C16.5777 16.8538 16.3199 17.471 15.859 17.9397C15.3903 18.4006 14.7731 18.6584 14.1169 18.6584ZM11.2968 12.0963C10.953 12.0963 10.6327 12.2291 10.3827 12.4712C10.1406 12.7134 10.0078 13.0415 10.0078 13.3853C10.0078 13.729 10.1406 14.0493 10.3827 14.2993L13.1951 17.1116C13.4451 17.3538 13.7732 17.4866 14.1169 17.4866C14.4607 17.4866 14.781 17.3538 15.0309 17.1116C15.2731 16.8695 15.4059 16.5414 15.4059 16.1976C15.4059 15.8539 15.2731 15.5336 15.0309 15.2836L12.2186 12.4712C11.9686 12.2369 11.6405 12.0963 11.2968 12.0963Z" fill="#7409F6"/>
<path d="M16.7654 16.0085C16.1091 16.0085 15.492 15.7507 15.0233 15.2898L12.2109 12.4775C11.75 12.0166 11.4922 11.3916 11.4922 10.7354C11.4922 10.0791 11.75 9.46199 12.2109 8.99326C12.6718 8.53235 13.2968 8.27455 13.953 8.27455C14.6092 8.27455 15.2264 8.53235 15.6951 8.99326L18.5075 11.8056C18.9684 12.2665 19.2262 12.8915 19.2262 13.5477C19.2262 14.2039 18.9684 14.8289 18.4997 15.2898C18.0387 15.7586 17.4216 16.0085 16.7654 16.0085ZM15.8513 14.4617C16.0935 14.7039 16.4216 14.8367 16.7654 14.8367C17.1091 14.8367 17.4294 14.7039 17.6794 14.4617C17.9216 14.2196 18.0544 13.8915 18.0544 13.5477C18.0544 13.204 17.9216 12.8837 17.6794 12.6337L14.867 9.82135C14.6248 9.57917 14.2967 9.44637 13.953 9.44637C13.6093 9.44637 13.289 9.57917 13.039 9.82135C12.7968 10.0635 12.664 10.3916 12.664 10.7354C12.664 11.0791 12.7968 11.3994 13.039 11.6494L15.8513 14.4617Z" fill="#7409F6"/>
<path d="M19.4158 13.3586C18.7595 13.3586 18.1424 13.1008 17.6737 12.6399L14.8613 9.82756C14.4004 9.36665 14.1426 8.74168 14.1426 8.08546C14.1426 7.42924 14.4004 6.81209 14.8613 6.34336C15.3222 5.88244 15.9472 5.62465 16.6034 5.62465C17.2596 5.62465 17.8768 5.88244 18.3455 6.34336L21.1579 9.15572C21.6188 9.61664 21.8766 10.2416 21.8766 10.8978C21.8766 11.554 21.6188 12.1712 21.1579 12.6399C20.6891 13.1008 20.072 13.3586 19.4158 13.3586ZM16.5956 6.79646C16.2519 6.79646 15.9316 6.92927 15.6816 7.17144C15.4394 7.41362 15.3066 7.74173 15.3066 8.08546C15.3066 8.4292 15.4394 8.74949 15.6816 8.99948L18.4939 11.8118C18.7439 12.054 19.072 12.1868 19.4158 12.1868C19.7595 12.1868 20.0798 12.054 20.3298 11.8118C20.572 11.5697 20.7048 11.2416 20.7048 10.8978C20.7048 10.5541 20.572 10.2338 20.3298 9.98381L17.5174 7.17144C17.2674 6.93708 16.9393 6.79646 16.5956 6.79646Z" fill="#7409F6"/>
<path d="M11.4666 21.3081C10.8104 21.3081 10.1932 21.0503 9.72449 20.5894L8.06832 18.9332C7.10743 17.9723 7.10743 16.4099 8.06832 15.4568C9.02921 14.4959 10.5838 14.4959 11.5447 15.4568L13.2009 17.113C13.6618 17.5739 13.9196 18.1989 13.9196 18.8551C13.9196 19.5113 13.6618 20.1285 13.2009 20.5972C12.74 21.0581 12.1228 21.3081 11.4666 21.3081ZM10.5526 19.7613C10.7948 20.0035 11.1229 20.1363 11.4666 20.1363C11.8103 20.1363 12.1306 20.0035 12.3806 19.7613C12.6228 19.5191 12.7556 19.191 12.7556 18.8473C12.7556 18.5036 12.6228 18.1833 12.3806 17.9333L10.7166 16.2849C10.2167 15.7849 9.39638 15.7849 8.89641 16.2849C8.39643 16.7849 8.39643 17.6052 8.89641 18.1051L10.5526 19.7613Z" fill="#7409F6"/>
<path d="M0.802706 30.0969C0.654276 30.0969 0.505845 30.0422 0.388664 29.9251C0.162112 29.6985 0.162112 29.3235 0.388664 29.097L9.72415 19.7615C9.9507 19.5349 10.3257 19.5349 10.5522 19.7615C10.7788 19.988 10.7788 20.363 10.5522 20.5896L1.21675 29.9251C1.09957 30.0422 0.951136 30.0969 0.802706 30.0969Z" fill="#7409F6"/>
<path d="M39.217 28.8528C39.0686 28.8528 38.9202 28.7981 38.803 28.6809L32.7799 22.6578C32.6627 22.5406 32.6002 22.3843 32.608 22.2203C32.6627 20.861 32.3267 19.5173 31.6471 18.3377L31.5846 18.2283C31.4205 17.9471 31.5221 17.5877 31.8033 17.4315C32.0846 17.2674 32.4439 17.369 32.6002 17.6502L32.6627 17.7596C33.4048 19.0564 33.7954 20.5173 33.7798 22.0094L39.6311 27.8528C39.8576 28.0794 39.8576 28.4544 39.6311 28.6809C39.5139 28.7981 39.3655 28.8528 39.217 28.8528Z" fill="#7409F6"/>
<path d="M35.0749 39.803C34.9264 39.803 34.778 39.7483 34.6608 39.6311L24.0832 29.0535C22.6302 29.3113 21.1146 29.0066 19.8803 28.1942L17.8179 26.8349C17.5445 26.6552 17.4742 26.2958 17.6538 26.0224C17.8335 25.749 18.1929 25.6787 18.4663 25.8583L20.5287 27.2177C21.5911 27.9129 22.9036 28.1473 24.1379 27.8504C24.3332 27.8036 24.5441 27.8582 24.6926 28.0067L35.4889 38.803C35.7155 39.0296 35.7155 39.4046 35.4889 39.6311C35.3717 39.7483 35.2233 39.803 35.0749 39.803Z" fill="#7409F6"/>
<path d="M16.8258 27.4485C16.6774 27.4485 16.529 27.3938 16.4118 27.2766L9.7246 20.5894C9.49805 20.3629 9.49805 19.9879 9.7246 19.7614C9.95115 19.5348 10.3261 19.5348 10.5527 19.7614L17.2399 26.4485C17.4664 26.6751 17.4664 27.0501 17.2399 27.2766C17.1227 27.386 16.9742 27.4485 16.8258 27.4485Z" fill="#7409F6"/>
<path d="M13.9957 30.2783C13.8473 30.2783 13.6989 30.2236 13.5817 30.1065L6.89452 23.4193C6.66797 23.1927 6.66797 22.8177 6.89452 22.5912C7.12107 22.3646 7.49606 22.3646 7.72261 22.5912L14.4098 29.2784C14.6363 29.5049 14.6363 29.8799 14.4098 30.1065C14.2926 30.2158 14.1442 30.2783 13.9957 30.2783Z" fill="#7409F6"/>
<path d="M25.8398 30.0845C25.6914 30.0845 25.543 30.0298 25.4258 29.9126C25.1992 29.6861 25.1992 29.3111 25.4258 29.0845L32.5582 21.9521C32.7848 21.7255 33.1598 21.7255 33.3863 21.9521C33.6129 22.1786 33.6129 22.5536 33.3863 22.7801L26.2539 29.9126C26.1367 30.0298 25.9882 30.0845 25.8398 30.0845Z" fill="#7409F6"/>
<path d="M28.6699 32.9136C28.5215 32.9136 28.373 32.8589 28.2559 32.7417C28.0293 32.5152 28.0293 32.1402 28.2559 31.9136L29.3027 30.8668C29.5292 30.6402 29.9042 30.6402 30.1308 30.8668C30.3573 31.0934 30.3573 31.4683 30.1308 31.6949L29.0839 32.7417C28.9668 32.8589 28.8183 32.9136 28.6699 32.9136Z" fill="#7409F6"/>
<path d="M34.6855 26.8984C34.5371 26.8984 34.3887 26.8438 34.2715 26.7266C34.0449 26.5 34.0449 26.125 34.2715 25.8985L35.3495 24.8204C35.5761 24.5939 35.9511 24.5939 36.1776 24.8204C36.4042 25.047 36.4042 25.4219 36.1776 25.6485L35.0996 26.7266C34.9902 26.8359 34.8339 26.8984 34.6855 26.8984Z" fill="#7409F6"/>
<path d="M32.2011 29.3828C32.1621 29.3828 32.123 29.3828 32.084 29.375C32.0449 29.3672 32.0137 29.3594 31.9746 29.3438C31.9355 29.3281 31.9043 29.3125 31.873 29.2891C31.8418 29.2656 31.8105 29.2344 31.7871 29.2109C31.7559 29.1875 31.7324 29.1563 31.7168 29.125C31.6934 29.0938 31.6777 29.0625 31.6621 29.0235C31.6465 28.9844 31.6387 28.9531 31.6309 28.9141C31.6152 28.875 31.6152 28.836 31.6152 28.7969C31.6152 28.7578 31.6152 28.7188 31.623 28.6797C31.6309 28.6407 31.6387 28.6016 31.6543 28.5704C31.6699 28.5313 31.6855 28.5 31.709 28.4688C31.7324 28.4375 31.7559 28.4063 31.7871 28.3829C31.8105 28.3594 31.8418 28.3282 31.873 28.3126C31.9043 28.2891 31.9355 28.2735 31.9746 28.2579C32.0137 28.2422 32.0449 28.2344 32.084 28.2266C32.1621 28.211 32.2402 28.211 32.3105 28.2266C32.3496 28.2344 32.3886 28.2422 32.4199 28.2579C32.4589 28.2735 32.4902 28.2891 32.5214 28.3126C32.5605 28.3282 32.5917 28.3594 32.6152 28.3829C32.6386 28.4063 32.6699 28.4375 32.6855 28.4688C32.7089 28.5 32.7246 28.5313 32.7402 28.5704C32.7558 28.6016 32.7636 28.6407 32.7714 28.6797C32.7792 28.7188 32.7871 28.7578 32.7871 28.7969C32.7871 28.836 32.7792 28.875 32.7714 28.9141C32.7714 28.9453 32.7558 28.9844 32.7402 29.0235C32.7246 29.0547 32.7089 29.0938 32.6855 29.125C32.6699 29.1563 32.6386 29.1875 32.6152 29.2109C32.5917 29.2344 32.5605 29.2656 32.5293 29.2813C32.498 29.3047 32.4589 29.3203 32.4277 29.3359C32.3886 29.3516 32.3496 29.3672 32.3183 29.375C32.2793 29.3828 32.2402 29.3828 32.2011 29.3828Z" fill="#7409F6"/>
<path d="M5.83378 6.41772C5.68535 6.41772 5.53692 6.36304 5.41973 6.24586L1.74023 2.56635C1.51367 2.3398 1.51367 1.96482 1.74023 1.73827C1.96678 1.51171 2.34176 1.51171 2.56831 1.73827L6.24782 5.41777C6.47437 5.64432 6.47437 6.01931 6.24782 6.24586C6.13064 6.35523 5.98221 6.41772 5.83378 6.41772Z" fill="#7409F6"/>
<path d="M9.53122 4.06299C9.21092 4.06299 8.94531 3.79738 8.94531 3.47708V0.781898C8.94531 0.461602 9.21092 0.19599 9.53122 0.19599C9.85152 0.19599 10.1171 0.461602 10.1171 0.781898V3.47708C10.1171 3.79738 9.85152 4.06299 9.53122 4.06299Z" fill="#7409F6"/>
<path d="M3.47836 10.1162H0.783175C0.455066 10.1162 0.197266 9.8506 0.197266 9.5303C0.197266 9.21001 0.462878 8.94439 0.783175 8.94439H3.47836C3.79865 8.94439 4.06426 9.21001 4.06426 9.5303C4.06426 9.8506 3.79865 10.1162 3.47836 10.1162Z" fill="#7409F6"/>
<path d="M34.166 6.41772C34.0176 6.41772 33.8691 6.36304 33.7519 6.24586C33.5254 6.01931 33.5254 5.64432 33.7519 5.41777L37.4315 1.73827C37.658 1.51171 38.033 1.51171 38.2595 1.73827C38.4861 1.96482 38.4861 2.3398 38.2595 2.56635L34.58 6.24586C34.4707 6.35523 34.3144 6.41772 34.166 6.41772Z" fill="#7409F6"/>
<path d="M30.4687 4.06299C30.1484 4.06299 29.8828 3.79738 29.8828 3.47708V0.781898C29.8828 0.461602 30.1484 0.19599 30.4687 0.19599C30.789 0.19599 31.0546 0.461602 31.0546 0.781898V3.47708C31.0546 3.79738 30.789 4.06299 30.4687 4.06299Z" fill="#7409F6"/>
<path d="M39.2166 10.1162H36.5215C36.2012 10.1162 35.9355 9.8506 35.9355 9.5303C35.9355 9.21001 36.2012 8.94439 36.5215 8.94439H39.2166C39.5447 8.94439 39.8025 9.21001 39.8025 9.5303C39.8025 9.8506 39.5447 10.1162 39.2166 10.1162Z" fill="#7409F6"/>
</g>
<defs>
<clipPath id="clip0_510_3393">
<rect width="40" height="40" fill="white"/>
</clipPath>
</defs>
</svg>
