<svg width="40" height="40" viewBox="0 0 40 40" fill="none" xmlns="http://www.w3.org/2000/svg">
<g clip-path="url(#clip0_510_3500)">
<mask id="mask0_510_3500" style="mask-type:luminance" maskUnits="userSpaceOnUse" x="0" y="0" width="40" height="40">
<path d="M40 0H0V40H40V0Z" fill="white"/>
</mask>
<g mask="url(#mask0_510_3500)">
<path d="M26.5354 16.2512C26.5354 10.685 21.9879 6.1566 16.3981 6.1566C10.8084 6.1566 6.26079 10.685 6.26079 16.2512C6.26079 21.8173 10.8084 26.3458 16.3981 26.3458C21.9879 26.3458 26.5354 21.8173 26.5354 16.2512ZM16.3981 25.0555C11.5229 25.0555 7.55657 21.1059 7.55657 16.2513C7.55657 11.3966 11.5229 7.447 16.3981 7.447C21.2734 7.447 25.2396 11.3966 25.2396 16.2513C25.2396 21.1059 21.2734 25.0555 16.3981 25.0555ZM16.3817 9.39289C12.6353 9.39289 9.58734 12.428 9.58734 16.1586C9.58734 19.8892 12.6353 22.9243 16.3817 22.9243C20.1282 22.9243 23.1761 19.8892 23.1761 16.1586C23.1761 12.428 20.1282 9.39289 16.3817 9.39289ZM16.3817 21.6339C13.3498 21.6339 10.8831 19.1777 10.8831 16.1585C10.8831 13.1393 13.3498 10.6831 16.3817 10.6831C19.4137 10.6831 21.8803 13.1394 21.8803 16.1585C21.8802 19.1777 19.4136 21.6339 16.3817 21.6339ZM20.4091 13.0886C19.7335 12.4161 18.6347 12.4159 17.9594 13.0886L15.4446 15.5926L14.8041 14.9546C14.4778 14.6298 14.0428 14.4507 13.5792 14.4508C13.1156 14.4508 12.6806 14.6298 12.3544 14.9548C11.6791 15.6272 11.6791 16.7216 12.3544 17.3941L14.041 19.0736C14.4773 19.508 15.0003 19.7284 15.5028 19.7284C15.937 19.7284 16.3561 19.5638 16.6908 19.2305L20.409 15.528C20.7353 15.203 20.9152 14.7698 20.9152 14.3082C20.9152 13.8466 20.7354 13.4135 20.4091 13.0886ZM19.4927 14.6156L15.7745 18.3182C15.4686 18.6227 15.0716 18.2751 14.9573 18.1612L13.2707 16.4816C13.1035 16.3152 13.1035 16.0336 13.2707 15.867C13.3523 15.7858 13.4619 15.7411 13.5794 15.7411C13.6969 15.7411 13.8065 15.7859 13.888 15.867L14.9866 16.9611C15.1081 17.082 15.2729 17.1501 15.4448 17.1501C15.6166 17.1501 15.7813 17.082 15.9028 16.9611L18.8756 14.0009C18.9572 13.9198 19.0668 13.875 19.1842 13.875C19.3016 13.875 19.4113 13.9198 19.4929 14.001C19.5745 14.0823 19.6195 14.1913 19.6195 14.3083C19.6194 14.4252 19.5745 14.5343 19.4927 14.6156ZM39.6629 28.6215L38.4886 28.1714C38.3118 27.5481 38.0623 26.9488 37.7441 26.3828L38.2553 25.237C38.3641 24.9932 38.3109 24.7078 38.1213 24.519L36.406 22.8112C36.2166 22.6224 35.9301 22.5694 35.685 22.6777L34.5338 23.1868C33.9655 22.8699 33.3641 22.6216 32.7385 22.4456L32.2863 21.2759C32.1902 21.0269 31.9498 20.8626 31.6817 20.8626H29.7053C29.8228 20.5263 29.9283 20.1856 30.0198 19.8405L32.3031 18.9654C32.5532 18.8695 32.7183 18.6302 32.7183 18.3633V14.1392C32.7183 13.8723 32.5532 13.633 32.3031 13.5372L30.0202 12.6623C29.6984 11.448 29.2145 10.2856 28.5784 9.19875L29.572 6.97136C29.6808 6.72748 29.6276 6.442 29.438 6.2533L26.4384 3.26645C26.2489 3.07773 25.9624 3.02467 25.7173 3.13298L23.4797 4.12257C22.3881 3.48919 21.2214 3.00749 20.0027 2.68709L19.1237 0.413386C19.0275 0.164274 18.7871 0 18.5191 0H14.2771C14.0091 0 13.7688 0.164355 13.6725 0.413386L12.7936 2.68709C11.5747 3.00758 10.4081 3.48919 9.31648 4.12257L7.07891 3.13298C6.83393 3.02467 6.5474 3.07773 6.35781 3.26645L3.35823 6.25338C3.16873 6.44209 3.11552 6.72748 3.22429 6.97144L4.21799 9.19938C3.58192 10.2863 3.09819 11.4481 2.77635 12.6621L0.493262 13.5372C0.243175 13.633 0.078125 13.8723 0.078125 14.1392V18.3633C0.078125 18.6302 0.243175 18.8695 0.493262 18.9654L2.77602 19.8404C3.09803 21.0548 3.58184 22.217 4.21791 23.3038L3.22437 25.5312C3.1156 25.7751 3.16881 26.0605 3.35832 26.2493L6.35789 29.2362C6.54748 29.4248 6.83393 29.4777 7.07899 29.3695L9.31664 28.3799C10.4084 29.0134 11.5752 29.495 12.7938 29.8154L13.6727 32.0891C13.7689 32.3381 14.0092 32.5025 14.2773 32.5025H18.5193C18.7873 32.5025 19.0277 32.3381 19.1239 32.0891L20.0026 29.816C20.2914 29.74 20.577 29.6539 20.8598 29.5599V31.639C20.8598 31.9059 21.0248 32.1452 21.275 32.2411L22.4492 32.6912C22.6262 33.3145 22.8756 33.9138 23.1938 34.4795L22.6826 35.6254C22.5738 35.8693 22.627 36.1547 22.8166 36.3434L24.5318 38.0514C24.7213 38.24 25.0078 38.2929 25.2528 38.1848L26.4041 37.6756C26.9724 37.9926 27.5737 38.2409 28.1994 38.4169L28.6515 39.5866C28.7477 39.8356 28.9881 40 29.2562 40H31.6817C31.9498 40 32.1901 39.8356 32.2863 39.5866L32.7384 38.4173C33.3643 38.2412 33.9659 37.9928 34.5344 37.6758L35.685 38.1848C35.9298 38.2932 36.2166 38.2402 36.4061 38.0515L38.1213 36.3434C38.3109 36.1547 38.3641 35.8693 38.2553 35.6254L37.744 34.4791C38.0623 33.913 38.3117 33.3141 38.4883 32.6913L39.663 32.2411C39.913 32.1452 40.0781 31.9059 40.0781 31.639V29.2237C40.078 28.9567 39.913 28.7173 39.6629 28.6215ZM19.3686 28.6442C19.1608 28.6934 18.9906 28.8415 18.914 29.04L18.0744 31.2122H14.7221L13.8823 29.0395C13.8055 28.841 13.6354 28.6928 13.4277 28.6437C12.1109 28.3316 10.857 27.814 9.7007 27.105C9.51859 26.9934 9.2932 26.9785 9.09805 27.0648L6.95954 28.0104L4.58907 25.65L5.53855 23.5213C5.62521 23.3269 5.61015 23.1023 5.49806 22.9212C4.78635 21.7703 4.26634 20.5214 3.95268 19.2091C3.90327 19.0021 3.75459 18.8328 3.5552 18.7564L1.37383 17.9203V14.5823L3.55552 13.746C3.75491 13.6697 3.9036 13.5002 3.953 13.2933C4.2665 11.9816 4.78635 10.7329 5.49814 9.58195C5.61023 9.4007 5.62529 9.17617 5.53863 8.98172L4.58915 6.85248L6.95954 4.49201L9.09797 5.43773C9.29305 5.52394 9.51875 5.50902 9.70062 5.39741C10.8566 4.68862 12.1105 4.17096 13.4275 3.85886C13.6352 3.80959 13.8054 3.66152 13.8821 3.46298L14.722 1.29032H18.0743L18.9142 3.46305C18.9909 3.66152 19.161 3.80967 19.3687 3.85895C20.6856 4.17104 21.9395 4.6887 23.0957 5.39749C23.2777 5.5091 23.5032 5.52402 23.6983 5.43781L25.8367 4.49209L28.2072 6.85248L27.2577 8.98117C27.1711 9.17562 27.1862 9.40023 27.2982 9.58133C28.01 10.7323 28.5299 11.9812 28.8435 13.2934C28.893 13.5003 29.0416 13.6698 29.241 13.7461L31.4224 14.5823V17.9204L29.2405 18.7566C29.0413 18.833 28.8924 19.0023 28.843 19.2093C28.5491 20.4391 28.0732 21.6139 27.428 22.7049C27.0767 22.8421 26.7345 23.0025 26.404 23.187L25.2527 22.6779C25.0077 22.5695 24.7213 22.6224 24.5316 22.8113L22.8165 24.5191C22.627 24.708 22.5738 24.9934 22.6826 25.2372L23.1938 26.3835C23.0252 26.6833 22.8766 26.9925 22.7472 27.3095C21.689 27.9132 20.5541 28.3632 19.3686 28.6442ZM38.7823 31.1959L37.7123 31.6059C37.513 31.6823 37.3643 31.8517 37.3148 32.0587C37.1426 32.7796 36.8567 33.4664 36.4651 34.0998C36.353 34.2811 36.338 34.5055 36.4247 34.6999L36.8904 35.7441L35.8044 36.8255L34.7562 36.362C34.5611 36.2756 34.3355 36.2906 34.1535 36.4023C33.5176 36.7923 32.8278 37.077 32.1033 37.2485C31.8955 37.2978 31.7253 37.4459 31.6487 37.6445L31.2368 38.7096H29.7009L29.2891 37.6442C29.2124 37.4457 29.0423 37.2976 28.8345 37.2484C28.1104 37.0767 27.4207 36.792 26.7847 36.4021C26.6027 36.2905 26.3772 36.2755 26.1821 36.3619L25.1334 36.8256L24.0473 35.7443L24.513 34.7005C24.5996 34.5061 24.5845 34.2816 24.4724 34.1003C24.081 33.4675 23.7952 32.7806 23.6225 32.0587C23.5731 31.8517 23.4243 31.6823 23.225 31.606L22.1555 31.1961V29.6667L23.2252 29.2566C23.4246 29.1802 23.5734 29.0109 23.6227 28.804C23.7952 28.0826 24.081 27.3959 24.4726 26.7627C24.5846 26.5816 24.5997 26.357 24.513 26.1626L24.0473 25.1184L25.1333 24.037L26.182 24.5009C26.3771 24.5872 26.6027 24.5722 26.7846 24.4606C27.4206 24.0706 28.1102 23.7859 28.8344 23.6143C29.0422 23.565 29.2123 23.417 29.2891 23.2184L29.7009 22.153H31.2368L31.6486 23.2184C31.7252 23.4169 31.8954 23.5649 32.1032 23.6142C32.8274 23.7859 33.5171 24.0706 34.1529 24.4605C34.335 24.5722 34.5605 24.5869 34.7556 24.5008L35.8043 24.037L36.8903 25.1184L36.4248 26.1621C36.3381 26.3566 36.3531 26.5811 36.4652 26.7623C36.8567 27.3953 37.1427 28.0822 37.3152 28.8039C37.3646 29.0109 37.5133 29.1802 37.7127 29.2566L38.7822 29.6666L38.7823 31.1959ZM30.4688 25.5302C27.7549 25.5302 25.547 27.7288 25.547 30.4312C25.547 33.1335 27.755 35.3321 30.4688 35.3321C33.1827 35.3321 35.3905 33.1335 35.3905 30.4312C35.3905 27.7288 33.1827 25.5302 30.4688 25.5302ZM30.4688 34.0419C28.4694 34.0419 26.8428 32.4221 26.8428 30.4312C26.8428 28.4403 28.4695 26.8206 30.4688 26.8206C32.4681 26.8206 34.0948 28.4403 34.0948 30.4312C34.0948 32.4221 32.4682 34.0419 30.4688 34.0419Z" fill="#7409F6"/>
</g>
</g>
<defs>
<clipPath id="clip0_510_3500">
<rect width="40" height="40" fill="white"/>
</clipPath>
</defs>
</svg>
