<svg width="40" height="40" viewBox="0 0 40 40" fill="none" xmlns="http://www.w3.org/2000/svg">
<path d="M39.5822 28.2973C38.8043 26.6953 37.0404 25.8862 35.3719 26.2442C36.4357 24.6607 37.2517 22.8772 37.8042 20.9178C37.8178 20.8696 37.8247 20.8197 37.8247 20.7696V6.01065C37.8247 5.78448 37.6852 5.58167 37.474 5.50081L24.4125 0.50167C24.2868 0.453545 24.1479 0.453545 24.0222 0.50167L10.9606 5.50081C10.7494 5.58167 10.6099 5.7844 10.6099 6.01065V19.6711H7.95336V17.9871C7.95336 17.6856 7.70898 17.4411 7.4075 17.4411H0.584922C0.283438 17.4411 0.0390625 17.6855 0.0390625 17.9871V34.7262C0.0390625 35.0277 0.283438 35.2721 0.584922 35.2721H7.40742C7.70891 35.2721 7.95328 35.0278 7.95328 34.7262V33.4C8.92766 33.9106 9.83797 34.3916 10.6608 34.8264C16.4673 37.8952 19.3819 39.4355 22.2859 39.5296C22.3807 39.5328 22.4752 39.5342 22.5698 39.5342C25.382 39.5342 28.1129 38.1754 33.383 35.5529C34.6832 34.9059 36.157 34.1725 37.8217 33.3653C38.73 32.9256 39.4139 32.1547 39.7473 31.1948C40.0809 30.235 40.0223 29.2063 39.5822 28.2973ZM11.7016 6.3862L24.2173 1.59604L36.733 6.38628V20.6936C36.0312 23.1467 34.8936 25.3012 33.3518 27.1024L26.3459 30.4995C26.5089 29.1986 25.9883 27.8674 24.8979 27.0252C23.3465 25.8279 21.7945 24.6307 20.2427 23.4335C18.6662 22.2173 17.0898 21.0011 15.514 19.785C15.4184 19.7113 15.3012 19.6712 15.1805 19.6712H11.7018V6.3862H11.7016ZM6.86156 34.1803H1.13086V18.533H6.86156V20.2171V32.4985V34.1803ZM38.7161 30.8367C38.4784 31.5211 37.9918 32.0701 37.3457 32.383C35.6757 33.1927 34.1992 33.9274 32.8966 34.5756C27.6134 37.2046 24.9613 38.5228 22.3212 38.4385C19.6691 38.3525 16.8291 36.8516 11.1709 33.8612C10.206 33.3513 9.12227 32.7785 7.95328 32.1676V20.7629H14.9941C16.5209 21.9412 18.0484 23.1195 19.5757 24.2978C21.1276 25.495 22.6795 26.6922 24.2306 27.8892C25.1684 28.6135 25.5143 29.846 25.126 30.9347L25.0887 31.0291C24.9977 31.2595 24.8732 31.4785 24.72 31.6785C23.8094 32.8582 22.1095 33.0778 20.9306 32.1678L14.3721 27.107L13.7052 27.9713L20.2636 33.0321C20.9519 33.5634 21.7664 33.8205 22.5755 33.8205C23.7123 33.8204 24.8379 33.3127 25.5855 32.344C25.681 32.2194 25.7669 32.0891 25.8457 31.9552L34.9888 27.5218C36.329 26.8718 37.9491 27.4336 38.5998 28.7735C38.9126 29.4196 38.9539 30.1522 38.7161 30.8367ZM24.2173 22.772C28.2571 22.772 31.5438 19.4853 31.5438 15.4456C31.5438 11.407 28.2572 8.12128 24.2173 8.12128C20.1775 8.12128 16.8909 11.407 16.8909 15.4456C16.8909 19.4853 20.1775 22.772 24.2173 22.772ZM24.2173 9.21308C27.6551 9.21308 30.452 12.0089 30.452 15.4455C30.452 18.8832 27.6551 21.6801 24.2173 21.6801C20.7796 21.6801 17.9827 18.8833 17.9827 15.4455C17.9827 12.0089 20.7795 9.21308 24.2173 9.21308ZM22.047 17.0544V16.5085H23.1388V17.0544C23.1388 17.3515 23.3898 17.6025 23.687 17.6025H24.4892C24.9328 17.6025 25.2937 17.2407 25.2937 16.7958C25.2937 16.3522 24.9327 15.9914 24.4892 15.9914C24.0579 15.9914 23.4264 15.96 22.9235 15.6881C22.5237 15.472 22.0471 15.0202 22.0471 14.0951C22.0471 13.1425 22.7541 12.3519 23.6716 12.2188V10.9235H24.7634V12.1996C25.6591 12.208 26.3855 12.9397 26.3855 13.8387V14.3846H25.2938V13.8387C25.2938 13.5364 25.0488 13.2906 24.7478 13.2906H23.9455C23.5007 13.2906 23.1388 13.6515 23.1388 14.095C23.1388 14.5352 23.2405 14.8995 24.4892 14.8995C25.5348 14.8995 26.3855 15.7502 26.3855 16.7957C26.3855 17.7493 25.6795 18.5407 24.7633 18.6741V19.9695H23.6715V18.6934C22.7744 18.6851 22.047 17.9535 22.047 17.0544Z" fill="#7409F6"/>
</svg>
