<svg width="40" height="40" viewBox="0 0 40 40" fill="none" xmlns="http://www.w3.org/2000/svg">
<g clip-path="url(#clip0_510_3471)">
<path d="M17.478 9.7469C13.7259 10.6217 10.7055 13.5973 9.78316 17.3275C8.85793 21.0696 9.91684 24.8839 12.6159 27.5307C13.5706 28.467 14.1407 29.9677 14.1407 31.5451V31.7969C14.1407 32.8357 14.5939 33.7703 15.3125 34.4145V36.4844C15.3125 38.4229 16.8896 40 18.8282 40H21.1719C23.1104 40 24.6875 38.4229 24.6875 36.4844V34.4145C25.4062 33.7703 25.8594 32.8357 25.8594 31.7969V31.5405C25.8594 29.9871 26.46 28.4578 27.4659 27.4498C29.4527 25.4586 30.5469 22.8129 30.5469 20C30.5469 13.2751 24.315 8.15331 17.478 9.7469ZM22.3438 36.4844C22.3438 37.1306 21.8181 37.6563 21.1719 37.6563H18.8282C18.182 37.6563 17.6563 37.1306 17.6563 36.4844V35.3125H22.3438V36.4844ZM25.8068 25.7942C24.3507 27.2534 23.5157 29.3478 23.5157 31.5405V31.7969C23.5157 32.4431 22.99 32.9688 22.3438 32.9688H17.6563C17.0101 32.9688 16.4844 32.4431 16.4844 31.7969V31.5451C16.4844 29.3186 15.6725 27.2455 14.2568 25.8573C12.1561 23.7971 11.3343 20.8188 12.0583 17.89C12.7712 15.0067 15.1075 12.7062 18.0102 12.0295C23.3752 10.7785 28.2032 14.7835 28.2032 20C28.2032 22.1878 27.3521 24.2456 25.8068 25.7942Z" fill="#7409F6"/>
<path d="M10.8854 9.2276L7.57082 5.91307C7.11324 5.45541 6.37121 5.45541 5.91355 5.91307C5.4559 6.37072 5.4559 7.11268 5.91355 7.57033L9.22816 10.8849C9.68574 11.3425 10.4279 11.3425 10.8854 10.8849C11.3431 10.4272 11.3431 9.68525 10.8854 9.2276Z" fill="#7409F6"/>
<path d="M5.9375 18.8281H1.17188C0.524687 18.8281 0 19.3528 0 20C0 20.6472 0.524687 21.1719 1.17188 21.1719H5.9375C6.58469 21.1719 7.10938 20.6472 7.10938 20C7.10938 19.3528 6.58469 18.8281 5.9375 18.8281Z" fill="#7409F6"/>
<path d="M38.8281 18.8281H34.0625C33.4153 18.8281 32.8906 19.3528 32.8906 20C32.8906 20.6472 33.4153 21.1719 34.0625 21.1719H38.8281C39.4753 21.1719 40 20.6472 40 20C40 19.3528 39.4753 18.8281 38.8281 18.8281Z" fill="#7409F6"/>
<path d="M34.0866 5.91307C33.6291 5.45541 32.8871 5.45541 32.4293 5.91307L29.1147 9.2276C28.6571 9.68518 28.6571 10.4272 29.1147 10.8849C29.5723 11.3425 30.3143 11.3425 30.772 10.8849L34.0866 7.57033C34.5443 7.11275 34.5443 6.37072 34.0866 5.91307Z" fill="#7409F6"/>
<path d="M20 0C19.3528 0 18.8281 0.524687 18.8281 1.17188V5.9375C18.8281 6.58469 19.3528 7.10938 20 7.10938C20.6472 7.10938 21.1719 6.58469 21.1719 5.9375V1.17188C21.1719 0.524687 20.6472 0 20 0Z" fill="#7409F6"/>
<path d="M20.0005 14.1406C19.5188 14.1406 19.0281 14.1984 18.5429 14.312C16.5222 14.7837 14.8305 16.447 14.3336 18.451C14.1778 19.0792 14.5607 19.7147 15.1888 19.8705C15.8171 20.0263 16.4525 19.6433 16.6083 19.0152C16.8943 17.8623 17.9089 16.8668 19.0765 16.5942C19.3876 16.5213 19.6986 16.4844 20.0005 16.4844C20.6477 16.4844 21.1724 15.9597 21.1724 15.3125C21.1724 14.6653 20.6477 14.1406 20.0005 14.1406Z" fill="#7409F6"/>
</g>
<defs>
<clipPath id="clip0_510_3471">
<rect width="40" height="40" fill="white"/>
</clipPath>
</defs>
</svg>
