<svg width="30" height="30" viewBox="0 0 30 30" fill="none" xmlns="http://www.w3.org/2000/svg">
<g clip-path="url(#clip0_130_117)">
<path d="M3.55973 20.7749C-1.18642 16.0287 -1.18633 8.30593 3.55973 3.55969C8.30597 -1.18656 16.0286 -1.18656 20.7748 3.55969C24.8013 7.58623 25.4112 13.5747 22.6059 18.2511C22.6059 18.2511 22.4044 18.5892 22.6765 18.8611C24.2291 20.4136 28.8871 25.0717 28.8871 25.0717C30.1233 26.3078 30.4176 28.0362 29.3213 29.1327L29.1326 29.3212C28.0364 30.4176 26.3078 30.1234 25.0717 28.8873C25.0717 28.8873 20.4236 24.239 18.8742 22.6897C18.589 22.4045 18.251 22.606 18.251 22.606C13.5748 25.4112 7.58627 24.8015 3.55973 20.7749ZM18.5274 18.5275C22.0344 15.0205 22.0343 9.31431 18.5274 5.80732C15.0204 2.30042 9.31416 2.30033 5.80727 5.80732C2.30028 9.31421 2.30028 15.0205 5.80727 18.5275C9.31426 22.0343 15.0204 22.0343 18.5274 18.5275Z" fill="#272E39"/>
<path d="M17.7507 11.4453C17.9139 11.4453 18.0798 11.4132 18.2398 11.3456C18.8787 11.0752 19.1776 10.338 18.9072 9.69903C17.2076 5.68264 12.5574 3.7978 8.54114 5.49737C7.90223 5.76778 7.60332 6.50497 7.87372 7.14398C8.14423 7.78299 8.88123 8.08171 9.52043 7.8114C12.2607 6.65187 15.4336 7.9379 16.5931 10.6781C16.7959 11.1574 17.2612 11.4453 17.7507 11.4453Z" fill="#7409F6"/>
</g>
<defs>
<clipPath id="clip0_130_117">
<rect width="30" height="30" fill="white" transform="matrix(-1 0 0 1 30 0)"/>
</clipPath>
</defs>
</svg>
