<svg width="120" height="123" viewBox="0 0 120 123" fill="none" xmlns="http://www.w3.org/2000/svg">
<g opacity="0.2">
<path d="M45 15.7407H11.25C5.04638 15.7407 0 20.8806 0 27.1991V61.5741C0 67.8926 5.04638 73.0324 11.25 73.0324H26.3873L20.6946 102.859C20.4803 103.98 20.7696 105.138 21.4819 106.018C22.1942 106.898 23.2544 107.407 24.375 107.407H36.5241C39.7852 107.407 42.6837 105.235 43.6707 102.089L54.5874 75.7142C54.6497 75.5632 54.7028 75.4084 54.7449 75.2517C55.7446 71.5927 56.25 67.8086 56.25 64.006V27.1991C56.25 20.8806 51.2036 15.7407 45 15.7407Z" fill="#7409F6"/>
<path d="M108.75 15.7407H75C68.7964 15.7407 63.75 20.8806 63.75 27.1991V61.5741C63.75 67.8926 68.7964 73.0324 75 73.0324H90.1392L84.4446 102.859C84.2285 103.98 84.5178 105.138 85.2319 106.018C85.9424 106.898 87.0044 107.407 88.125 107.407H100.276C103.539 107.407 106.436 105.235 107.421 102.087L118.337 75.7142C118.4 75.5631 118.451 75.4083 118.495 75.2517C119.495 71.5889 120 67.8049 120 64.006V27.1991C120 20.8806 114.954 15.7407 108.75 15.7407Z" fill="#7409F6"/>
</g>
</svg>
