<svg width="80" height="60" viewBox="0 0 80 60" fill="none" xmlns="http://www.w3.org/2000/svg">
<g opacity="0.2" clip-path="url(#clip0_429_303)">
<path d="M30 0H7.5C3.36425 0 0 3.36425 0 7.5V30C0 34.1357 3.36425 37.5 7.5 37.5H17.5916L13.7964 57.0227C13.6536 57.7564 13.8464 58.5144 14.3213 59.0906C14.7961 59.6668 15.5029 60 16.25 60H24.3494C26.5234 60 28.4558 58.5779 29.1138 56.5186L36.3916 39.2554C36.4331 39.1565 36.4685 39.0552 36.4966 38.9527C37.1631 36.5576 37.5 34.0808 37.5 31.5918V7.5C37.5 3.36425 34.1357 0 30 0Z" fill="#7409F6"/>
<path d="M72.5 0H50C45.8643 0 42.5 3.36425 42.5 7.5V30C42.5 34.1357 45.8643 37.5 50 37.5H60.0928L56.2964 57.0227C56.1524 57.7564 56.3452 58.5144 56.8213 59.0906C57.2949 59.6668 58.0029 60 58.75 60H66.8506C69.0259 60 70.957 58.5779 71.6138 56.5173L78.8916 39.2554C78.9331 39.1565 78.9672 39.0552 78.9965 38.9526C79.6631 36.5552 80 34.0784 80 31.5918V7.5C80 3.36425 76.6357 0 72.5 0Z" fill="#7409F6"/>
</g>
<defs>
<clipPath id="clip0_429_303">
<rect width="80" height="60" fill="white"/>
</clipPath>
</defs>
</svg>
