<svg width="186" height="60" viewBox="0 0 186 60" fill="none" xmlns="http://www.w3.org/2000/svg">
<g clip-path="url(#clip0_377_295)">
<path d="M73.255 49.0798C63.1139 46.6797 61.9208 29.2797 72.0619 25.1997C75.1639 23.9997 78.9817 23.9997 81.8451 25.5597C90.4352 29.9997 85.1857 37.6797 82.0837 31.9197C78.9817 26.0397 70.0337 26.8797 70.0337 37.1997C70.0337 46.1997 76.9535 46.7997 80.0555 44.6397C82.561 42.8397 81.6065 41.7597 83.0382 39.9597C83.3961 39.5997 83.8733 39.3597 84.4699 39.3597C89.4808 39.2397 85.4243 51.9597 73.255 49.0798Z" fill="#282828"/>
<path d="M76.7147 49.5599C75.6409 49.5599 74.4478 49.4399 73.2547 49.0799C68.7211 47.9999 65.4998 43.6799 65.0225 38.0399C64.7839 35.2799 65.2612 32.6399 66.4542 30.3599C67.6473 27.8399 69.6755 26.0399 72.0617 25.0799C75.1637 23.7599 78.9815 23.8799 81.8449 25.4399C85.6627 27.4799 86.7365 30.1199 86.4978 31.9199C86.3785 32.9999 85.6627 33.8399 84.8275 33.9599C83.8731 34.0799 82.7993 33.3599 81.9642 31.9199C80.7711 29.6399 78.6236 28.3199 76.476 28.3199C75.9988 28.3199 75.5216 28.3199 75.1637 28.4399C72.0617 29.2799 70.1528 32.5199 70.1528 37.0799C70.1528 41.9999 72.181 44.0399 73.732 44.8799C75.9988 46.0799 78.5043 45.4799 79.936 44.3999C81.3676 43.3199 81.7256 42.4799 81.9642 41.6399C82.2028 41.0399 82.3221 40.4399 82.9186 39.7199C83.2766 39.3599 83.7538 39.1199 84.4696 39.1199C85.4241 39.1199 86.0206 39.4799 86.3785 40.1999C87.0944 41.5199 86.4978 43.7999 84.9469 45.7199C83.9924 47.0399 81.3676 49.5599 76.7147 49.5599ZM73.2547 49.0799C80.0553 50.6399 83.6345 47.2799 84.8275 45.8399C86.2592 44.0399 86.8558 41.7599 86.2592 40.4399C85.9013 39.7199 85.3048 39.3599 84.4696 39.3599C83.7538 39.3599 83.3959 39.5999 83.0379 39.9599C82.5607 40.6799 82.3221 41.2799 82.0835 41.7599C81.8449 42.5999 81.4869 43.4399 80.0553 44.5199C78.6236 45.5999 75.9988 46.1999 73.6127 44.9999C71.9424 44.1599 69.9141 41.9999 69.9141 37.0799C69.9141 32.3999 71.8231 29.0399 75.0444 28.3199C77.7884 27.5999 80.6518 29.0399 82.0835 31.7999C82.7993 33.2399 83.8731 33.9599 84.8275 33.8399C85.6627 33.7199 86.2592 32.9999 86.3785 31.9199C86.6172 30.1199 85.5434 27.4799 81.8449 25.5599C79.1008 24.1199 75.283 23.9999 72.181 25.1999C66.4542 27.4799 64.9032 33.5999 65.2612 38.0399C65.6191 43.6799 68.7211 47.9999 73.2547 49.0799Z" fill="#282828"/>
<path d="M96.8777 49.4396C82.6802 49.4396 86.498 26.1596 100.576 31.6796C108.57 34.9196 107.615 49.4396 96.8777 49.4396ZM96.8777 34.4396C92.3441 34.4396 91.7475 40.3196 93.0599 43.3196C94.3723 46.6796 98.4287 46.7996 100.218 44.5196C102.485 41.5196 101.65 34.4396 96.8777 34.4396Z" fill="#282828"/>
<path d="M96.8776 49.5599C92.9405 49.5599 90.0771 47.7599 88.6454 44.5199C87.0944 40.7999 87.9296 35.9999 90.6736 33.2399C93.1791 30.7199 96.639 30.1199 100.576 31.6799C104.991 33.4799 106.541 38.2799 105.706 42.2399C105.11 45.8399 102.366 49.5599 96.8776 49.5599ZM96.4004 30.9599C94.2529 30.9599 92.3439 31.7999 90.7929 33.3599C88.0489 36.1199 87.2137 40.7999 88.7647 44.3999C90.0771 47.6399 92.9405 49.3199 96.8776 49.3199C102.366 49.3199 104.991 45.5999 105.706 42.1199C106.422 38.2799 104.871 33.3599 100.576 31.6799C99.0251 31.1999 97.7128 30.9599 96.4004 30.9599ZM96.8776 46.1999C96.639 46.1999 96.5197 46.1999 96.2811 46.1999C94.7301 45.9599 93.537 44.9999 92.9405 43.4399C92.1053 41.3999 92.1053 38.1599 93.4177 36.2399C94.2529 35.0399 95.4459 34.4399 96.8776 34.4399C98.5479 34.4399 99.9796 35.3999 100.815 36.9599C102.008 39.3599 101.65 42.7199 100.218 44.6399C99.3831 45.5999 98.0707 46.1999 96.8776 46.1999ZM96.8776 34.5599C95.4459 34.5599 94.3722 35.1599 93.537 36.3599C92.2246 38.2799 92.2246 41.5199 93.0598 43.4399C93.6563 44.8799 94.8494 45.9599 96.2811 46.0799C96.5197 46.0799 96.639 46.0799 96.8776 46.0799C98.0707 46.0799 99.2638 45.4799 100.099 44.5199C101.531 42.7199 101.769 39.3599 100.695 36.9599C99.8603 35.3999 98.5479 34.5599 96.8776 34.5599Z" fill="#282828"/>
<path d="M109.047 46.9203C105.706 43.5603 105.826 36.9603 109.047 33.6003C112.865 29.6403 121.455 30.0003 123.841 36.6003C127.897 47.5203 115.132 53.2803 109.047 46.9203ZM118.711 36.0003C117.279 34.2003 114.654 34.0803 113.103 35.1603C110.359 37.0803 110.24 43.4403 113.103 45.4803C114.654 46.5603 117.279 46.5603 118.711 44.6403C120.381 42.4803 120.381 38.0403 118.711 36.0003Z" fill="#282828"/>
<path d="M115.251 49.5601C112.984 49.5601 110.717 48.7201 108.928 46.9201C105.706 43.5601 105.706 36.9601 108.928 33.4801C110.956 31.4401 114.416 30.4801 117.637 31.2001C120.62 31.8001 122.887 33.7201 123.841 36.4801C125.869 42.1201 123.483 46.2001 120.5 48.1201C119.069 49.0801 117.16 49.5601 115.251 49.5601ZM115.609 31.2001C113.103 31.2001 110.717 32.1601 109.166 33.7201C105.945 37.0801 105.945 43.5601 109.166 46.9201C112.388 50.2801 117.398 50.0401 120.62 48.0001C123.602 46.2001 125.989 42.1201 123.96 36.6001C123.006 33.8401 120.739 32.0401 117.756 31.4401C116.921 31.2001 116.205 31.2001 115.609 31.2001ZM115.49 46.2001C114.654 46.2001 113.7 45.9601 113.103 45.4801C111.791 44.5201 110.956 42.4801 110.956 40.2001C110.956 37.9201 111.791 36.0001 113.103 35.0401C114.654 33.9601 117.279 33.9601 118.711 35.8801C120.381 37.9201 120.381 42.4801 118.711 44.5201C117.995 45.7201 116.683 46.2001 115.49 46.2001ZM115.49 34.4401C114.654 34.4401 113.819 34.6801 113.223 35.1601C111.91 36.0001 111.195 37.9201 111.195 40.2001C111.195 42.4801 111.91 44.4001 113.223 45.3601C114.774 46.4401 117.279 46.4401 118.711 44.5201C120.381 42.4801 120.381 38.0401 118.711 36.0001C117.876 34.9201 116.683 34.4401 115.49 34.4401Z" fill="#282828"/>
<path d="M126.347 46.6796V27.1196C126.347 23.3996 130.88 23.3996 130.88 27.1196V46.6796C130.88 49.6796 128.256 50.1596 127.063 48.7196C126.585 48.2396 126.347 47.6396 126.347 46.6796Z" fill="#282828"/>
<path d="M128.614 49.5597C128.017 49.5597 127.301 49.3197 126.943 48.7197C126.466 48.2397 126.347 47.5197 126.347 46.6797V27.1197C126.347 25.1997 127.54 24.2397 128.614 24.2397C129.807 24.2397 131 25.1997 131 27.1197V46.6797C131 47.9997 130.403 49.0797 129.449 49.4397C129.091 49.5597 128.852 49.5597 128.614 49.5597ZM128.614 24.3597C127.54 24.3597 126.466 25.1997 126.466 27.1197V46.6797C126.466 47.5197 126.705 48.2397 127.063 48.7197C127.659 49.4397 128.614 49.6797 129.329 49.3197C130.284 48.9597 130.761 47.9997 130.761 46.6797V27.1197C130.761 25.3197 129.687 24.3597 128.614 24.3597Z" fill="#282828"/>
<path d="M149.85 41.6402C149.85 27.2402 149.014 24.3602 152.116 24.3602C153.667 24.3602 154.383 25.5602 154.383 27.1202C154.383 47.6402 155.218 49.4402 151.759 49.4402C148.776 49.4402 147.941 46.5602 138.754 32.4002V46.5602C138.754 50.4002 134.22 50.4002 134.22 46.5602C134.22 28.3202 133.385 26.1602 135.533 24.7202C136.964 23.7602 138.515 24.0002 139.828 26.0402C140.902 28.0802 139.231 25.5602 149.85 41.6402Z" fill="#282828"/>
<path d="M136.487 49.5601C135.413 49.5601 134.101 48.6001 134.101 46.5601C134.101 41.6401 134.101 38.0401 133.982 35.0401C133.862 27.1201 133.862 25.6801 135.413 24.7201C136.129 24.2401 136.845 24.1201 137.561 24.2401C138.396 24.3601 139.112 24.9601 139.708 26.0401L140.066 26.5201C140.544 27.3601 140.544 27.3601 144.242 32.8801C145.555 34.9201 147.344 37.5601 149.73 41.2801C149.73 38.5201 149.73 36.1201 149.73 34.2001C149.611 28.2001 149.611 25.6801 150.565 24.7201C150.923 24.3601 151.401 24.2401 152.116 24.2401C153.667 24.2401 154.503 25.3201 154.503 27.1201C154.503 30.9601 154.503 34.2001 154.503 36.8401C154.622 45.1201 154.622 47.8801 153.548 48.9601C153.071 49.4401 152.474 49.4401 151.759 49.4401C149.492 49.4401 148.418 47.8801 144.242 41.0401C142.81 38.7601 141.14 36.0001 138.873 32.5201V46.5601C138.754 48.6001 137.561 49.5601 136.487 49.5601ZM137.084 24.3601C136.606 24.3601 136.01 24.4801 135.533 24.8401C133.982 25.8001 133.982 27.2401 134.101 35.0401C134.101 38.0401 134.22 41.6401 134.22 46.5601C134.22 48.4801 135.413 49.3201 136.368 49.3201C137.442 49.3201 138.635 48.4801 138.635 46.5601V32.1601L138.754 32.4001C141.021 36.0001 142.81 38.7601 144.242 41.0401C148.418 47.7601 149.492 49.3201 151.639 49.3201C152.355 49.3201 152.952 49.2001 153.429 48.8401C154.383 47.8801 154.383 44.8801 154.264 36.8401C154.264 34.2001 154.264 30.9601 154.264 27.1201C154.264 26.0401 154.025 24.3601 152.116 24.3601C151.401 24.3601 151.043 24.4801 150.685 24.8401C149.73 25.8001 149.85 28.4401 149.85 34.2001C149.85 36.2401 149.85 38.6401 149.85 41.5201V41.7601L149.73 41.5201C147.225 37.6801 145.435 34.9201 144.123 32.8801C140.424 27.3601 140.424 27.3601 139.947 26.5201L139.589 26.0401C138.993 25.0801 138.277 24.4801 137.442 24.3601C137.322 24.4801 137.203 24.3601 137.084 24.3601Z" fill="#282828"/>
<path d="M161.424 41.4004C161.424 45.6004 165.241 49.2004 171.088 43.5604C171.565 43.2004 172.639 43.0804 173.235 43.6804C173.712 44.0404 173.951 44.8804 173.235 46.2004C170.968 50.1604 162.975 50.8804 159.276 47.0404C155.578 43.2004 155.816 34.2004 162.02 31.8004C171.923 27.9604 176.098 39.3604 172.996 40.9204C171.445 41.6404 163.213 41.4004 161.424 41.4004ZM161.424 38.8804H169.537C169.059 32.7604 162.02 32.4004 161.424 38.8804Z" fill="#282828"/>
<path d="M165.838 49.5601C163.213 49.5601 160.708 48.6001 159.157 47.0401C157.128 44.8801 156.174 41.2801 157.009 37.8001C157.606 34.8001 159.395 32.6401 161.901 31.6801C164.645 30.6001 167.15 30.6001 169.298 31.6801C170.968 32.5201 172.519 34.0801 173.354 35.8801C174.428 38.1601 174.189 40.3201 172.996 40.9201C171.684 41.6401 165.599 41.5201 162.736 41.4001C162.259 41.4001 161.781 41.4001 161.543 41.4001C161.543 43.5601 162.617 45.3601 164.168 45.9601C164.645 46.2001 165.122 46.2001 165.599 46.2001C167.27 46.2001 169.178 45.2401 171.087 43.3201C171.565 42.9601 172.638 42.8401 173.235 43.4401C173.474 43.6801 174.07 44.5201 173.235 46.0801C172.28 47.7601 170.014 49.0801 167.27 49.3201C166.792 49.5601 166.315 49.5601 165.838 49.5601ZM165.838 30.9601C164.645 30.9601 163.332 31.2001 161.901 31.8001C159.395 32.7601 157.725 34.9201 157.009 37.9201C156.293 41.2801 157.128 44.8801 159.157 47.0401C160.946 48.9601 164.048 49.8001 167.15 49.4401C169.775 49.0801 172.042 47.8801 172.996 46.2001C173.831 44.7601 173.354 44.0401 172.996 43.8001C172.4 43.3201 171.445 43.3201 170.968 43.6801C168.94 45.6001 167.031 46.5601 165.361 46.5601C164.883 46.5601 164.287 46.4401 163.81 46.3201C162.259 45.6001 161.185 43.8001 161.066 41.5201V41.4001H161.185C161.424 41.4001 161.901 41.4001 162.497 41.4001C165.361 41.4001 171.445 41.5201 172.638 40.9201C173.831 40.3201 173.951 38.1601 172.996 36.0001C172.042 33.3601 169.536 30.9601 165.838 30.9601ZM169.656 38.8801H161.423V38.7601C161.781 35.5201 163.69 34.0801 165.599 34.0801C167.27 34.0801 169.417 35.6401 169.656 38.8801ZM161.423 38.7601H169.417C169.178 35.6401 167.15 34.2001 165.48 34.2001C163.69 34.2001 161.781 35.6401 161.423 38.7601Z" fill="#282828"/>
<path d="M176.455 31.4398C176.455 30.3598 176.336 26.8798 176.813 25.9198C177.767 24.2398 180.392 24.7198 180.75 26.5198C180.989 27.4798 180.869 30.3598 180.869 31.3198C182.659 31.3198 184.449 31.0798 184.449 32.9998C184.449 34.6798 182.54 34.6798 180.869 34.6798C180.869 43.0798 180.034 45.9598 182.42 45.9598C183.136 45.9598 183.971 45.7198 184.568 45.7198C185.284 45.7198 186 46.3198 186 47.2798C186 49.1998 183.255 49.5598 181.466 49.5598C175.5 49.5598 176.455 45.8398 176.455 34.7998C172.756 34.7998 172.876 31.4398 176.455 31.4398Z" fill="#282828"/>
<path d="M181.347 49.5599C179.557 49.5599 178.364 49.1999 177.529 48.4799C176.097 47.0399 176.217 44.1599 176.217 38.9999C176.217 37.7999 176.217 36.3599 176.217 34.7999C174.427 34.7999 173.592 33.9599 173.592 33.1199C173.592 32.2799 174.546 31.4399 176.217 31.4399C176.217 31.3199 176.217 31.0799 176.217 30.8399C176.217 29.2799 176.097 26.7599 176.574 25.9199C177.052 25.0799 177.887 24.7199 178.841 24.8399C179.796 24.9599 180.512 25.6799 180.75 26.5199C180.87 27.2399 180.87 29.5199 180.87 30.7199C180.87 30.9599 180.87 31.0799 180.87 31.3199C181.227 31.3199 181.466 31.3199 181.824 31.3199C182.778 31.3199 183.614 31.4399 184.091 31.9199C184.329 32.1599 184.449 32.5199 184.449 33.1199C184.449 33.5999 184.329 33.9599 184.091 34.1999C183.494 34.7999 182.301 34.7999 181.227 34.7999C181.108 34.7999 181.108 34.7999 180.989 34.7999H180.87C180.87 36.8399 180.87 38.5199 180.75 39.8399C180.631 43.0799 180.631 44.8799 181.227 45.4799C181.466 45.7199 181.824 45.8399 182.182 45.8399C182.54 45.8399 182.898 45.7199 183.256 45.7199C183.614 45.5999 183.972 45.5999 184.329 45.5999C185.045 45.5999 185.761 46.1999 185.761 47.1599C186 49.1999 183.136 49.5599 181.347 49.5599ZM176.455 31.5599C174.785 31.5599 173.83 32.3999 173.83 33.1199C173.83 33.8399 174.666 34.6799 176.455 34.6799H176.574V34.7999C176.574 36.3599 176.574 37.7999 176.574 38.9999C176.455 43.9199 176.455 46.9199 177.887 48.3599C178.603 49.0799 179.796 49.4399 181.585 49.4399C183.256 49.4399 186.119 49.1999 186.119 47.2799C186.119 46.4399 185.403 45.8399 184.807 45.8399C184.449 45.8399 184.21 45.9599 183.733 45.9599C183.375 46.0799 183.017 46.0799 182.659 46.0799C182.182 46.0799 181.824 45.9599 181.585 45.7199C180.87 44.9999 180.989 43.3199 180.989 39.9599C180.989 38.5199 181.108 36.8399 181.108 34.7999V34.6799H181.347C181.466 34.6799 181.466 34.6799 181.585 34.6799C182.659 34.6799 183.852 34.6799 184.329 34.0799C184.568 33.8399 184.687 33.4799 184.687 33.1199C184.687 32.6399 184.568 32.2799 184.329 32.0399C183.852 31.5599 183.017 31.5599 182.182 31.5599C181.824 31.5599 181.466 31.5599 181.227 31.5599H181.108V31.4399C181.108 31.3199 181.108 31.0799 181.108 30.8399C181.108 29.5199 181.108 27.3599 180.989 26.6399C180.87 25.7999 180.154 25.1999 179.199 25.0799C178.483 24.9599 177.529 25.1999 177.052 26.0399C176.574 26.7599 176.694 29.3999 176.694 30.8399C176.455 31.0799 176.455 31.3199 176.455 31.5599Z" fill="#282828"/>
<path d="M45.4563 43.3198C43.4281 43.3198 43.1895 40.5598 42.8316 38.3998C42.235 32.8798 40.4454 27.9598 33.287 27.9598C26.4865 27.9598 23.1459 32.3998 23.1459 38.6398C23.1459 49.1998 33.287 52.9198 39.133 46.3198C42.3543 50.3998 54.0464 51.4798 54.0464 38.2798C54.0464 22.5598 40.3261 15.1198 26.4865 18.8398C33.6449 4.55983 35.4345 2.27983 31.8553 0.599831C28.0375 -1.32017 27.9182 1.43983 16.7033 25.0798L15.2716 9.47983C15.033 6.71983 12.0503 5.87983 10.2607 7.31983C7.99384 8.87983 9.18691 10.6798 11.4538 35.6398C6.56215 29.5198 4.41462 25.3198 1.31263 27.9598C0.000252321 29.0398 -0.238362 31.0798 0.835403 32.3998C3.93739 36.2398 7.03938 40.0798 10.0221 44.0398C13.0047 47.7598 15.7488 52.1998 19.2087 55.3198C23.8617 59.5198 30.9008 60.7198 36.9855 59.9998C39.3717 59.6398 47.1266 58.0798 45.8142 54.1198C45.0984 52.3198 43.1895 52.1998 41.5192 52.5598C13.3627 62.5198 11.8117 23.5198 33.4063 23.5198C49.8707 23.2798 49.99 43.3198 45.4563 43.3198ZM33.1677 33.4798C37.1048 33.4798 36.031 37.6798 36.9855 42.2398C28.2761 49.4398 27.083 33.4798 33.1677 33.4798Z" fill="#40BF40"/>
</g>
<defs>
<clipPath id="clip0_377_295">
<rect width="186" height="60" fill="white"/>
</clipPath>
</defs>
</svg>
