<svg width="141" height="60" viewBox="0 0 141 60" fill="none" xmlns="http://www.w3.org/2000/svg">
<g clip-path="url(#clip0_184_87)">
<path d="M17.6844 26.0399C18.1624 26.0399 18.6403 26.1599 19.1183 26.2799C19.5963 26.5199 19.9547 26.7599 20.3132 27.1199C20.6717 27.4799 20.9106 27.8399 21.1496 28.3199C21.3886 28.7999 21.3886 29.2799 21.3886 29.7599C21.3886 30.2399 21.2691 30.7199 21.1496 31.1999C20.9106 31.6799 20.6717 32.0399 20.3132 32.3999C19.9547 32.7599 19.5963 32.9999 19.1183 33.2399C18.6403 33.4799 18.1624 33.4799 17.6844 33.4799H2.62877V36.8399C2.62877 37.1999 2.50928 37.5599 2.2703 37.7999C2.03132 38.0399 1.67285 38.1599 1.31438 38.1599C0.955915 38.1599 0.597447 38.0399 0.358468 37.7999C0.119489 37.3199 0 36.9599 0 36.5999V27.2399C0 26.8799 0.119489 26.5199 0.358468 26.2799C0.597447 26.0399 0.955915 25.9199 1.31438 25.9199H17.6844V26.0399ZM2.62877 28.5599V30.5999H17.8039C18.0429 30.5999 18.2819 30.4799 18.5209 30.3599C18.7598 30.1199 18.8793 29.8799 18.8793 29.6399C18.8793 29.3999 18.7598 29.1599 18.5209 28.9199C18.2819 28.6799 18.0429 28.5599 17.8039 28.5599H2.62877Z" fill="#272E39"/>
<path d="M26.4074 37.6799C25.9294 37.4399 25.5709 37.1999 25.2125 36.8399C24.854 36.4799 24.615 36.1199 24.376 35.6399C24.1371 35.1599 24.0176 34.6799 24.0176 34.1999V27.2399C24.0176 26.8799 24.1371 26.5199 24.376 26.2799C24.615 26.0399 24.9735 25.9199 25.332 25.9199C25.6904 25.9199 25.9294 26.0399 26.2879 26.2799C26.5269 26.5199 26.6463 26.8799 26.6463 27.2399V34.1999C26.6463 34.4399 26.7658 34.6799 27.0048 34.9199C27.2438 35.1599 27.4828 35.2799 27.7217 35.2799H44.0918C44.4503 35.2799 44.8087 35.3999 45.0477 35.6399C45.2867 35.8799 45.4062 36.2399 45.4062 36.5999C45.4062 36.9599 45.2867 37.3199 45.0477 37.5599C44.8087 37.7999 44.4503 37.9199 44.0918 37.9199H27.8412C27.2438 37.9199 26.7658 37.7999 26.4074 37.6799Z" fill="#272E39"/>
<path d="M50.4246 37.4401C50.1856 37.8001 49.8272 37.9201 49.4687 37.9201C49.1102 37.9201 48.7517 37.8001 48.5128 37.5601C48.2738 37.3201 48.1543 36.9601 48.1543 36.6001C48.1543 36.2401 48.2738 36.0001 48.3933 35.7601L54.9652 26.7601C55.3237 26.4001 55.6821 26.0401 56.1601 25.6801C56.638 25.4401 57.2355 25.3201 57.8329 25.3201C58.4304 25.3201 58.9083 25.4401 59.3863 25.6801C59.8643 25.9201 60.2227 26.2801 60.5812 26.6401L67.1531 35.5201C67.2726 35.6401 67.3921 35.7601 67.3921 36.0001C67.5116 36.1201 67.5116 36.3601 67.5116 36.4801C67.5116 36.8401 67.3921 37.2001 67.1531 37.4401C66.9141 37.6801 66.5557 37.8001 66.1972 37.8001C65.7192 37.8001 65.3608 37.6801 65.1218 37.3201L58.7889 28.8001C58.6694 28.6801 58.5499 28.4401 58.3109 28.3201C58.0719 28.2001 57.9524 28.0801 57.7134 28.0801C57.4745 28.0801 57.355 28.2001 57.116 28.3201C56.877 28.4401 56.7575 28.6801 56.638 28.8001L50.4246 37.4401ZM56.1601 34.9201C56.1601 34.4401 56.2796 34.0801 56.638 33.7201C56.9965 33.3601 57.355 33.2401 57.8329 33.2401C58.3109 33.2401 58.6694 33.3601 59.0278 33.7201C59.3863 34.0801 59.5058 34.4401 59.5058 34.9201C59.5058 35.4001 59.3863 35.7601 59.0278 36.1201C58.6694 36.4801 58.3109 36.6001 57.8329 36.6001C57.355 36.6001 56.9965 36.4801 56.638 36.1201C56.3991 35.8801 56.1601 35.4001 56.1601 34.9201Z" fill="#272E39"/>
<path d="M139.086 26.04C139.444 26.04 139.803 26.16 140.042 26.4C140.281 26.64 140.4 27 140.4 27.36C140.4 27.72 140.281 27.96 140.042 28.2C139.803 28.44 139.564 28.56 139.205 28.68H133.709C133.111 28.68 132.753 28.8 132.395 29.04C132.036 29.28 131.797 29.52 131.558 29.88C131.319 30.24 131.2 30.6 131.2 30.96C131.08 31.32 131.08 31.68 131.08 32.04V36.72C131.08 37.08 130.961 37.44 130.722 37.68C130.483 37.92 130.124 38.04 129.766 38.04C129.407 38.04 129.049 37.92 128.81 37.68C128.571 37.44 128.451 37.08 128.451 36.72V32.04C128.451 31.44 128.571 30.96 128.69 30.36C128.81 29.76 129.049 29.28 129.288 28.68H120.326C119.968 28.68 119.609 28.56 119.37 28.32C119.131 28.08 119.012 27.72 119.012 27.36C119.012 27 119.131 26.64 119.37 26.4C119.609 26.16 119.968 26.04 120.326 26.04H139.086Z" fill="#272E39"/>
<path d="M114.949 35.28H99.8929C99.2954 35.28 98.698 35.16 98.3395 34.92C97.981 34.68 97.6226 34.44 97.3836 34.08C97.2641 33.84 97.1446 33.48 97.0251 33.24C96.4277 33.96 95.8302 34.68 95.1133 35.28C95.2328 35.52 95.3523 35.64 95.4718 35.88C95.8302 36.48 96.4277 36.96 96.9056 37.32C97.5031 37.68 98.1005 37.92 98.9369 37.92H114.829C115.187 37.92 115.546 37.8 115.785 37.56C116.024 37.32 116.143 36.96 116.143 36.6C116.143 36.24 116.024 35.88 115.785 35.64C115.665 35.4 115.307 35.28 114.949 35.28Z" fill="#272E39"/>
<path d="M100.729 28.5599H114.948C115.306 28.5599 115.665 28.4399 115.904 28.1999C116.143 27.9599 116.262 27.5999 116.262 27.2399C116.262 26.8799 116.143 26.5199 115.904 26.2799C115.665 26.0399 115.306 25.9199 114.948 25.9199H102.401C101.923 26.8799 101.326 27.7199 100.729 28.5599Z" fill="#272E39"/>
<path d="M100.252 33.2399H113.874C114.232 33.2399 114.591 33.1199 114.83 32.8799C115.069 32.6399 115.188 32.2799 115.188 31.9199C115.188 31.5599 115.069 31.1999 114.83 30.9599C114.591 30.7199 114.232 30.5999 113.874 30.5999H100.252C99.8934 30.5999 99.5349 30.7199 99.296 30.9599C99.057 31.1999 98.9375 31.5599 98.9375 31.9199C98.9375 32.2799 99.057 32.6399 99.296 32.8799C99.5349 33.1199 99.8934 33.2399 100.252 33.2399Z" fill="#272E39"/>
<path d="M88.7806 26.64C88.1832 26.28 87.5857 26.04 86.7493 26.04H75.2783C74.4419 26.04 73.8444 26.28 73.1275 26.64C72.5301 27 71.9326 27.48 71.5742 28.08C71.0962 28.68 70.8572 29.28 70.6182 30C70.3793 30.72 70.2598 31.44 70.2598 32.04V36.72C70.2598 37.08 70.3793 37.44 70.6182 37.68C70.8572 37.92 71.2157 38.04 71.5742 38.04C71.9326 38.04 72.2911 37.92 72.5301 37.68C72.769 37.44 72.8885 37.08 72.8885 36.72V32.04C72.8885 31.68 72.8885 31.32 73.008 30.96C73.1275 30.6 73.247 30.24 73.486 29.88C73.725 29.52 73.9639 29.28 74.4419 29.04C74.8004 28.8 75.3978 28.68 75.9953 28.68H85.7934C86.3908 28.68 86.8688 28.8 87.3467 29.04C87.7052 29.28 88.0637 29.52 88.3027 29.88C88.5416 30.24 88.6611 30.6 88.7806 30.96C88.9001 31.32 88.9001 31.68 88.9001 32.04C89.617 31.2 90.4535 30.48 91.0509 29.64C90.8119 29.04 90.573 28.44 90.2145 27.96C89.856 27.48 89.3781 27 88.7806 26.64Z" fill="#272E39"/>
<path d="M46.2425 60C42.0604 60 38.9537 58.8 37.2808 56.4C34.7716 52.92 35.4885 47.52 39.1927 41.16C39.5511 40.56 40.1486 40.44 40.746 40.8C41.3435 41.16 41.463 41.76 41.1045 42.36C37.8783 48 37.1614 52.44 39.0732 55.08C41.1045 57.96 46.4815 58.56 53.6509 56.64C61.2982 54.6 70.1404 50.16 78.5047 44.04C95.3527 31.8 105.748 16.2 101.208 9.83997C99.1763 6.95997 93.9188 6.35997 86.7494 8.27997C79.1021 10.32 70.2599 14.76 61.8957 20.88C61.4177 21.24 60.7008 21.12 60.3423 20.64C59.9838 20.16 60.1033 19.44 60.5813 19.08C69.1845 12.72 78.2657 8.15997 86.152 5.99997C94.3968 3.83997 100.371 4.79997 103.119 8.51997C108.497 16.08 98.3399 32.52 79.8191 45.84C71.2158 52.2 62.1346 56.76 54.2483 58.8C51.2611 59.64 48.6323 60 46.2425 60Z" fill="#272E39"/>
<path d="M46.3623 17.7599C46.3623 20.9999 43.7335 23.6399 40.5073 23.6399C37.2811 23.6399 34.6523 20.9999 34.6523 17.7599C34.6523 14.5199 37.2811 11.8799 40.5073 11.8799C43.7335 11.8799 46.3623 14.5199 46.3623 17.7599Z" fill="#00D197"/>
<path d="M52.0977 13.6801C53.2196 13.6801 54.129 12.7668 54.129 11.6401C54.129 10.5134 53.2196 9.6001 52.0977 9.6001C50.9759 9.6001 50.0664 10.5134 50.0664 11.6401C50.0664 12.7668 50.9759 13.6801 52.0977 13.6801Z" fill="#7FD7FF"/>
<path d="M48.8717 3.12C48.8717 4.8 47.5573 6.24 45.7649 6.24C44.0921 6.24 42.6582 4.92 42.6582 3.12C42.6582 1.32 44.0921 0 45.7649 0C47.4378 0 48.8717 1.32 48.8717 3.12Z" fill="#F600FC"/>
</g>
<defs>
<clipPath id="clip0_184_87">
<rect width="140.4" height="60" fill="white"/>
</clipPath>
</defs>
</svg>
