<svg width="186" height="60" viewBox="0 0 186 60" fill="none" xmlns="http://www.w3.org/2000/svg">
<g clip-path="url(#clip0_184_77)">
<path d="M81.8444 15.9771C84.9258 15.9771 87.3224 17.0115 89.2626 18.9656C91.2027 20.9196 92.1157 23.6782 92.1157 27.1265V43.6782H86.4094V27.7012C86.4094 25.7472 85.8388 24.138 84.8117 23.1035C83.7845 22.069 82.3009 21.4943 80.4749 21.4943C78.4206 21.4943 76.8228 22.1839 75.5675 23.4483C74.3121 24.7127 73.7414 26.6667 73.7414 29.3104V43.6782H68.0352V5.97705H73.7414V20.115C75.3392 17.3564 78.0782 15.9771 81.8444 15.9771Z" fill="#404042"/>
<path d="M104.325 32.6437C104.782 34.7127 105.695 36.2069 107.292 37.3564C108.776 38.5058 110.716 38.9656 112.885 38.9656C115.966 38.9656 118.249 37.8161 119.732 35.6322L124.525 38.3908C121.901 42.2989 118.02 44.2529 112.885 44.2529C108.548 44.2529 105.01 42.8736 102.385 40.2299C99.7601 37.5862 98.3906 34.138 98.3906 30.115C98.3906 26.092 99.7601 22.7587 102.385 20C105.01 17.2414 108.434 15.9771 112.542 15.9771C116.423 15.9771 119.618 17.3564 122.129 20.115C124.64 22.8736 125.895 26.2069 125.895 30.115C125.895 30.6897 125.781 31.4943 125.667 32.5288H104.325V32.6437ZM104.211 27.9311H119.846C119.504 25.7472 118.591 24.138 117.107 22.9885C115.738 21.8391 114.026 21.3794 112.2 21.3794C110.031 21.3794 108.32 21.9541 106.836 23.1035C105.581 24.2529 104.668 25.8621 104.211 27.9311Z" fill="#404042"/>
<path d="M154.771 43.5635H148.152L141.532 34.3681L134.913 43.5635H128.18L138.223 29.7704L128.75 16.667H135.37L141.532 25.1727L147.695 16.667H154.429L144.842 29.8854L154.771 43.5635Z" fill="#404042"/>
<path d="M179.308 16.6667H185.014V43.5633H179.308V39.6552C177.139 42.6437 174.058 44.2529 169.95 44.2529C166.298 44.2529 163.102 42.8736 160.591 40.115C157.966 37.3564 156.711 34.023 156.711 30.115C156.711 26.092 157.966 22.7587 160.591 20.115C163.216 17.3564 166.298 15.9771 169.95 15.9771C174.058 15.9771 177.139 17.4713 179.308 20.4598V16.6667ZM164.814 36.3219C166.412 37.9311 168.466 38.7357 170.863 38.7357C173.259 38.7357 175.313 37.9311 176.911 36.3219C178.509 34.7127 179.308 32.6437 179.308 30.115C179.308 27.5862 178.509 25.6322 176.911 23.9081C175.313 22.2989 173.259 21.4943 170.863 21.4943C168.466 21.4943 166.412 22.2989 164.814 23.9081C163.216 25.5173 162.417 27.5862 162.417 30.115C162.417 32.6437 163.216 34.7127 164.814 36.3219Z" fill="#404042"/>
<path d="M51.6365 20.5475C51.6365 17.1309 49.8207 14.0559 46.8701 12.3477L30.528 2.78122C27.5773 1.07293 24.0592 1.07293 21.1086 2.78122L4.76645 12.3477C1.81579 14.0559 0 17.1309 0 20.5475V39.5664C0 42.983 1.81579 46.0579 4.76645 47.7662L21.1086 57.2188C24.0592 58.9271 27.5773 58.9271 30.528 57.2188L46.9836 47.7662C49.9342 46.0579 51.75 42.983 51.75 39.5664V20.5475H51.6365ZM44.8273 49.019H25.875C15.4342 49.019 6.9227 40.4775 6.9227 30C6.9227 19.5225 15.4342 10.981 25.875 10.981C36.3158 10.981 44.8273 19.5225 44.8273 30V49.019Z" fill="#00D197"/>
</g>
<defs>
<clipPath id="clip0_184_77">
<rect width="185.25" height="60" fill="white"/>
</clipPath>
</defs>
</svg>
