<svg width="250" height="60" viewBox="0 0 250 60" fill="none" xmlns="http://www.w3.org/2000/svg">
<g clip-path="url(#clip0_184_105)">
<path fill-rule="evenodd" clip-rule="evenodd" d="M132.773 21.7199C179.41 19.4399 217.481 16.4399 250 27.9599C210.026 19.9199 174.176 21.2399 133.249 26.0399C81.6945 32.0399 28.395 -0.360116 0.952148 26.7599C14.7529 -3.12012 76.777 24.5999 132.773 21.7199Z" fill="#FC0017"/>
<path fill-rule="evenodd" clip-rule="evenodd" d="M158.63 15.12C127.538 1.19995 95.495 1.55995 59.6448 8.39995C40.9265 11.9999 26.4912 7.43995 17.7666 2.51995C55.2032 18.1199 89.6257 -19.3201 158.63 15.12Z" fill="#272E39"/>
<path fill-rule="evenodd" clip-rule="evenodd" d="M215.577 59.76H207.805L202.57 53.28C204.315 51.36 205.266 49.2 205.584 46.92L215.577 59.76ZM201.459 51.84C196.383 45.48 198.921 48.6 192.1 40.2L176.396 59.76H168.623L187.5 36C187.976 35.4 188.61 34.8 189.562 34.32C190.514 33.72 191.466 33.48 192.259 33.48C193.211 33.48 194.004 33.72 194.956 34.32C195.749 34.8 196.383 35.4 197.018 36L203.68 44.52C203.997 47.04 203.204 49.68 201.459 51.84Z" fill="#272E39"/>
<path fill-rule="evenodd" clip-rule="evenodd" d="M176.237 38.0399H162.595V59.7599H156.567V38.0399H142.767V33.3599H176.237V38.0399Z" fill="#272E39"/>
<path fill-rule="evenodd" clip-rule="evenodd" d="M137.374 57.4799C137.374 59.1599 136.581 59.9999 135.153 59.9999C134.043 59.9999 132.774 59.5199 131.346 58.4399L108.979 41.3999V59.6399H102.951V35.6399C102.951 35.0399 103.11 34.4399 103.586 34.0799C104.062 33.5999 104.696 33.3599 105.489 33.3599C106.6 33.3599 107.71 33.8399 108.979 34.6799L131.346 51.5999V33.3599H137.374V57.4799Z" fill="#272E39"/>
<path fill-rule="evenodd" clip-rule="evenodd" d="M95.8124 59.7599H65.6729V33.3599H95.8124V38.0399H71.8594V44.0399H94.2261V48.7199H71.8594V55.1999H95.8124V59.7599Z" fill="#272E39"/>
<path fill-rule="evenodd" clip-rule="evenodd" d="M60.121 59.7599H51.0792L41.4028 52.3199H28.2365V47.7599H44.5753C46.7962 47.7599 48.6997 47.3999 50.286 46.6799C52.0309 45.8399 52.8241 44.5199 52.8241 42.9599C52.8241 39.7199 50.1274 38.0399 44.5753 38.0399H24.7467V59.7599H18.7188V33.3599H43.6236C48.0652 33.3599 51.7137 34.0799 54.4104 35.5199C57.583 37.1999 59.1693 39.5999 59.1693 42.8399C59.1693 44.9999 58.2175 46.9199 56.4726 48.5999C54.7276 50.0399 52.5068 51.1199 49.4929 51.7199L60.121 59.7599Z" fill="#272E39"/>
<path fill-rule="evenodd" clip-rule="evenodd" d="M250 59.7599H220.019V33.3599H226.046V55.1999H250V59.7599Z" fill="#272E39"/>
<path fill-rule="evenodd" clip-rule="evenodd" d="M9.20051 33.3599V35.1599L6.66244 37.0799V39.5999H5.07614V36.3599C5.07614 35.8799 4.91751 35.5199 4.75888 35.2799C4.28299 34.9199 3.96574 34.7999 3.33122 34.7999C2.22081 34.7999 1.58629 35.2799 1.58629 36.3599V40.3199H9.20051V41.5199H0V36.5999C0 35.7599 0.317259 35.0399 0.793147 34.4399C1.42766 33.8399 2.22081 33.4799 3.33122 33.4799C4.12436 33.4799 4.75888 33.7199 5.23477 34.0799C5.86929 34.3199 6.18655 34.7999 6.34518 35.3999L9.20051 33.3599ZM9.20051 52.3199V56.2799C9.20051 57.2399 8.72462 58.0799 7.93147 58.7999C6.97969 59.3999 5.86929 59.7599 4.60025 59.7599C3.33122 59.7599 2.22081 59.3999 1.42766 58.7999C0.475888 58.0799 0 57.2399 0 56.2799V52.3199H1.58629V56.2799C1.58629 56.8799 1.90355 57.4799 2.37944 57.9599C3.01396 58.4399 3.64848 58.5599 4.60025 58.5599C5.3934 58.5599 6.18655 58.3199 6.66244 57.9599C7.13832 57.4799 7.45558 56.9999 7.45558 56.2799V52.3199H9.20051ZM9.20051 42.3599V43.9199C3.33122 46.5599 6.18655 45.3599 2.37944 47.0399L9.20051 50.1599V51.5999L0.951777 47.8799C0.793147 47.7599 0.475888 47.6399 0.317259 47.5199C0.158629 47.2799 0 47.0399 0 46.9199C0 46.7999 0.158629 46.5599 0.317259 46.3199C0.475888 46.1999 0.634518 46.0799 0.951777 45.9599L9.20051 42.3599Z" fill="#272E39"/>
<path fill-rule="evenodd" clip-rule="evenodd" d="M202.569 53.1599C200.19 55.9199 196.383 57.8399 192.1 58.6799C196.7 58.6799 200.983 57.2399 203.838 54.8399C205.583 53.3999 207.011 51.5999 207.645 49.6799C207.963 48.7199 208.121 47.6399 208.121 46.5599C208.121 42.1199 205.107 38.2799 200.507 36.1199C204.155 38.9999 205.9 42.9599 205.424 46.9199C205.266 47.6399 205.107 48.3599 204.949 49.1999C204.473 50.5199 203.68 51.9599 202.569 53.1599Z" fill="#FC0017"/>
</g>
<defs>
<clipPath id="clip0_184_105">
<rect width="250" height="60" fill="white"/>
</clipPath>
</defs>
</svg>
