<svg width="106" height="60" viewBox="0 0 106 60" fill="none" xmlns="http://www.w3.org/2000/svg">
<g clip-path="url(#clip0_184_102)">
<path fill-rule="evenodd" clip-rule="evenodd" d="M2.7456 29.5775C4.224 29.5775 5.4912 30.8451 5.4912 32.3239C5.4912 33.8028 4.224 35.0704 2.7456 35.0704C1.2672 35.0704 0 33.8028 0 32.3239C0 30.8451 1.2672 29.5775 2.7456 29.5775ZM6.5472 38.8732C9.2928 38.8732 11.4048 40.9859 11.4048 43.7324C11.4048 46.4789 9.2928 48.5916 6.5472 48.5916C3.8016 48.5916 1.6896 46.4789 1.6896 43.7324C1.6896 40.9859 4.0128 38.8732 6.5472 38.8732ZM17.3184 48.3803C20.064 48.3803 22.176 50.493 22.176 53.2394C22.176 55.9859 20.064 58.0986 17.3184 58.0986C14.5728 58.0986 12.4608 55.9859 12.4608 53.2394C12.4608 50.7042 14.784 48.3803 17.3184 48.3803ZM32.736 52.8169C34.6368 52.8169 36.3264 54.507 36.3264 56.4085C36.3264 58.3099 34.6368 60 32.736 60C30.8352 60 29.1456 58.3099 29.1456 56.4085C29.1456 54.507 30.624 52.8169 32.736 52.8169ZM47.0976 42.4648C49.8432 42.4648 51.9552 44.5775 51.9552 47.3239C51.9552 50.0704 49.8432 52.1831 47.0976 52.1831C44.352 52.1831 42.24 50.0704 42.24 47.3239C42.0288 44.5775 44.352 42.4648 47.0976 42.4648ZM40.5504 1.90141C42.8736 1.90141 44.7744 3.80282 44.7744 6.12676C44.7744 8.4507 42.8736 10.3521 40.5504 10.3521C38.2272 10.3521 36.3264 8.4507 36.3264 6.12676C36.3264 3.59155 38.2272 1.90141 40.5504 1.90141ZM24.7104 0C26.6112 0 28.0896 1.47887 28.0896 3.38028C28.0896 5.28169 26.6112 6.76056 24.7104 6.76056C22.8096 6.76056 21.3312 5.28169 21.3312 3.38028C21.3312 1.47887 22.8096 0 24.7104 0ZM10.9824 7.39437C12.4608 7.39437 13.728 8.66197 13.728 10.1408C13.728 11.6197 12.4608 12.8873 10.9824 12.8873C9.504 12.8873 8.2368 11.6197 8.2368 10.1408C8.2368 8.66197 9.504 7.39437 10.9824 7.39437ZM50.8992 11.1972C53.6448 11.1972 55.968 13.5211 55.968 16.2676C55.968 19.0141 53.6448 21.338 50.8992 21.338C48.1536 21.338 45.8304 19.0141 45.8304 16.2676C45.8304 13.5211 48.1536 11.1972 50.8992 11.1972ZM3.3792 19.4366C4.4352 19.4366 5.4912 20.2817 5.4912 21.5493C5.4912 22.6056 4.6464 23.662 3.3792 23.662C2.3232 23.662 1.2672 22.8169 1.2672 21.5493C1.2672 20.493 2.3232 19.4366 3.3792 19.4366Z" fill="#4FBB83"/>
<path d="M102.433 30.6337C102.222 29.9999 101.799 29.5774 101.377 29.1548C100.743 28.7323 100.11 28.521 99.4759 28.521C98.6311 28.521 97.9975 28.7323 97.3639 29.1548C96.9415 29.3661 96.7303 29.9999 96.3079 30.6337H102.433ZM105.178 32.9577H96.0967C96.3079 33.8027 96.5191 34.4365 97.1527 34.8591C97.7863 35.2816 98.4199 35.4929 99.2647 35.4929C100.321 35.4929 101.166 35.0703 102.01 34.4365L104.334 35.4929C103.7 36.3379 103.066 36.9718 102.222 37.3943C101.377 37.8168 100.321 38.0281 99.2647 38.0281C97.5751 38.0281 96.0967 37.3943 95.0407 36.3379C93.9847 35.2816 93.3511 33.8027 93.3511 32.1126C93.3511 30.4225 93.9847 28.9436 95.0407 27.8872C96.0967 26.8309 97.5751 26.1971 99.2647 26.1971C100.954 26.1971 102.433 26.8309 103.7 27.8872C104.756 28.9436 105.39 30.6337 105.39 32.3239L105.178 32.9577ZM87.8599 22.3943H90.8167V26.6196H92.5063V29.1548H90.8167V38.0281H88.0711V29.1548H86.5927V26.6196H88.0711V22.3943H87.8599ZM78.9896 28.7323C78.1447 28.7323 77.2999 28.9436 76.8776 29.5774C76.2439 30.2112 76.0327 31.0563 76.0327 31.9013C76.0327 32.9577 76.2439 33.5915 76.8776 34.2253C77.5112 34.8591 78.1447 35.0703 78.9896 35.0703C79.8344 35.0703 80.6791 34.8591 81.3127 34.2253C81.9464 33.5915 82.1575 32.7464 82.1575 31.6901C82.1575 30.6337 81.9464 29.9999 81.3127 29.3661C80.4679 29.1548 79.8344 28.7323 78.9896 28.7323ZM81.9463 26.4084H84.6919V37.6056H81.9463V36.3379C81.3127 36.9718 80.8904 37.183 80.2567 37.3943C79.6231 38.0281 78.9895 38.0281 78.3559 38.0281C76.8775 38.0281 75.6103 37.3943 74.5543 36.3379C73.4983 35.2816 72.8647 33.8027 72.8647 32.1126C72.8647 30.4225 73.2871 28.9436 74.3431 27.8872C75.3992 26.8309 76.6663 26.1971 78.1447 26.1971C78.7783 26.1971 79.4119 26.4084 80.0456 26.6196C80.6791 26.8309 81.1015 27.2534 81.7351 27.676V26.4084H81.9463ZM60.4039 26.4084H63.3607L66.3175 33.1689L69.0631 26.4084H71.8087L66.9511 37.6056H65.0503L60.4039 26.4084ZM53.4343 28.9436C52.5895 28.9436 51.7447 29.1549 51.3223 29.7887C50.6887 30.4225 50.4775 31.2675 50.4775 32.1126C50.4775 33.1689 50.6887 33.8027 51.3223 34.4365C51.9559 35.0703 52.5895 35.2816 53.4343 35.2816C54.2791 35.2816 55.1239 35.0703 55.5463 34.4365C56.1799 33.8027 56.3911 32.9577 56.3911 32.1126C56.3911 31.0563 56.1799 30.4225 55.5463 29.7887C54.9127 29.1549 54.2791 28.9436 53.4343 28.9436ZM53.2231 26.1971C54.2791 26.1971 55.3351 26.4084 56.1799 27.0422C57.0247 27.676 57.8695 28.3098 58.2919 29.1548C58.9255 29.9999 59.1367 31.0563 59.1367 32.1126C59.1367 33.1689 58.9255 34.2253 58.2919 35.0703C57.6583 35.9154 57.0247 36.7605 56.1799 37.183C55.3351 37.6056 54.2791 38.0281 53.2231 38.0281C51.5336 38.0281 50.2663 37.3943 48.9991 36.3379C47.9431 35.2816 47.3095 33.8027 47.3095 32.1126C47.3095 30.4225 47.9431 28.9436 49.2103 27.676C50.4775 26.6196 51.7448 26.1971 53.2231 26.1971ZM35.2711 26.4084H38.0167V27.4647C38.6503 26.8309 39.2839 26.6196 39.7063 26.4084C40.1287 26.1971 40.7623 25.9858 41.3959 25.9858C42.4519 25.9858 43.5079 26.4084 44.3527 27.2534C44.9863 27.8872 45.4087 28.9436 45.4087 30.2112V37.6056H42.6631V32.7464C42.6631 31.4788 42.6631 30.4225 42.4519 29.9999C42.2407 29.5774 42.0295 29.1548 41.8183 28.9436C41.6071 28.7323 41.1847 28.521 40.7623 28.521C40.1287 28.521 39.7063 28.7323 39.2839 29.1548C38.8615 29.5774 38.6503 29.9999 38.4391 30.845C38.4391 31.2675 38.2279 31.9013 38.2279 33.1689V37.6056H35.4823V26.4084H35.2711ZM22.3879 26.4084H25.3447V27.4647C25.9783 26.8309 26.6119 26.6196 27.0343 26.4084C27.4567 26.1971 28.0903 25.9858 28.7239 25.9858C29.7799 25.9858 30.8359 26.4084 31.6807 27.2534C32.3143 27.8872 32.7367 28.9436 32.7367 30.2112V37.6056H29.9911V32.7464C29.9911 31.4788 29.9911 30.4225 29.7799 29.9999C29.5687 29.5774 29.3575 29.1548 29.1463 28.9436C28.9351 28.7323 28.5127 28.521 28.0903 28.521C27.4567 28.521 27.0343 28.7323 26.6119 29.1548C26.1895 29.5774 25.9783 29.9999 25.7671 30.845C25.7671 31.2675 25.5559 31.9013 25.5559 33.1689V37.6056H22.8103V26.4084H22.3879ZM16.6855 22.3943H19.6423V37.6056H16.6855V22.3943Z" fill="#304C5A"/>
</g>
<defs>
<clipPath id="clip0_184_102">
<rect width="105.6" height="60" fill="white"/>
</clipPath>
</defs>
</svg>
