<?xml version="1.0" standalone="no"?>
<!DOCTYPE svg PUBLIC "-//W3C//DTD SVG 1.1//EN" "http://www.w3.org/Graphics/SVG/1.1/DTD/svg11.dtd" >
<svg xmlns="http://www.w3.org/2000/svg">
<metadata>Generated by IcoMoon</metadata>
<defs>
<font id="icomoon" horiz-adv-x="1024">
<font-face units-per-em="1024" ascent="960" descent="-64" />
<missing-glyph horiz-adv-x="1024" />
<glyph unicode="&#x20;" horiz-adv-x="512" d="" />
<glyph unicode="&#xe900;" glyph-name="art-studies" d="M979.968 556.8c-8.222 18.159-15.929 32.855-24.333 47.089l1.25-2.289-108.928-295.893c-4.442-11.643-10.479-21.679-17.972-30.432l0.116 0.139c96.967 9.881 171.991 91.107 171.991 189.856 0 24.671-4.683 48.248-13.208 69.891l0.449-1.294c-2.901 7.808-6.016 15.403-9.365 22.933zM354.773 823.467c-195.917-71.21-333.325-255.79-333.325-472.464 0-67.018 13.146-130.965 36.999-189.404l-1.21 3.351c0.661-1.344 1.109-2.667 1.771-4.011 29.568-69.299 97.125-116.989 175.821-116.989 65.677 0 123.596 33.216 157.874 83.766l0.427 0.668c40.162 59.9 96.452 106.195 162.672 133.157l2.384 0.859c2.133 0.853 4.267 1.493 6.4 2.283 15.563 35.279 45.092 61.977 81.39 73.41l0.935 0.254c-0.025 0.854-0.040 1.858-0.040 2.865 0 15.87 3.562 30.907 9.929 44.357l-0.269-0.631 168.533 364.949c-83.32 63.69-188.956 102.051-303.552 102.051-59.759 0-117.081-10.432-170.245-29.574l3.504 1.102zM224 266.667c-47.128 0-85.333 38.205-85.333 85.333s38.205 85.333 85.333 85.333c47.128 0 85.333-38.205 85.333-85.333v0c0-47.128-38.205-85.333-85.333-85.333v0zM330.667 512c-47.128 0-85.333 38.205-85.333 85.333s38.205 85.333 85.333 85.333c47.128 0 85.333-38.205 85.333-85.333v0c0-47.128-38.205-85.333-85.333-85.333v0zM586.667 586.667c-47.128 0-85.333 38.205-85.333 85.333s38.205 85.333 85.333 85.333c47.128 0 85.333-38.205 85.333-85.333v0c0-47.128-38.205-85.333-85.333-85.333v0zM970.197 871.445c-4.492 1.917-9.718 3.032-15.204 3.032-15.871 0-29.563-9.328-35.894-22.8l-0.102-0.242-223.659-484.373c-3.551-7.5-5.624-16.294-5.624-25.572 0-16.422 6.495-31.327 17.056-42.287l-0.018 0.019c-6.182 1.513-13.278 2.381-20.578 2.381-37.286 0-69.282-22.645-82.986-54.932l-0.223-0.59c-34.539-83.413 20.096-120-14.464-203.413 81.699 9.387 149.349 61.415 180.769 132.959l0.564 1.441c4.282 10.124 6.771 21.896 6.771 34.249 0 28.202-12.971 53.374-33.272 69.877l-0.166 0.13c2.334-0.318 5.032-0.499 7.772-0.499 25.998 0 48.185 16.318 56.878 39.27l0.139 0.418 184.32 500.715c1.519 4.039 2.398 8.707 2.398 13.581 0 16.426-9.986 30.519-24.218 36.54l-0.26 0.098z" />
<glyph unicode="&#xe901;" glyph-name="briefcase" d="M938.666 746.666h-213.332v42.668c0 47.062-38.27 85.334-85.334 85.334h-256c-47.062 0-85.334-38.27-85.334-85.334v-42.666h-213.332c-47.064-0.002-85.334-38.272-85.334-85.334v-128c0-47.064 38.27-85.334 85.334-85.334h341.334v21.334c0 11.792 9.542 21.334 21.334 21.334h128c11.792 0 21.334-9.542 21.334-21.334v-21.334h341.334c47.060 0 85.33 38.27 85.33 85.334v128c0 47.062-38.27 85.332-85.334 85.332zM640 746.666h-256v42.668h256v-42.668zM1012.166 424.98c-7.27 3.604-15.958 2.77-22.376-2.104-15.166-11.48-32.834-17.542-51.126-17.542h-341.33v-64c0-11.792-9.542-21.334-21.334-21.334h-128c-11.792 0-21.334 9.542-21.334 21.334v64h-341.332c-18.292 0-35.958 6.062-51.126 17.542-6.438 4.916-15.104 5.75-22.376 2.104-7.248-3.606-11.832-11-11.832-19.106v-299.208c0-47.062 38.27-85.334 85.334-85.334h853.334c47.062 0 85.334 38.27 85.334 85.334v299.208c-0.002 8.106-4.586 15.5-11.836 19.106z" />
<glyph unicode="&#xe902;" glyph-name="speech-bubble" horiz-adv-x="1117" d="M549.818-31.995c-7.219 0-14.448 1.787-21.001 5.385-13.959 7.666-22.635 22.328-22.635 38.251v87.268c0 24.059-19.577 43.636-43.636 43.636h-69.818c-216.55 0-392.727 176.179-392.727 392.727 0 216.55 176.177 392.727 392.727 392.727h331.636c216.548 0 392.727-176.177 392.727-392.727 0-1.804-0.009-3.6-0.028-5.391-1.029-105.782-33.168-185.059-104.192-257.060-64.991-65.885-159.958-124.458-291.402-205.526-44.265-27.304-94.431-58.247-148.229-92.472-7.126-4.534-15.267-6.819-23.422-6.819zM392.727 840.727c-168.428 0-305.455-137.027-305.455-305.455s137.027-305.455 305.455-305.455h69.818c72.183 0 130.909-58.726 130.909-130.909v-8.234c29.096 18.148 56.632 35.128 82.199 50.897 126.25 77.871 217.47 134.135 275.088 192.535 55.333 56.092 78.238 113.059 79.053 196.62 0.014 1.508 0.023 3.024 0.023 4.545 0 168.428-137.025 305.455-305.455 305.455h-331.636zM724.364 578.909h-331.636c-24.1 0-43.636 19.536-43.636 43.636s19.536 43.636 43.636 43.636h331.636c24.101 0 43.636-19.536 43.636-43.636s-19.535-43.636-43.636-43.636zM724.364 404.364h-331.636c-24.1 0-43.636 19.535-43.636 43.636s19.536 43.636 43.636 43.636h331.636c24.101 0 43.636-19.535 43.636-43.636s-19.535-43.636-43.636-43.636z" />
<glyph unicode="&#xe903;" glyph-name="check" d="M358.086 89.113c-12.865 0-25.729 4.923-35.53 14.724l-307.815 307.824c-19.656 19.647-19.656 51.413 0 71.060 19.647 19.647 51.404 19.647 71.060 0l272.285-272.285 580.118 580.108c19.647 19.647 51.404 19.647 71.060 0 19.647-19.656 19.647-51.413 0-71.069l-615.638-615.638c-9.8-9.8-22.674-14.724-35.539-14.724z" />
<glyph unicode="&#xe904;" glyph-name="clapperboard" d="M228.937 825.783l158.354-158.354h-274.286c11.88 69.531 55.299 126.935 114.72 157.782l1.211 0.572zM441.783 850.286h-112.64c-6.949 0-13.897-0.366-20.846-0.731l182.126-182.126h134.217zM694.857 850.286h-149.211l182.857-182.857h182.491c-17.977 104.418-107.854 182.857-216.050 182.857-0.031 0-0.061 0-0.092 0h0.005zM456.481 242.249l182.857 100.571c11.387 6.338 18.964 18.302 18.964 32.037s-7.577 25.699-18.778 31.941l-0.186 0.095-182.857 100.571c-5.085 2.849-11.158 4.527-17.624 4.527-20.195 0-36.567-16.369-36.571-36.563v0-201.143c0.005-20.194 16.377-36.563 36.571-36.563 6.465 0 12.539 1.678 17.809 4.622l-0.185-0.095zM914.286 594.286v-329.143c-0.1-121.147-98.282-219.329-219.419-219.429h-365.724c-121.147 0.1-219.329 98.282-219.429 219.419v329.153z" />
<glyph unicode="&#xe905;" glyph-name="clock" d="M512 917.333c-259.206 0-469.333-210.128-469.333-469.333s210.128-469.333 469.333-469.333c259.206 0 469.333 210.128 469.333 469.333v0c-0.315 259.079-210.255 469.018-469.303 469.333h-0.030zM670.165 289.835c-7.721-7.718-18.386-12.492-30.165-12.492s-22.445 4.774-30.165 12.492l-128 128c-7.722 7.719-12.499 18.384-12.501 30.165v256.001c0 23.564 19.103 42.667 42.667 42.667s42.667-19.103 42.667-42.667v0-238.336l115.499-115.499c7.718-7.721 12.492-18.386 12.492-30.165s-4.774-22.445-12.492-30.165v0z" />
<glyph unicode="&#xe906;" glyph-name="clock-1" d="M512 917.333c-259.206 0-469.333-210.128-469.333-469.333s210.128-469.333 469.333-469.333c259.206 0 469.333 210.128 469.333 469.333v0c-0.315 259.079-210.255 469.018-469.303 469.333h-0.030zM512 64c-212.077 0-384 171.923-384 384s171.923 384 384 384c212.077 0 384-171.923 384-384v0c-0.267-211.97-172.030-383.733-383.974-384h-0.026zM554.667 465.664v238.336c0 23.564-19.103 42.667-42.667 42.667s-42.667-19.103-42.667-42.667v0-256c0.003-11.781 4.78-22.446 12.501-30.165l128-128c7.665-7.41 18.12-11.977 29.641-11.977 23.564 0 42.667 19.103 42.667 42.667 0 11.521-4.567 21.976-11.989 29.653l0.012-0.012z" />
<glyph unicode="&#xe907;" glyph-name="coding" d="M938.385 932.989v-524.215h-122.050v404.166h-642.263v120.049zM0 752.915v-180.074h756.31v180.074zM120.049 632.866h-60.025v60.025h60.025zM240.098 632.866h-60.025v60.025h60.025zM756.31 508.815h-756.31v-502.206h673.456l-75.231 381.977 158.085-30.272zM182.075 162.673h-68.028l84.034 118.048-84.034 118.048h68.028l84.034-118.048zM450.185 162.673h-120.049v60.025h120.049zM1024 27.237l-64.226-64.226-130.994 131.014-86.996-123.671-67.488 342.561 344.741-66.007-126.052-88.676z" />
<glyph unicode="&#xe908;" glyph-name="coding-1" d="M958.676 220.981h-893.35c-9.402 0-17.024-7.621-17.024-17.022v-12.881c0-44.841 36.351-81.191 81.192-81.191h765.013c44.841 0 81.191 36.35 81.191 81.191v12.881c0 9.401-7.62 17.022-17.022 17.022zM621.483 155.774h-218.962c-5.34 0-9.66 4.321-9.66 9.66s4.321 9.66 9.66 9.66h218.962c5.34 0 9.66-4.321 9.66-9.66s-4.321-9.66-9.66-9.66zM184.351 307.925h655.302v391.245h-655.302zM519.823 356.226h-266.226c-5.34 0-9.66 4.321-9.66 9.66s4.321 9.66 9.66 9.66h266.226c5.34 0 9.66-4.321 9.66-9.66s-4.321-9.66-9.66-9.66zM243.936 431.906c0 5.34 4.321 9.66 9.66 9.66h97.962c5.34 0 9.66-4.321 9.66-9.66s-4.321-9.66-9.66-9.66h-97.962c-5.34 0-9.66 4.321-9.66 9.66zM656.672 441.566h101.434c5.34 0 9.66-4.321 9.66-9.66s-4.321-9.66-9.66-9.66h-101.434c-5.34 0-9.66 4.321-9.66 9.66s4.321 9.66 9.66 9.66zM622.861 431.906c0-5.34-4.321-9.66-9.66-9.66h-202.057c-5.34 0-9.66 4.321-9.66 9.66s4.321 9.66 9.66 9.66h202.057c5.34 0 9.66-4.321 9.66-9.66zM369.087 598.943l42.038-33.453c2.302-1.849 3.642-4.623 3.642-7.566s-1.34-5.736-3.642-7.566l-42.038-33.434c-1.792-1.415-3.906-2.094-6.019-2.094-2.83 0-5.66 1.245-7.566 3.642-3.321 4.189-2.623 10.264 1.547 13.585l32.547 25.868-32.547 25.887c-4.17 3.321-4.868 9.415-1.547 13.585 3.34 4.17 9.453 4.849 13.585 1.547zM350.087 668.189c5.057-1.698 7.774-7.189 6.057-12.245l-53-156.887c-1.358-4.019-5.114-6.566-9.151-6.566-1.019 0-2.075 0.17-3.094 0.509-5.057 1.698-7.774 7.189-6.057 12.245l53 156.887c1.698 5.019 7.226 7.736 12.245 6.057zM229.861 610.83l42.057 33.434c4.208 3.302 10.264 2.623 13.585-1.547 3.321-4.189 2.623-10.264-1.547-13.585l-32.547-25.868 32.547-25.887c4.17-3.321 4.868-9.396 1.547-13.585-1.906-2.396-4.736-3.642-7.566-3.642-2.113 0-4.245 0.679-6.019 2.094l-42.057 33.453c-2.302 1.83-3.642 4.623-3.642 7.566s1.34 5.736 3.642 7.566zM926.596 718.775c0 37.19-30.149 67.338-67.34 67.338h-694.511c-37.191 0-67.34-30.149-67.34-67.338v-478.473h829.19zM858.974 298.264c0-5.34-4.321-9.66-9.66-9.66h-674.623c-5.34 0-9.66 4.321-9.66 9.66v410.566c0 5.34 4.321 9.66 9.66 9.66h674.623c5.34 0 9.66-4.321 9.66-9.66z" />
<glyph unicode="&#xe909;" glyph-name="community" d="M147.609 247.25c-2.822 4.803-7.963 7.976-13.845 7.976-8.839 0-16.005-7.166-16.005-16.005 0-2.721 0.679-5.283 1.877-7.527l-0.042 0.086c166.56-307.192 618.311-307.121 784.811 0.007 1.245 2.224 1.979 4.88 1.979 7.707 0 8.837-7.163 16-16 16-5.99 0-11.211-3.291-13.953-8.164l-0.042-0.080c-72.263-129.28-208.287-215.25-364.391-215.25s-292.127 85.97-363.309 213.147l-1.081 2.103zM827.516 718.727c2.944-3.295 7.205-5.359 11.949-5.359 8.837 0 16.001 7.164 16.001 16.001 0 3.861-1.368 7.403-3.645 10.168l0.022-0.027c-171.185 207.239-508.519 207.224-679.686-0.006-2.264-2.739-3.637-6.287-3.637-10.156 0-8.836 7.163-15.999 15.999-15.999 4.753 0 9.022 2.073 11.952 5.364l0.014 0.016c158.939 192.386 472.113 192.366 631.031-0.001zM302.781 730.922c-3.796-2.955-6.215-7.525-6.215-12.66 0-8.837 7.164-16.002 16.002-16.002 3.486 0 6.712 1.115 9.34 3.007l-0.047-0.033c52.478 39.052 118.568 62.519 190.139 62.519s137.663-23.468 190.997-63.129l-0.855 0.608c2.577-1.852 5.796-2.961 9.274-2.961 8.838 0 16.003 7.165 16.003 16.003 0 5.128-2.412 9.693-6.164 12.621l-0.035 0.027c-57.741 42.98-130.463 68.808-209.218 68.808s-151.477-25.829-210.159-69.477l0.94 0.668zM512 96c0.213 0 0.465-0.001 0.716-0.001 111.254 0 210.382 51.919 274.477 132.85l0.557 0.729c2.036 2.657 3.263 6.029 3.263 9.687 0 8.841-7.167 16.009-16.009 16.009-4.959 0-9.391-2.255-12.327-5.795l-0.021-0.026c-122.726-160.913-378.602-160.895-501.312 0.005-2.958 3.562-7.387 5.813-12.342 5.813-8.842 0-16.010-7.168-16.010-16.010 0-3.656 1.225-7.026 3.288-9.721l-0.028 0.038c64.651-81.659 163.778-133.578 275.032-133.578 0.252 0 0.504 0 0.755 0.001h-0.039zM72.445 406.906c-5.114-9.526-8.119-20.843-8.119-32.861 0-38.681 31.123-70.093 69.693-70.559l178.085-0.001c-0.001-0.138-0.001-0.301-0.001-0.465 0-44.25 35.757-80.148 79.953-80.378l239.865-0.001c44.176 0.028 79.977 35.846 79.977 80.025 0 0.288-0.002 0.575-0.005 0.862v-0.044h178.043c38.614 0.468 69.736 31.879 69.736 70.56 0 12.019-3.005 23.337-8.305 33.242l0.185-0.379c-22.052 40.289-57.518 70.914-100.271 86.228l-1.289 0.403c23.85 18.494 39.060 47.144 39.086 79.348v0.004c-4.77 132.952-196.175 132.956-200.922-0.002 0.027-32.214 15.242-60.868 38.871-79.191l0.228-0.17c-39.928-14.335-72.579-40.81-94.323-74.915l-0.444-0.745c-15.447 10.516-33.225 19.367-52.169 25.661l-1.523 0.438c29.888 21.221 49.163 55.692 49.194 94.667v0.005c-5.419 153.465-226.548 153.526-231.984-0.002 0.031-38.979 19.306-73.45 48.836-94.429l0.358-0.241c-20.476-6.735-38.26-15.592-54.468-26.597l0.753 0.483c-22.225 34.814-54.858 61.277-93.47 75.256l-1.288 0.408c23.866 18.494 39.088 47.154 39.114 79.37v0.004c-4.607 132.823-196.223 133.025-200.922-0.002 0.027-32.208 15.237-60.857 38.858-79.181l0.228-0.17c-44.043-15.718-79.509-46.343-101.080-85.672l-0.483-0.96zM720.156 572.89c0.37 37.529 30.879 67.81 68.461 67.81s68.092-30.281 68.461-67.776v-0.035c-0.37-37.529-30.879-67.81-68.461-67.81s-68.092 30.281-68.461 67.776v0.035zM788.504 472.435c0.034 0 0.075 0 0.115 0 57.994 0 108.445-32.296 134.349-79.883l0.4-0.802c2.793-5.189 4.434-11.355 4.434-17.904 0-21.013-16.893-38.080-37.839-38.36h-185.18c-12.041 24.443-27.817 45.196-46.84 62.432l-0.174 0.155c27.134 44.704 75.472 74.163 130.706 74.363h0.029zM428.008 538.64c3.53 111 164.471 110.974 167.984-0.002-3.528-111.008-164.473-110.983-167.984 0.002zM674.148 325.672c3.533-6.555 5.609-14.345 5.609-22.62 0-26.535-21.348-48.085-47.806-48.41l-239.874-0.001c-26.536 0.057-48.026 21.583-48.026 48.127 0 8.393 2.148 16.284 5.925 23.154l-0.126-0.249c67.056 128.363 257.258 128.352 324.297 0.001zM166.922 572.891c0.365 37.533 30.876 67.818 68.461 67.818s68.096-30.286 68.461-67.785v-0.035c-0.365-37.533-30.876-67.818-68.461-67.818s-68.096 30.286-68.461 67.785v0.035zM235.233 472.437c55.349-0.159 103.78-29.63 130.603-73.7l0.383-0.678c-19.19-17.389-34.963-38.138-46.465-61.376l-0.537-1.199h-185.155c-20.972 0.282-37.864 17.349-37.864 38.361 0 6.55 1.641 12.716 4.535 18.11l-0.101-0.205c26.281 48.347 76.664 80.627 134.591 80.687h0.008z" />
<glyph unicode="&#xe90a;" glyph-name="copy-writing" d="M239.821 17.306c8.046-25.83 31.71-44.268 59.691-44.339h0.008c0.013 0 0.028 0 0.044 0 6.371 0 12.523 0.935 18.327 2.676l-0.451-0.116 405.709 122.163 73.011 9.523c30.784 4.088 54.288 30.172 54.288 61.747 0 2.852-0.192 5.66-0.563 8.411l0.035-0.321-38.502 293.888 121.242 185.958 29.901 45.158 14.336 22.426c7.081 10.695 11.297 23.825 11.297 37.939 0 38.305-31.052 69.357-69.357 69.357-24.191 0-45.489-12.385-57.9-31.159l-0.161-0.259-14.746-22.63-62.566-95.642-24.678 187.904c-4.134 30.736-30.195 54.187-61.734 54.187-2.857 0-5.669-0.192-8.424-0.565l0.321 0.036-430.899-56.627c-30.681-4.075-54.107-30.074-54.107-61.543 0-1.477 0.052-2.942 0.153-4.393l-0.011 0.195-123.904-37.274c-25.847-7.963-44.306-31.633-44.306-59.615 0-6.384 0.961-12.545 2.746-18.343l-0.117 0.441zM863.334 748.134l32.358-21.094 32.256-21.094-12.698-19.456-64.614 42.189zM886.477 783.667c7.007 10.607 18.877 17.509 32.358 17.509 21.349 0 38.655-17.306 38.655-38.655 0-7.867-2.35-15.184-6.386-21.29l0.090 0.144-6.349-9.728-64.205 42.291zM833.843 702.976l32.358-21.094 32.256-21.094-197.12-301.875-32.358 21.094-32.256 21.094zM598.323 290.202l6.144 19.661c10.601-2.802 19.529-8.805 25.932-16.897l0.077-0.101-15.565-13.517c-1.812-1.651-4.231-2.662-6.887-2.662-5.655 0-10.24 4.585-10.24 10.24 0 1.173 0.197 2.299 0.56 3.348l-0.022-0.072zM653.619 313.037c-10.156 12.457-23.872 21.66-39.589 26.082l-0.552 0.133 10.24 33.485 56.218-36.762zM241.050 824.525c5.022 6.484 12.4 10.934 20.83 12.065l0.162 0.018 430.899 56.525c0.628 0.048 1.36 0.076 2.099 0.076s1.471-0.028 2.196-0.082l-0.097 0.006c15.726-0.33 28.609-12.082 30.701-27.278l0.019-0.165 29.901-223.13-78.438-119.91-154.214-20.48c-8.071-0.527-14.418-7.202-14.418-15.36 0-8.5 6.891-15.391 15.391-15.391 0.342 0 0.682 0.011 1.019 0.033l-0.046-0.002h2.048l128.102 17.51-54.579-83.661c-0.009-0.153-0.014-0.332-0.014-0.512s0.005-0.359 0.015-0.537l-0.001 0.025c-0.366-0.589-0.679-1.267-0.904-1.984l-0.017-0.064s0 0 0 0l-9.523-30.72-218.317-29.389c-8.050-0.553-14.37-7.218-14.37-15.36 0-8.502 6.892-15.394 15.394-15.394 0.36 0 0.718 0.012 1.072 0.037l-0.048-0.003h1.946l203.469 26.624-12.083-39.117c-1.163-3.624-1.834-7.793-1.834-12.118 0-14.274 7.301-26.842 18.373-34.175l0.152-0.095c6.315-4.215 14.073-6.735 22.419-6.758h0.006c10.314 0.069 19.711 3.939 26.872 10.278l-0.043-0.038 80.691 69.837 0.819 0.922c0.616 0.571 1.157 1.209 1.614 1.907l0.024 0.039 66.765 102.4 34.099-258.048c0.177-1.253 0.278-2.701 0.278-4.173 0-7.251-2.455-13.928-6.578-19.246l0.053 0.072c-4.86-6.412-12.067-10.827-20.32-11.963l-0.16-0.018-431.309-56.627c-1.216-0.166-2.621-0.261-4.049-0.261-15.994 0-29.208 11.906-31.262 27.338l-0.018 0.161-91.034 692.838c-0.171 1.236-0.269 2.664-0.269 4.116 0 7.268 2.45 13.963 6.57 19.305l-0.055-0.074zM89.088 734.72l118.784 35.738 87.45-666.112c4.171-30.608 30.047-53.972 61.419-54.169h0.021c2.892 0.001 5.731 0.224 8.501 0.654l-0.309-0.039 168.755 22.118-225.28-67.789c-2.703-0.841-5.811-1.325-9.032-1.325-14.109 0-26.047 9.294-30.025 22.095l-0.060 0.223-201.421 669.184c-0.852 2.729-1.343 5.867-1.343 9.12 0 14.229 9.392 26.264 22.315 30.245l0.224 0.059zM398.746 751.104c-0.081 0.594-0.128 1.28-0.128 1.977 0 7.77 5.769 14.192 13.258 15.217l0.080 0.009 245.76 32.358c0.6 0.082 1.293 0.129 1.997 0.129 8.554 0 15.489-6.935 15.489-15.489 0-7.85-5.84-14.337-13.413-15.351l-0.079-0.009-245.76-32.256h-1.946c-7.789 0.036-14.215 5.825-15.249 13.334l-0.009 0.081zM324.403 600.986c-0.078 0.583-0.123 1.256-0.123 1.94 0 7.877 5.929 14.369 13.568 15.257l0.072 0.007 337.92 44.851c0.6 0.082 1.293 0.129 1.997 0.129 8.554 0 15.489-6.935 15.489-15.489 0-7.85-5.84-14.337-13.413-15.351l-0.079-0.009-340.173-44.646c-7.758 0.028-14.168 5.766-15.248 13.229l-0.010 0.083zM439.194 475.648c0.099-0.654 0.155-1.41 0.155-2.178 0-7.78-5.784-14.208-13.286-15.221l-0.079-0.009-66.253-8.704h-1.946c-0.306-0.022-0.664-0.034-1.024-0.034-8.502 0-15.394 6.892-15.394 15.394 0 8.142 6.32 14.807 14.322 15.357l0.048 0.003 66.253 8.704c0.59 0.080 1.272 0.126 1.964 0.126 7.806 0 14.251-5.822 15.231-13.361l0.008-0.077zM378.88 186.88c-0.081 0.594-0.128 1.28-0.128 1.977 0 7.77 5.769 14.192 13.258 15.217l0.080 0.009 117.862 15.462c0.615 0.087 1.326 0.136 2.048 0.136 8.558 0 15.496-6.938 15.496-15.496 0-7.836-5.816-14.314-13.367-15.351l-0.081-0.009-118.067-15.155h-1.946c-7.702 0.028-14.066 5.72-15.145 13.127l-0.010 0.083z" />
<glyph unicode="&#xe90b;" glyph-name="down-chevron" d="M512 960c-282.77 0-512-229.23-512-512s229.23-512 512-512 512 229.23 512 512-229.23 512-512 512zM512 223.737l-288.271 287.332 47.662 47.82 240.608-239.825 240.608 239.825 47.662-47.82-288.271-287.332z" />
<glyph unicode="&#xe90c;" glyph-name="email" d="M597.578 332.614c-25.476-16.984-55.068-25.962-85.578-25.962-30.508 0-60.1 8.978-85.576 25.962l-419.606 279.746c-2.328 1.552-4.596 3.17-6.818 4.834v-458.394c0-52.556 42.65-94.266 94.266-94.266h835.466c52.556 0 94.266 42.65 94.266 94.266v458.396c-2.226-1.668-4.498-3.29-6.832-4.844zM40.1 662.284l419.606-279.748c15.884-10.59 34.088-15.884 52.292-15.884 18.206 0 36.412 5.296 52.296 15.884l419.606 279.748c25.11 16.73 40.1 44.73 40.1 74.95 0 51.962-42.274 94.234-94.234 94.234h-835.532c-51.96-0.002-94.234-42.274-94.234-94.284 0-30.17 14.992-58.17 40.1-74.9z" />
<glyph unicode="&#xe90d;" glyph-name="facebook" d="M413.696 394.752c-3.072 0-70.656 0-101.376 0-16.384 0-21.504 6.144-21.504 21.504 0 40.96 0 82.944 0 123.904 0 16.384 6.144 21.504 21.504 21.504h101.376c0 3.072 0 62.464 0 90.112 0 40.96 7.168 79.872 27.648 115.712 21.504 36.864 52.224 61.44 91.136 75.776 25.6 9.216 51.2 13.312 78.848 13.312h100.352c14.336 0 20.48-6.144 20.48-20.48v-116.736c0-14.336-6.144-20.48-20.48-20.48-27.648 0-55.296 0-82.944-1.024-27.648 0-41.984-13.312-41.984-41.984-1.024-30.72 0-60.416 0-92.16h118.784c16.384 0 22.528-6.144 22.528-22.528v-123.904c0-16.384-5.12-21.504-22.528-21.504-36.864 0-115.712 0-118.784 0v-333.824c0-17.408-5.12-23.552-23.552-23.552-43.008 0-84.992 0-128 0-15.36 0-21.504 6.144-21.504 21.504 0 107.52 0 331.776 0 334.848z" />
<glyph unicode="&#xe90e;" glyph-name="files" d="M918.72 758.72l-192 192c-6.038 5.99-14.214 9.328-22.72 9.28h-512c-53.020 0-96-42.98-96-96v-832c0-53.020 42.98-96 96-96h640c53.020 0 96 42.98 96 96v704c0.050 8.506-3.29 16.68-9.28 22.72zM864 32c0-17.674-14.326-32-32-32h-640c-17.674 0-32 14.326-32 32v832c0 17.674 14.326 32 32 32h480v-128c0-35.346 28.654-64 64-64h128v-672zM736 192h64v-64h-64v64zM224 512h576v-64h-576v64zM224 352h576v-64h-576v64zM224 192h448v-64h-448v64z" />
<glyph unicode="&#xe90f;" glyph-name="healthcare" d="M841.884 748c0 115.782-94.218 212-210 212-45.118 0-87.276-19.306-120-54.052-32.726 34.746-74.884 54.052-120 54.052-115.782 0-210-96.218-210-212 0-116.456 85.458-176.572 184.424-246.21 40.81-28.71 83.028-58.418 125.918-95.626l19.628-17.050 19.658 17.022c48.486 41.954 94.6 74.794 135.264 103.77 97.822 69.636 175.108 124.656 175.108 238.094zM601.884 658h-60v-60h-60v60h-60v60h60v60h60v-60h60zM987.884 685.602c-61.202 0-77-284.4-78.202-290.402-6.094-41.672-35.45-103.36-85.026-140.504l-129.942-94.346-35.976 48.046 129.942 94.318c51.474 38.592 74.934 104.488 10.602 104.488-57.616 0-165.314-66.706-197.242-93.168-38.126-31.6-60.158-78.552-60.158-128.072v-249.962h180c0 28.802 15.6 60.202 39.598 90.202 25.202 33 61.202 66.6 98.4 100.8 70.8 66.6 144.2 135 153.802 204.598 5.7 46.752 10.434 126.936 10.198 198.4-0.26 80.030-7.040 153.016-35.996 155.602zM414.684 319.6c-84.602 58.202-148.798 87.602-190.198 87.602-64.332 0-40.872-65.896 10.602-104.488l129.942-94.318-35.976-48.046-129.942 94.346c-49.58 37.144-78.936 98.832-85.030 140.504-1.202 6.002-17 290.402-78.202 290.402-33.6-3-37.2-100.8-35.398-194.4 1.202-68.4 6.6-135 9.598-159.602 9.602-69.598 83.002-138 153.802-204.598 37.2-34.2 73.198-67.8 98.4-100.8 23.998-30 39.598-61.4 39.598-90.202h180v248.764c0.004 53.002-24.878 102.928-67.196 134.836z" />
<glyph unicode="&#xe910;" glyph-name="home" d="M996.391 514.609c-0.023 0.023-0.047 0.047-0.070 0.070l-417.711 417.695c-17.805 17.813-41.477 27.625-66.656 27.625s-48.852-9.805-66.664-27.617l-417.492-417.484c-0.141-0.141-0.281-0.289-0.422-0.43-36.563-36.773-36.5-96.438 0.18-133.117 16.758-16.766 38.891-26.477 62.555-27.492 0.961-0.094 1.93-0.141 2.906-0.141h16.648v-307.398c0-60.828 49.492-110.32 110.336-110.32h163.422c16.563 0 30 13.43 30 30v241c0 27.758 22.578 50.336 50.336 50.336h96.391c27.758 0 50.336-22.578 50.336-50.336v-241c0-16.57 13.43-30 30-30h163.422c60.844 0 110.336 49.492 110.336 110.32v307.398h15.438c25.172 0 48.844 9.805 66.664 27.617 36.719 36.742 36.734 96.508 0.047 133.273z" />
<glyph unicode="&#xe911;" glyph-name="linkedin" d="M136.484 959.28c-75.201 0-136.429-61.216-136.484-136.476 0-75.26 61.228-136.488 136.484-136.488 75.229 0 136.425 61.228 136.425 136.488 0 75.253-61.2 136.476-136.425 136.476zM238.917 631.479h-204.882c-9.746 0-17.651-7.901-17.651-17.655v-659.453c0-9.75 7.905-17.651 17.651-17.651h204.878c9.75 0 17.655 7.905 17.655 17.651v659.453c0.004 9.758-7.901 17.655-17.651 17.655zM762.689 639.242c-74.977 0-140.866-22.831-181.072-60.060v34.641c0 9.754-7.905 17.655-17.655 17.655h-196.532c-9.75 0-17.655-7.901-17.655-17.655v-659.453c0-9.75 7.905-17.651 17.655-17.651h204.685c9.75 0 17.655 7.905 17.655 17.651v326.264c0 93.611 17.218 151.634 103.149 151.634 84.66-0.102 90.996-62.321 90.996-157.227v-320.671c0-9.75 7.905-17.651 17.659-17.651h204.78c9.746 0 17.651 7.905 17.651 17.651v361.739c-0.004 150.446-29.705 323.133-261.315 323.133z" />
<glyph unicode="&#xe912;" glyph-name="list" d="M972.922 76.171h-684.745c-28.222 0-51.095 22.874-51.095 51.095s22.874 51.095 51.095 51.095h684.728c28.222 0 51.095-22.874 51.095-51.095s-22.857-51.095-51.078-51.095zM972.922 396.896h-684.745c-28.222 0-51.095 22.874-51.095 51.095s22.874 51.095 51.095 51.095h684.728c28.222 0 51.095-22.874 51.095-51.095 0.017-28.222-22.857-51.095-51.078-51.095zM972.922 717.621h-684.745c-28.222 0-51.095 22.874-51.095 51.095s22.874 51.095 51.095 51.095h684.728c28.222 0 51.095-22.874 51.095-51.095s-22.857-51.095-51.078-51.095zM137.242 764.765c0-37.898-30.723-68.621-68.621-68.621s-68.621 30.723-68.621 68.621c0 37.898 30.723 68.621 68.621 68.621s68.621-30.723 68.621-68.621zM137.242 447.991c0-37.898-30.723-68.621-68.621-68.621s-68.621 30.723-68.621 68.621c0 37.898 30.723 68.621 68.621 68.621s68.621-30.723 68.621-68.621zM137.242 131.218c0-37.898-30.723-68.621-68.621-68.621s-68.621 30.723-68.621 68.621c0 37.898 30.723 68.621 68.621 68.621s68.621-30.723 68.621-68.621z" />
<glyph unicode="&#xe913;" glyph-name="live-streaming" d="M557.687 678.883c-25.398-25.344-66.562-25.344-91.961 0-25.391 25.344-25.391 66.437 0 91.781 25.398 25.344 66.562 25.344 91.961 0 25.391-25.344 25.391-66.437 0-91.781zM646.515 580.548c-7.922 0-15.844 3.023-21.875 9.078-12.062 12.078-12.039 31.648 0.039 43.703 24.477 24.43 37.953 56.906 37.953 91.445s-13.477 67.015-37.953 91.445c-12.078 12.062-12.102 31.625-0.039 43.711 12.055 12.078 31.625 12.102 43.703 0.039 36.18-36.109 56.101-84.117 56.101-135.195 0-51.070-19.922-99.086-56.101-135.195-6.031-6.023-13.93-9.031-21.828-9.031zM716.421 489.556c-7.922 0-15.844 3.023-21.875 9.070-12.062 12.086-12.039 31.648 0.039 43.711 48.828 48.734 75.726 113.523 75.726 182.437s-26.898 133.703-75.726 182.437c-12.078 12.062-12.102 31.625-0.039 43.711 12.062 12.078 31.625 12.102 43.703 0.039 60.531-60.414 93.875-140.742 93.867-226.187 0-85.445-33.336-165.781-93.867-226.195-6.031-6.016-13.93-9.023-21.828-9.023zM376.742 580.548c-7.898 0-15.797 3.008-21.836 9.031-36.18 36.109-56.101 84.125-56.101 135.195 0 51.078 19.922 99.086 56.101 135.195 12.078 12.062 31.648 12.047 43.703-0.039 12.062-12.078 12.039-31.648-0.039-43.711-24.477-24.43-37.953-56.906-37.953-91.445s13.477-67.015 37.953-91.445c12.078-12.055 12.102-31.625 0.039-43.703-6.031-6.047-13.953-9.078-21.867-9.078zM306.836 489.556c-7.906 0-15.805 3.008-21.836 9.031-60.531 60.414-93.867 140.742-93.867 226.187 0 85.453 33.336 165.781 93.867 226.195 12.078 12.055 31.648 12.039 43.703-0.047 12.062-12.078 12.039-31.641-0.039-43.703-48.828-48.734-75.726-113.523-75.726-182.437s26.898-133.711 75.726-182.445c12.078-12.062 12.102-31.625 0.039-43.711-6.031-6.047-13.953-9.070-21.867-9.070zM918.96 436.126h-814.662c-39.93 0-72.297-32.367-72.297-72.289v-355.538c0-39.93 32.367-72.297 72.297-72.297h814.654c39.93 0 72.297 32.367 72.297 72.297v355.538c0 39.922-32.367 72.289-72.289 72.289zM269.743 28.76h-113.867c-17.062 0-30.898 13.836-30.898 30.906v252.796c0 17.062 13.836 30.906 30.898 30.906 17.070 0 30.906-13.836 30.906-30.906v-221.89h82.961c17.070 0 30.906-13.836 30.906-30.906s-13.836-30.906-30.906-30.906zM396.399 59.666c0-17.070-13.836-30.906-30.906-30.906s-30.906 13.836-30.906 30.906v252.796c0 17.062 13.836 30.906 30.906 30.906s30.906-13.836 30.906-30.906zM656.429 303.525l-76.32-252.789c-0.008-0.023-0.016-0.047-0.023-0.070-8.289-28.289-50.547-27.594-59.125 0-0.008 0.023-0.016 0.047-0.023 0.070l-76.32 252.789c-4.93 16.344 4.312 33.586 20.656 38.523 16.328 4.93 33.586-4.312 38.516-20.656l46.734-154.789 46.734 154.789c4.937 16.344 22.18 25.594 38.523 20.656 16.336-4.937 25.586-22.18 20.648-38.523zM846.562 232.884c17.070 0 30.906-13.836 30.906-30.906 0-17.062-13.836-30.906-30.906-30.906h-87.703v-80.5h104.351c17.070 0 30.906-13.836 30.906-30.906s-13.836-30.906-30.906-30.906h-135.258c-17.070 0-30.906 13.836-30.906 30.906v252.796c0 17.062 13.836 30.906 30.906 30.906h139.422c17.062 0 30.906-13.836 30.906-30.906s-13.844-30.906-30.906-30.906h-108.523v-48.672z" />
<glyph unicode="&#xe914;" glyph-name="location" d="M512 960c-204.49 0-370.854-166.364-370.854-370.852 0-253.776 331.878-626.334 346.008-642.070 13.272-14.782 36.444-14.756 49.692 0 14.13 15.736 346.008 388.294 346.008 642.070-0.004 204.488-166.366 370.852-370.854 370.852zM512 402.562c-102.884 0-186.584 83.702-186.584 186.586s83.702 186.584 186.584 186.584 186.582-83.702 186.582-186.586-83.7-186.584-186.582-186.584z" />
<glyph unicode="&#xe915;" glyph-name="megaphone" d="M266.126 282.884l84.25-145.926c11.864-20.55 4.758-47.070-15.792-58.934s-47.070-4.76-58.936 15.792l-95.214 164.916c28.572 7.99 57.048 16.414 85.69 24.154zM862.634 435.152c-4.768 2.74-6.412 8.826-3.672 13.594s8.826 6.412 13.594 3.672l91.736-52.964c4.768-2.74 6.412-8.826 3.672-13.594s-8.826-6.412-13.594-3.672zM813.608 672.524c-2.74-4.768-8.826-6.412-13.594-3.672s-6.412 8.826-3.672 13.594l52.964 91.736c2.74 4.768 8.826 6.412 13.594 3.672s6.412-8.826 3.672-13.594zM887.264 563.956c-5.328-1.424-10.804 1.742-12.226 7.070s1.742 10.804 7.070 12.226l102.318 27.416c5.328 1.424 10.804-1.742 12.226-7.070 1.424-5.328-1.742-10.804-7.070-12.226zM601.21 822.42c-20.368-5.458-32.568-26.586-27.11-46.954l142.54-531.97c5.458-20.368 26.586-32.566 46.954-27.11 20.368 5.458 32.566 26.588 27.11 46.954l-142.54 531.972c-5.456 20.366-26.586 32.566-46.954 27.11zM312.094 315.020l-52.58 196.228c-52.74-16.342-106.816-28.168-160.16-42.46-52.258-14.002-83.558-68.214-68.61-123.996s69.158-87.080 121.416-73.078c53.346 14.294 106.086 31.092 159.934 43.308zM278.548 517.392c145.972 49.108 241.244 131.222 288.802 205.996l117.406-438.166c-78.574 40.976-202.14 64.452-353.108 33.996l-53.1 198.176zM722.562 594.934l51.214-0.454c4.558-0.040 8.39-3.008 9.57-7.412l20.31-75.796c1.18-4.402-0.654-8.888-4.582-11.204l-44.126-25.998z" />
<glyph unicode="&#xe916;" glyph-name="multiple-users-silhouette" d="M617.94 730.971c47.347-29.686 80.548-79.921 86.592-138.233 19.309-9.022 40.74-14.211 63.462-14.211 82.95 0 150.182 67.232 150.182 150.169 0 82.95-67.232 150.182-150.182 150.182-82.158-0.026-148.801-66.056-150.054-147.907zM519.553 423.477c82.95 0 150.182 67.244 150.182 150.182s-67.244 150.169-150.182 150.169c-82.937 0-150.207-67.244-150.207-150.182s67.27-150.169 150.207-150.169zM583.257 413.24h-127.435c-106.029 0-192.289-86.273-192.289-192.302v-155.843l0.396-2.441 10.735-3.361c101.186-31.616 189.094-42.159 261.45-42.159 141.326 0 223.24 40.293 228.288 42.862l10.032 5.073h1.073v155.868c0.038 106.029-86.221 192.302-192.251 192.302zM831.724 568.278h-126.451c-1.367-50.593-22.964-96.151-57.123-128.917 94.247-28.025 163.204-115.422 163.204-218.653v-48.024c124.853 4.575 196.8 39.961 201.541 42.338l10.032 5.086h1.073v155.894c0 106.017-86.26 192.276-192.276 192.276zM256.032 578.502c29.379 0 56.714 8.575 79.87 23.182 7.361 48.012 33.098 89.966 69.864 118.54 0.153 2.811 0.422 5.597 0.422 8.434 0 82.95-67.244 150.182-150.156 150.182-82.963 0-150.182-67.232-150.182-150.182 0-82.912 67.219-150.156 150.182-150.156zM390.904 439.361c-33.993 32.6-55.513 77.915-57.085 128.201-4.69 0.345-9.329 0.716-14.108 0.716h-127.422c-106.029 0-192.289-86.26-192.289-192.276v-155.868l0.396-2.402 10.735-3.386c81.174-25.341 153.619-37.021 216.544-40.702v47.066c0.026 103.231 68.957 190.602 163.229 218.653z" />
<glyph unicode="&#xe917;" glyph-name="open-book" d="M156.641 839.157c-0.028 0-0.059 0-0.086 0-9.685 0-18.794-3.775-25.672-10.637-6.954-6.937-10.785-16.174-10.785-26.007v-549.462c0-20.149 16.456-36.581 36.688-36.633 85.292-0.203 228.191-17.98 326.771-121.143v575.028c0 6.83-1.745 13.247-5.037 18.556-80.91 130.3-236.393 150.098-321.878 150.298zM903.905 253.051v549.466c0 9.833-3.831 19.070-10.785 26.007-6.878 6.861-15.994 10.637-25.669 10.637-0.031 0-0.062 0-0.090 0-85.482-0.203-240.965-20.001-321.878-150.301-3.293-5.31-5.034-11.726-5.034-18.556v-575.024c98.58 103.162 241.479 120.939 326.771 121.143 20.228 0.052 36.685 16.484 36.685 36.63zM987.363 712.443h-26.569v-459.391c0-51.445-41.915-93.395-93.439-93.522-72.346-0.172-191.633-14.319-276.115-94.277 146.112 35.775 300.14 12.519 387.921-7.485 10.961-2.496 22.287 0.083 31.068 7.082 8.751 6.982 13.771 17.418 13.771 28.62v582.337c0.003 20.201-16.436 36.637-36.637 36.637zM63.205 253.051v459.391h-26.569c-20.197 0-36.637-16.436-36.637-36.637v-582.327c0-11.205 5.020-21.639 13.771-28.62 8.775-6.996 20.090-9.585 31.068-7.082 87.782 20.008 241.813 43.26 387.918 7.485-84.479 79.955-203.766 94.098-276.112 94.27-51.521 0.124-93.439 42.074-93.439 93.519z" />
<glyph unicode="&#xe918;" glyph-name="right-arrow2" d="M796.462 487.956l-455.693 455.685c-10.54 10.548-24.609 16.359-39.611 16.359s-29.071-5.811-39.611-16.359l-33.559-33.55c-21.837-21.862-21.837-57.393 0-79.222l382.657-382.657-383.081-383.081c-10.54-10.548-16.359-24.609-16.359-39.603 0-15.010 5.819-29.071 16.359-39.628l33.559-33.542c10.548-10.548 24.609-16.359 39.611-16.359s29.071 5.811 39.611 16.359l456.118 456.101c10.565 10.581 16.367 24.709 16.334 39.728 0.033 15.077-5.769 29.196-16.334 39.769z" />
<glyph unicode="&#xe919;" glyph-name="right-up" d="M682.833 558.336l-367.232-367.232-60.331 60.331 367.189 367.232h-323.626v85.333h469.333v-469.333h-85.333z" />
<glyph unicode="&#xe91a;" glyph-name="self-confidence" d="M324.783 54.661c0.853 6.175 6.553 10.485 12.715 9.64 6.17-0.853 10.483-6.551 9.63-12.726l-15.338-111.2h364.198l-15.336 111.2c-0.853 6.175 3.459 11.872 9.63 12.726 6.157 0.845 11.864-3.464 12.715-9.64l15.76-114.285h77.955l-33.934 257.219c-7.787 59.007-46.594 110.183-101.284 133.558-23.659 10.111-48.487 17.837-73.864 22.985-1.326-0.674-2.663-1.326-4.004-1.963v-46.596c0-39.529-32.129-71.691-71.621-71.691-39.501 0-71.63 32.16-71.63 71.691v46.596c-1.343 0.637-2.678 1.289-4.004 1.963-25.377-5.148-50.204-12.874-73.864-22.985-54.69-23.375-93.497-74.551-101.284-133.558l-33.934-257.219h81.732zM522.966 336.393c-20.178-1.328-40.717 1.022-60.037 6.984v-37.796c0-27.081 22.012-49.113 49.067-49.113 27.064 0 49.075 22.031 49.075 49.113v37.796c-12.345-3.809-25.213-6.144-38.105-6.984zM232.192 197.514c7.757 58.777 41.179 111.058 89.843 143.176-24.736 12.082-65.258 11.944-99.405-23.6 0 0-31.457 68.882-102.411 21.725l46.406 110.76 10.494-4.779c18.172-8.275 39.603-0.214 47.83 17.992l8.536 18.885c11.949 26.438-2.293 57.335-30.142 65.394l-32.943 9.535c-41.417 11.988-85.298-8.623-102.523-48.154l-57.186-131.24c-21.718-49.846-9.77-108.382 30.619-144.756 54.2-48.813 126.799-64.777 186.464-68.437zM1013.309 377.208l-57.186 131.247c-17.224 39.531-61.105 60.142-102.523 48.154l-32.943-9.535c-27.849-8.061-42.091-38.958-30.142-65.394l8.536-18.885c8.227-18.207 29.659-26.267 47.83-17.992l10.494 4.779 46.406-110.76c-70.954 47.157-102.411-21.725-102.411-21.725-34.146 35.545-74.669 35.682-99.405 23.6 48.664-32.12 82.088-84.401 89.845-143.176l4.42-33.499c59.663 3.661 132.264 19.624 186.464 68.437 40.385 36.367 52.333 94.904 30.615 144.749zM405.655 710.105c-12.067-10.496-32.926-36.389-44.656-67.070-10.299-26.935-12.94-56.795-7.883-88.904 1.923 0.212 3.851 0.326 5.774 0.341l39.562 59.075c5.17 7.717 15.651 5.304 20.042-1.659 21.931-28.517 56.48-45.345 92.447-44.901 35.297 0.394 67.597 16.458 89.23 44.148v10.098c0 15.349-12.476 27.838-27.81 27.838-6.229 0-11.282 5.054-11.282 11.288s5.041 11.288 11.271 11.288c27.781 0 50.377-22.616 50.377-50.414v-9.59l47.763-52.281c16.511 87.843-46.017 161.505-127.035 186.576-44.513 13.776-84.642 6.258-112.682-32.429-0.004-0.002-13.41 8.682-25.119-3.405zM665.698 530.732l-53.751 59.254c-25.663-28.692-61.689-45.135-100.755-45.572-39.487-0.44-76.063 15.463-102.409 44.014l-38.829-57.898c-16.719 3.919-33.258-9.144-33.258-26.353 0-17.215 16.557-30.289 33.282-26.346 7.805-68.45 75.66-119.237 142.023-119.237 72.667 0 125.304 51.723 143.001 119.018 16.478-3.282 32.379 9.73 32.379 26.565 0 13.117-9.314 24.053-21.683 26.554zM512 836.833c-6.043 0-10.94 4.903-10.94 10.951v96.888c0 6.048 4.897 10.951 10.94 10.951s10.94-4.903 10.94-10.951v-96.888c0-6.048-4.897-10.951-10.94-10.951zM329.562 787.867c-3.783 0-7.459 1.965-9.485 5.477l-48.402 83.909c-3.022 5.236-1.23 11.936 4.004 14.96 5.234 3.028 11.925 1.23 14.944-4.008l48.402-83.909c4.135-7.166-1.184-16.428-9.463-16.428zM195.995 654.157c-1.855 0-3.735 0.475-5.459 1.47l-83.832 48.443c-5.234 3.024-7.026 9.721-4.004 14.96 3.017 5.236 9.704 7.037 14.944 4.008l83.832-48.443c9.31-5.38 5.273-20.438-5.481-20.438zM828.068 654.266c-10.732 0-14.82 15.041-5.481 20.436l83.83 48.443c5.234 3.026 11.925 1.227 14.944-4.008 3.022-5.238 1.23-11.936-4.004-14.96l-83.83-48.443c-1.722-0.993-3.604-1.468-5.459-1.468zM694.456 787.931c-8.277 0-13.599 9.262-9.463 16.428l48.402 83.907c3.022 5.238 9.717 7.030 14.944 4.008 5.234-3.024 7.026-9.721 4.004-14.96l-48.402-83.907c-2.026-3.512-5.706-5.477-9.485-5.477z" />
<glyph unicode="&#xe91b;" glyph-name="setting" d="M944.213 515.413c-1.707-3.84-3.413-7.68-5.547-11.52v-269.227h-853.333v469.333h438.613c2.987 15.36 9.813 29.867 19.627 42.667-9.813 12.8-16.64 27.307-19.627 42.667h-449.28c-40.96 0-74.667-33.707-74.667-74.667v-576c0-40.96 33.707-74.667 74.667-74.667h326.741c-5.035-21.376-18.304-56.064-53.845-91.563-6.101-6.101-7.936-15.275-4.608-23.253 3.285-7.979 11.093-13.184 19.712-13.184h298.667c8.619 0 16.427 5.205 19.712 13.184s1.451 17.152-4.608 23.253c-35.456 35.456-49.109 70.144-54.4 91.563h327.296c40.96 0 74.667 33.707 74.667 74.667v397.227c-22.187-17.067-51.2-24.747-79.787-20.48zM682.667 448c0-70.827-57.173-128-128-128h-277.333c-58.88 0-106.667 47.787-106.667 106.667 0 53.333 39.68 97.28 90.88 104.96 18.347 74.24 84.907 129.707 165.12 129.707 44.8 0 84.48-17.067 114.773-46.080l27.733-47.787c20.053-34.56 56.747-54.187 94.72-53.333 11.947-19.627 18.773-41.813 18.773-66.133zM968.661 726.656c0.811 6.613 2.005 13.141 2.005 20.011s-1.195 13.397-2.005 20.011l38.443 29.099c8.576 6.485 10.965 18.347 5.589 27.691l-34.517 59.733c-5.376 9.301-16.853 13.184-26.752 9.003l-44.245-18.645c-10.795 8.235-22.272 15.488-34.944 20.779l-5.888 46.976c-1.365 10.667-10.411 18.688-21.163 18.688h-68.992c-10.752 0-19.84-8.021-21.163-18.688l-5.888-46.976c-12.672-5.291-24.192-12.587-34.944-20.779l-44.245 18.645c-9.941 4.181-21.419 0.341-26.795-9.003l-34.475-59.733c-5.376-9.301-2.987-21.163 5.589-27.691l38.443-29.099c-0.853-6.613-2.048-13.141-2.048-20.011s1.195-13.397 2.005-20.011l-38.443-29.099c-8.576-6.485-10.965-18.347-5.589-27.691l34.517-59.733c5.376-9.301 16.853-13.184 26.752-9.003l44.245 18.688c10.795-8.235 22.272-15.488 34.944-20.779l5.888-46.976c1.365-10.709 10.411-18.731 21.163-18.731h68.992c10.752 0 19.84 8.021 21.163 18.688l5.888 46.976c12.672 5.291 24.192 12.587 34.944 20.779l44.245-18.645c9.941-4.181 21.419-0.341 26.795 9.003l34.475 59.733c5.376 9.301 2.987 21.163-5.589 27.691zM810.667 661.333c-47.147 0-85.333 38.187-85.333 85.333s38.187 85.333 85.333 85.333 85.333-38.187 85.333-85.333-38.187-85.333-85.333-85.333z" />
<glyph unicode="&#xe91c;" glyph-name="speaker-filled-audio-tool" d="M512.308 128.797c0-18.039-10.423-34.428-26.734-42.077-6.307-2.983-13.064-4.425-19.778-4.425-10.632 0-21.165 3.654-29.673 10.709l-254.222 210.66h-135.399c-25.678-0.022-46.501 20.813-46.501 46.49v185.268c0 25.689 20.824 46.512 46.501 46.512h135.41l254.222 210.66c13.89 11.513 33.151 13.967 49.451 6.263 16.3-7.649 26.734-24.049 26.734-42.077l-0.011-627.984zM691.017 201.46c-1.134-0.077-2.223-0.121-3.346-0.121-12.283 0-24.126 4.854-32.876 13.615l-6.219 6.241c-16.311 16.278-18.226 42.066-4.491 60.578 34.824 46.953 53.204 102.611 53.204 161 0 62.802-20.868 121.707-60.358 170.355-15.035 18.491-13.648 45.346 3.203 62.185l6.208 6.219c9.289 9.289 21.737 14.352 35.209 13.549 13.119-0.66 25.369-6.835 33.69-17.005 54.778-67.028 83.714-148.408 83.714-235.314 0-80.94-25.59-157.984-74.017-222.767-8.090-10.797-20.461-17.577-33.921-18.535zM883.274 57.751c-8.409-9.939-20.571-15.904-33.591-16.454-0.638-0.022-1.288-0.044-1.948-0.044-12.316 0-24.137 4.865-32.887 13.615l-6.108 6.108c-17.071 17.060-18.226 44.344-2.708 62.813 74.997 89.195 116.314 202.471 116.314 318.983 0 121.19-44.234 237.856-124.525 328.504-16.278 18.402-15.453 46.259 1.871 63.649l6.097 6.108c9.047 9.091 20.802 14.099 34.284 13.67 12.8-0.363 24.907-6.020 33.415-15.596 97.053-109.27 150.511-250.040 150.511-396.335 0.022-140.759-49.957-277.501-140.726-385.021z" />
<glyph unicode="&#xe91d;" glyph-name="star" d="M1021.322 567.236c-6.742 20.735-25.133 35.415-46.805 37.376l-295.599 26.836-116.822 273.505c-8.625 20.094-28.25 33.063-50.095 33.063s-41.477-12.969-50.048-33.063l-116.822-273.505-295.646-26.836c-21.672-2-40.024-16.68-46.805-37.376-6.742-20.735-0.516-43.477 15.875-57.853l223.449-195.933-65.884-290.177c-4.82-21.336 3.461-43.399 21.164-56.196 9.516-6.914 20.696-10.367 31.915-10.367 9.641 0 19.289 2.563 27.907 7.719l254.895 152.409 254.848-152.409c18.696-11.172 42.204-10.149 59.868 2.648 17.703 12.797 25.985 34.86 21.164 56.196l-65.884 290.177 223.449 195.933c16.383 14.375 22.618 37.071 15.875 57.853z" />
<glyph unicode="&#xe91e;" glyph-name="telephone" d="M778.514 282.604c-33.454 33.028-75.219 33.028-108.46 0-25.357-25.144-50.714-50.288-75.645-75.858-6.819-7.032-12.572-8.523-20.882-3.836-16.408 8.95-33.88 16.194-49.649 25.996-73.514 46.239-135.096 105.69-189.645 172.599-27.062 33.241-51.14 68.826-67.974 108.886-3.409 8.097-2.77 13.424 3.836 20.030 25.357 24.505 50.075 49.649 75.006 74.793 34.733 34.946 34.733 75.858-0.213 111.017-19.817 20.030-39.634 39.634-59.451 59.664-20.456 20.456-40.699 41.125-61.368 61.368-33.454 32.602-75.219 32.602-108.46-0.213-25.57-25.144-50.075-50.927-76.071-75.645-24.079-22.8-36.224-50.714-38.781-83.316-4.049-53.058 8.95-103.133 27.275-151.929 37.503-101.002 94.61-190.711 163.862-272.962 93.544-111.23 205.201-199.234 335.822-262.733 58.811-28.553 119.754-50.501 186.023-54.124 45.6-2.557 85.234 8.95 116.984 44.535 21.735 24.292 46.239 46.452 69.253 69.679 34.094 34.52 34.307 76.284 0.426 110.378-40.486 40.699-81.185 81.185-121.884 121.671zM737.814 452.432l78.628 13.424c-12.359 72.236-46.452 137.653-98.232 189.645-54.763 54.763-124.015 89.283-200.3 99.937l-11.080-79.054c59.024-8.31 112.722-34.946 155.126-77.35 40.060-40.060 66.269-90.774 75.858-146.602zM860.764 794.22c-90.774 90.774-205.627 148.094-332.412 165.78l-11.080-79.054c109.526-15.342 208.823-64.991 287.238-143.193 74.367-74.367 123.163-168.337 140.849-271.683l78.628 13.424c-20.669 119.754-77.137 228.427-163.223 314.726z" />
<glyph unicode="&#xe91f;" glyph-name="twitter" d="M607.324 526.406l373.010 433.594h-88.391l-323.885-376.484-258.686 376.484h-298.363l391.184-569.31-391.184-454.69h88.396l342.031 397.58 273.191-397.58h298.363l-405.688 590.406zM486.253 385.674l-354.997 507.782h135.772l624.957-893.939h-135.772l-269.96 386.135z" />
<glyph unicode="&#xe920;" glyph-name="user" d="M512.071 428.262c146.287 0 265.869 119.582 265.869 265.869s-119.582 265.869-265.869 265.869-265.867-119.582-265.867-265.869 119.582-265.869 265.867-265.869zM968.344 215.8c-6.967 17.416-16.253 33.669-26.702 48.762-53.407 78.949-135.836 131.193-228.716 143.964-11.609 1.16-24.38-1.16-33.669-8.127-48.762-35.991-106.811-54.567-167.184-54.567s-118.422 18.576-167.184 54.567c-9.289 6.967-22.060 10.449-33.669 8.127-92.88-12.771-176.471-65.016-228.716-143.964-10.449-15.093-19.738-32.509-26.702-48.762-3.482-6.967-2.322-15.093 1.16-22.060 9.289-16.253 20.898-32.509 31.347-46.44 16.253-22.060 33.669-41.796 53.407-60.371 16.253-16.253 34.829-31.347 53.407-46.44 91.718-68.5 202.013-104.489 315.791-104.489s224.073 35.991 315.791 104.489c18.576 13.931 37.151 30.187 53.407 46.44 18.576 18.576 37.151 38.313 53.407 60.371 11.609 15.093 22.060 30.187 31.347 46.44 5.802 6.967 6.962 15.096 3.48 22.060z" />
<glyph unicode="&#xe921;" glyph-name="video-camera" d="M579.221 748.814h-467.186c-61.619 0-112.035-50.416-112.035-112.035v-377.558c0-61.619 50.416-112.035 112.035-112.035h467.186c61.619 0 112.035 50.416 112.035 112.035v377.558c0 62.74-50.416 112.035-112.035 112.035zM941.094 687.195c-6.722-1.12-13.444-4.481-19.046-7.842l-174.775-100.832v-259.921l175.895-100.832c32.49-19.046 72.823-7.842 91.869 24.648 5.602 10.083 8.963 21.287 8.963 33.611v346.188c0 41.453-39.212 75.063-82.906 64.98z" />
<glyph unicode="&#xe922;" glyph-name="search" d="M1012.339 3.962l-249.907 249.901c62.118 74.7 99.539 170.621 99.539 275.137 0 237.654-193.338 431-430.982 431-237.649 0-430.989-193.346-430.989-431 0-237.64 193.34-430.971 430.989-430.971 104.511 0 200.438 37.421 275.135 99.539l249.914-249.907c7.77-7.776 17.965-11.661 28.147-11.661 10.189 0 20.378 3.885 28.16 11.661 15.546 15.552 15.546 40.755-0.006 56.301zM79.625 529c0 193.749 157.62 351.375 351.364 351.375 193.738 0 351.353-157.626 351.353-351.375 0-193.733-157.615-351.342-351.353-351.342-193.744 0-351.364 157.609-351.364 351.342z" />
<glyph unicode="&#xe923;" glyph-name="cart" d="M814.547 149.331h-383.742c-55.338 0-104.405 36.307-119.381 88.32l-129.707 439.51c-4.608 15.914-19.925 26.837-37.418 26.837h-101.632c-23.595 0-42.667 19.115-42.667 42.667s19.072 42.666 42.667 42.666h101.632c55.338 0 104.362-36.309 119.338-88.32l24.278-82.346h652.584c26.624 0 51.885-12.672 67.546-33.92 15.526-21.078 20.006-47.446 12.288-72.363l-88.026-279.384c-17.235-50.432-64.467-83.667-117.76-83.667zM469.333-64c-47.061 0-85.333 38.272-85.333 85.338 0 47.059 38.272 85.331 85.333 85.331s85.334-38.272 85.334-85.331c0-47.066-38.272-85.338-85.334-85.338zM768.019-64c-47.059 0-85.331 38.272-85.331 85.338 0 47.059 38.272 85.331 85.331 85.331 47.066 0 85.338-38.272 85.338-85.331 0-47.066-38.272-85.338-85.338-85.338z" />
<glyph unicode="&#xe924;" glyph-name="close" d="M137.344 777.344c-5.798 5.798-9.384 13.808-9.384 22.656 0 17.695 14.345 32.040 32.040 32.040 8.848 0 16.858-3.586 22.656-9.384v0l329.344-329.408 329.344 329.408c5.798 5.798 13.808 9.384 22.656 9.384 17.695 0 32.040-14.345 32.040-32.040 0-8.848-3.586-16.858-9.384-22.656v0l-329.408-329.344 329.408-329.344c5.798-5.798 9.384-13.808 9.384-22.656 0-17.695-14.345-32.040-32.040-32.040-8.848 0-16.858 3.586-22.656 9.384v0l-329.344 329.408-329.344-329.408c-5.798-5.798-13.808-9.384-22.656-9.384-17.695 0-32.040 14.345-32.040 32.040 0 8.848 3.586 16.858 9.384 22.656v0l329.408 329.344z" />
<glyph unicode="&#xe925;" glyph-name="right-arrow" horiz-adv-x="512" d="M11.604-16.192c-3.678 3.661-6.596 8.013-8.587 12.8-1.991 4.794-3.016 9.933-3.016 15.117 0 5.19 1.025 10.33 3.016 15.117 1.991 4.794 4.91 9.146 8.587 12.8l405.236 405.067-405.236 405.236c-3.666 3.667-6.574 8.019-8.558 12.809s-3.005 9.924-3.005 15.109c0 5.185 1.021 10.319 3.005 15.108s4.892 9.143 8.558 12.809c3.666 3.666 8.019 6.574 12.809 8.559s9.924 3.005 15.109 3.005c5.185 0 10.319-1.021 15.109-3.005s9.143-4.892 12.809-8.559l432.939-433.24c3.683-3.656 6.605-8.006 8.6-12.797s3.021-9.93 3.021-15.12c0-5.19-1.027-10.329-3.021-15.12s-4.918-9.141-8.6-12.797l-433.111-432.897c-3.648-3.667-7.985-6.579-12.761-8.563s-9.898-3.008-15.071-3.008c-5.173 0-10.294 1.024-15.071 3.008s-9.113 4.896-12.761 8.563z" />
<glyph unicode="&#xe926;" glyph-name="left-arrow" horiz-adv-x="512" d="M500.396 912.222c3.677-3.66 6.596-8.010 8.588-12.801s3.016-9.929 3.016-15.117c0-5.188-1.025-10.325-3.016-15.116s-4.91-9.141-8.588-12.801l-405.236-405.064 405.236-405.236c3.666-3.667 6.574-8.019 8.558-12.806 1.985-4.794 3.005-9.926 3.005-15.11s-1.021-10.317-3.005-15.11c-1.984-4.787-4.892-9.139-8.558-12.806s-8.019-6.573-12.809-8.557c-4.79-1.99-9.924-3.008-15.108-3.008s-10.319 1.018-15.109 3.008c-4.79 1.984-9.143 4.89-12.809 8.557l-432.939 433.238c-3.683 3.657-6.606 8.006-8.6 12.798s-3.021 9.93-3.021 15.12c0 5.19 1.027 10.328 3.021 15.12s4.918 9.14 8.6 12.797l433.11 432.896c3.648 3.667 7.985 6.577 12.762 8.563s9.898 3.008 15.071 3.008c5.172 0 10.294-1.022 15.071-3.008s9.113-4.896 12.761-8.563z" />
<glyph unicode="&#xe927;" glyph-name="comments" d="M412.501 0h-0.083c-30.040 0.026-58.29 11.74-79.522 33.014l-299.086 299.515c-43.746 43.822-43.746 115.139 0 158.962l403.171 403.945c41.55 41.631 96.83 64.564 155.659 64.564h255.79c62.029 0 112.502-50.46 112.502-112.5v-255.006c0-58.786-22.907-114.046-64.502-155.589l-404.423-404.004c-21.246-21.217-49.482-32.901-79.506-32.901zM592.64 885c-38.764 0-75.192-15.111-102.573-42.545l-403.177-403.943c-14.584-14.618-14.584-38.38 0-52.992l299.085-299.515c7.072-7.086 16.483-10.998 26.502-11.003h0.030c4.922-0.015 9.797 0.947 14.345 2.826 4.548 1.884 8.678 4.649 12.151 8.136l404.425 403.996c27.412 27.375 42.506 63.795 42.506 102.532v255.008c0 20.677-16.824 37.5-37.504 37.5h-255.79zM689.050 579.375c-62.029 0-112.497 50.46-112.497 112.5s50.468 112.5 112.497 112.5c62.034 0 112.502-50.46 112.502-112.5s-50.468-112.5-112.502-112.5zM689.050 729.375c-20.675 0-37.499-16.823-37.499-37.5s16.824-37.5 37.499-37.5c20.685 0 37.504 16.823 37.504 37.5s-16.819 37.5-37.504 37.5z" />
<glyph unicode="&#xe928;" glyph-name="arrow-right" d="M743.155 728.843l-45.613-45.614 202.976-202.975h-900.518v-64.509h900.518l-202.976-202.976 45.613-45.613 280.845 280.845-280.845 280.842z" />
<glyph unicode="&#xe929;" glyph-name="double-arrow" d="M512.026 149.328c-8.475-0.051-16.772 2.423-23.834 7.111-7.062 4.682-12.57 11.366-15.819 19.189-3.25 7.828-4.095 16.447-2.428 24.758 1.667 8.306 5.77 15.935 11.788 21.902l226.136 225.704-226.136 225.707c-6.99 8.162-10.643 18.661-10.228 29.4s4.866 20.924 12.465 28.523c7.599 7.599 17.785 12.050 28.524 12.465s21.237-3.238 29.4-10.227l256.002-256c7.942-7.994 12.407-18.808 12.407-30.080s-4.466-22.086-12.407-30.080l-256.002-255.998c-7.947-7.885-18.674-12.328-29.867-12.373zM256.026 149.328c-8.475-0.051-16.772 2.423-23.834 7.111-7.062 4.682-12.57 11.366-15.819 19.189-3.25 7.828-4.095 16.447-2.428 24.758 1.667 8.306 5.77 15.935 11.788 21.902l226.133 225.704-226.133 225.707c-8.034 8.034-12.548 18.931-12.548 30.293s4.514 22.259 12.548 30.293c8.034 8.034 18.931 12.548 30.293 12.548s22.259-4.514 30.293-12.548l256-256c7.946-7.994 12.407-18.808 12.407-30.080s-4.461-22.086-12.407-30.080l-256-255.998c-3.952-4.033-8.664-7.242-13.864-9.438s-10.784-3.339-16.429-3.362z" />
<glyph unicode="&#xe92a;" glyph-name="youtube" d="M971.719 687.947c-11.062 41.127-43.488 73.547-84.609 84.621-75.123 20.555-375.621 20.555-375.621 20.555s-300.486 0-375.609-19.775c-40.33-11.062-73.547-44.279-84.609-85.4-19.77-75.117-19.77-230.9-19.77-230.9s0-156.568 19.77-230.9c11.074-41.121 43.488-73.541 84.615-84.615 75.908-20.561 375.615-20.561 375.615-20.561s300.486 0 375.609 19.775c41.127 11.068 73.547 43.488 84.621 84.609 19.764 75.123 19.764 230.9 19.764 230.9s0.791 156.574-19.775 231.691zM415.816 313.129v287.836l249.879-143.918z" />
<glyph unicode="&#xe92b;" glyph-name="arrow-right-2" d="M1000.41 427.127h-976.738c-11.618 0-21.005 9.387-21.005 21.005s9.387 21.005 21.005 21.005h925.999l-127.475 127.474c-8.205 8.205-8.205 21.53 0 29.735s21.53 8.205 29.734 0l163.379-163.379c6.042-6.042 7.812-15.036 4.531-22.912-3.281-7.808-10.961-12.928-19.43-12.928zM836.821 263.548c-5.38 0-10.765 2.035-14.835 6.17-8.205 8.205-8.205 21.53 0 29.734l163.58 163.58c8.205 8.205 21.53 8.205 29.734 0s8.205-21.53 0-29.734l-163.58-163.58c-4.134-4.134-9.515-6.17-14.899-6.17z" />
<glyph unicode="&#xe92c;" glyph-name="paper-plane" d="M996.221 948.806c20.201-14 30.8-38.2 26.999-62.4l-128-831.998c-2.998-19.405-14.802-36.403-32-46-17.198-9.603-37.797-10.803-56.001-3.203l-239.198 99.402-137-148.201c-17.8-19.399-45.8-25.799-70.4-16.202-24.6 9.603-40.6 33.399-40.6 59.802v167.202c0 7.999 3 15.599 8.4 21.396l335.2 365.802c11.6 12.6 11.201 32-0.802 44-11.998 12-31.397 12.8-43.998 1.4l-406.799-361.402-176.6 88.4c-21.2 10.604-34.8 31.801-35.4 55.404-0.6 23.598 11.8 45.598 32.2 57.398l896.001 512c21.402 12.2 47.798 11 67.999-2.8z" />
<glyph unicode="&#xe92d;" glyph-name="arrow-left" d="M280.844 728.85l45.612-45.614-202.973-202.975h900.517v-64.511h-900.517l202.973-202.972-45.612-45.614-280.844 280.845 280.844 280.842z" />
<glyph unicode="&#xe92e;" glyph-name="share" d="M723.645 271.212c-49.060 0-93.266-21.187-123.945-54.892l-275.943 170.906c7.576 19.369 11.46 39.982 11.452 60.775 0.009 20.795-3.875 41.409-11.452 60.774l275.943 170.914c30.684-33.704 74.885-54.9 123.945-54.9 92.421 0 167.608 75.188 167.608 167.61s-75.187 167.602-167.608 167.602c-92.421 0-167.608-75.188-167.608-167.61 0-20.794 3.881-41.405 11.453-60.772l-275.937-170.908c-30.68 33.704-74.882 54.9-123.943 54.9-92.422 0-167.61-75.196-167.61-167.61 0-92.422 75.188-167.609 167.61-167.609 49.060 0 93.265 21.187 123.943 54.902l275.937-170.911c-7.572-19.369-11.453-39.982-11.453-60.78 0-92.411 75.187-167.603 167.608-167.603s167.608 75.192 167.608 167.603c0 92.421-75.187 167.608-167.608 167.608zM617.155 792.39c0 58.72 47.775 106.492 106.491 106.492 58.721 0 106.491-47.772 106.491-106.492s-47.77-106.491-106.491-106.491c-58.721 0-106.491 47.774-106.491 106.491zM167.61 341.509c-58.728 0-106.5 47.775-106.5 106.492s47.772 106.492 106.5 106.492c58.72 0 106.484-47.774 106.484-106.492s-47.766-106.492-106.484-106.492zM617.155 103.608c0 58.721 47.775 106.496 106.491 106.496 58.721 0 106.491-47.775 106.491-106.491 0-58.721-47.77-106.496-106.491-106.496s-106.491 47.775-106.491 106.496v-0.005z" />
<glyph unicode="&#xe92f;" glyph-name="check-2" d="M472.574 52.499c-2.716 0-5.404 0.557-7.892 1.651-2.488 1.088-4.725 2.675-6.568 4.672l-389.882 421.741c-2.599 2.812-4.322 6.32-4.958 10.096s-0.158 7.654 1.377 11.163c1.535 3.508 4.058 6.492 7.263 8.588s6.95 3.212 10.779 3.212h187.668c2.817 0 5.603-0.605 8.166-1.773s4.848-2.873 6.697-4.999l130.3-149.906c14.082 30.102 41.342 80.223 89.179 141.297 70.719 90.289 202.261 223.076 427.311 342.947 4.352 2.316 9.408 2.918 14.182 1.685 4.768-1.233 8.909-4.21 11.59-8.344s3.718-9.123 2.906-13.983c-0.819-4.86-3.424-9.238-7.309-12.269-0.864-0.671-87.635-69.004-187.494-194.166-91.91-115.18-214.086-303.515-274.205-546.657-1.056-4.275-3.512-8.070-6.977-10.778-3.465-2.714-7.738-4.192-12.138-4.192l0.006 0.013z" />
<glyph unicode="&#xe930;" glyph-name="address" d="M511.976 235.341c-3.389-0.006-6.724 0.858-9.684 2.509s-5.45 4.032-7.229 6.918c-16.454 25.722-33.291 51.194-50.504 76.416-81.166 120.474-192.308 285.38-192.308 379.043 0 143.245 116.458 259.726 259.726 259.726 143.224 0 259.729-116.481 259.729-259.726 0-93.662-111.168-258.664-192.312-379.043-17.215-25.216-34.052-50.694-50.504-76.416-1.768-2.899-4.254-5.286-7.217-6.938s-6.304-2.509-9.697-2.49zM511.976 919.96c-121.182 0-219.734-98.575-219.734-219.734 0-81.402 111.567-247.065 185.482-356.719 12.591-18.756 24.166-35.834 34.252-51.258 10.063 15.424 21.661 32.501 34.252 51.258 73.82 109.654 185.388 275.317 185.388 356.719 0.096 121.158-98.505 219.734-219.64 219.734zM512.008 561.398c-37.645 0.044-73.736 15.018-100.356 41.637s-41.594 62.71-41.637 100.356c0.044 37.642 15.014 73.729 41.629 100.348s62.7 41.596 100.34 41.645c37.646-0.038 73.74-15.005 100.363-41.62s41.604-62.704 41.656-100.349c-0.038-37.649-15.010-73.747-41.63-100.371s-62.715-41.602-100.365-41.645zM512.008 805.463c-27.041-0.025-52.966-10.776-72.090-29.894s-29.88-45.042-29.911-72.083c0.025-27.044 10.78-52.974 29.903-72.098s45.053-29.878 72.098-29.903c27.041 0.031 52.964 10.788 72.083 29.911s29.87 45.049 29.895 72.090c-0.031 27.037-10.785 52.957-29.903 72.074s-45.037 29.872-72.074 29.903zM364.086-63.955c-2.149 0.006-4.284 0.339-6.331 0.992l-295.727 98.65c-3.984 1.331-7.447 3.891-9.898 7.302s-3.765 7.514-3.755 11.712v574.966c-0.002 3.169 0.749 6.292 2.192 9.114s3.536 5.259 6.106 7.112c2.57 1.853 5.545 3.068 8.677 3.545s6.333 0.202 9.339-0.801l260.246-86.741c4.804-1.594 8.824-4.955 11.244-9.402 10.086-18.591 21.827-39 35.079-60.662 1.904-3.141 2.909-6.744 2.906-10.417v-525.356c0.003-2.637-0.515-5.248-1.523-7.68s-2.489-4.64-4.355-6.502c-1.866-1.862-4.081-3.334-6.518-4.333s-5.048-1.51-7.682-1.498zM88.367 69.043l255.734-85.28v492.052c-10.106 16.675-19.887 33.544-29.339 50.599l-226.396 75.591v-532.962zM364.133-63.974c-2.628-0.006-5.231 0.512-7.661 1.51-2.429 1.005-4.636 2.483-6.494 4.339s-3.332 4.064-4.337 6.496c-1.004 2.426-1.52 5.030-1.517 7.661v525.357c0.006 4.36 1.437 8.599 4.074 12.072s6.336 5.988 10.534 7.165c4.199 1.176 8.667 0.949 12.724-0.647s7.483-4.474 9.754-8.196c31.512-51.804 66.095-103.064 96.497-148.3 12.591-18.756 24.165-35.905 34.252-51.258 10.086 15.354 21.661 32.502 34.252 51.258 30.497 45.236 64.985 96.497 96.494 148.324 2.266 3.741 5.69 6.638 9.754 8.246s8.55 1.838 12.755 0.656c4.211-1.182 7.917-3.711 10.547-7.201 2.637-3.489 4.051-7.746 4.032-12.118v-426.803c-0.006-4.198-1.331-8.294-3.782-11.699-2.458-3.405-5.914-5.958-9.894-7.296l-295.725-98.573c-2.019-0.672-4.133-1.005-6.26-0.992zM384.141 412.058v-428.294l255.734 85.254v343.040c-20.575-31.819-41.339-62.599-60.426-90.993-17.208-25.219-34.036-50.697-50.481-76.419-1.809-2.874-4.318-5.248-7.292-6.893s-6.317-2.509-9.716-2.509c-3.388-0.006-6.72 0.851-9.681 2.502-2.961 1.645-5.45 4.019-7.233 6.899-12.922 20.672-30.332 46.515-50.504 76.419-19.064 28.417-39.733 59.174-60.403 90.993zM955.61-63.949c-2.15 0-4.282 0.339-6.33 0.992l-295.75 98.573c-3.981 1.331-7.443 3.885-9.894 7.29-2.451 3.411-3.768 7.507-3.76 11.706v426.804c0 3.661 1.014 7.252 2.928 10.394 29.478 48.591 51.072 88.938 65.907 123.332 1.965 4.608 5.594 8.308 10.163 10.365s9.747 2.32 14.496 0.738l228.57-76.182c3.981-1.33 7.443-3.881 9.894-7.29s3.77-7.503 3.763-11.702v-575.012c0-5.299-2.106-10.381-5.856-14.131s-8.832-5.875-14.131-5.875zM679.891 69.043l255.712-85.28v532.92l-197.722 65.907c-14.406-30.993-33.587-66.143-58.016-106.726l0.026-406.821z" />
<glyph unicode="&#xe931;" glyph-name="location-2" d="M512.020 960c-208.583 0-378.271-169.688-378.271-378.27 0-68.668 30.796-142.519 32.086-145.635 9.946-23.608 29.572-60.278 43.724-81.773l259.36-392.979c10.614-16.109 26.323-25.344 43.101-25.344s32.486 9.235 43.1 25.325l259.382 392.998c14.176 21.494 33.779 58.164 43.725 81.773 1.293 3.093 32.064 76.945 32.064 145.635 0 208.582-169.69 378.27-378.271 378.27zM817.197 453.363c-8.877-21.161-27.149-55.272-39.853-74.541l-259.382-393.004c-5.118-7.763-6.742-7.763-11.86 0l-259.382 393.004c-12.705 19.27-30.973 53.403-39.852 74.564-0.378 0.912-28.615 68.89-28.615 128.345 0 184.040 149.729 333.768 333.768 333.768 184.037 0 333.765-149.728 333.765-333.768 0-59.544-28.301-127.7-28.589-128.367zM512.011 781.937c-110.433 0-200.261-89.85-200.261-200.26s89.828-200.261 200.261-200.261c110.433 0 200.258 89.851 200.258 200.261s-89.825 200.26-200.258 200.26zM512.011 425.918c-85.868 0-155.759 69.869-155.759 155.759s69.891 155.758 155.759 155.758c85.868 0 155.759-69.869 155.759-155.758s-69.891-155.759-155.759-155.759z" />
<glyph unicode="&#xe932;" glyph-name="date" d="M341.2 714.65c-17.493 0-32 14.506-32 32v128c0 17.493 14.507 32 32 32s32-14.507 32-32v-128c0-17.494-14.506-32-32-32zM682.532 714.65c-17.49 0-32 14.506-32 32v128c0 17.493 14.51 32 32 32 17.495 0 32-14.507 32-32v-128c0-17.494-14.505-32-32-32zM362.533 341.315c-5.546 0-11.094 1.28-16.214 3.415-5.546 2.135-9.813 5.12-14.080 8.96-7.68 8.105-12.373 18.775-12.373 30.295 0 5.545 1.28 11.090 3.413 16.21s5.12 9.815 8.96 14.080c4.267 3.84 8.534 6.83 14.080 8.96 15.36 6.4 34.56 2.99 46.507-8.96 7.68-8.105 12.373-19.2 12.373-30.29 0-2.56-0.426-5.55-0.853-8.535-0.427-2.56-1.28-5.12-2.56-7.68-0.854-2.56-2.134-5.12-3.84-7.68-1.28-2.135-3.414-4.265-5.12-6.4-8.107-7.68-19.2-12.375-30.294-12.375zM511.867 341.315c-5.547 0-11.094 1.28-16.214 3.415-5.546 2.135-9.814 5.12-14.080 8.96-7.68 8.105-12.374 18.775-12.374 30.295 0 5.545 1.28 11.090 3.414 16.21s5.12 9.815 8.96 14.080c4.266 3.84 8.534 6.83 14.080 8.96 15.36 6.83 34.558 2.99 46.509-8.96 7.68-8.105 12.37-19.2 12.37-30.29 0-2.56-0.425-5.55-0.85-8.535-0.43-2.56-1.28-5.12-2.56-7.68-0.855-2.56-2.135-5.12-3.84-7.68-1.28-2.135-3.415-4.265-5.12-6.4-8.11-7.68-19.2-12.375-30.295-12.375zM661.202 341.315c-5.55 0-11.095 1.28-16.215 3.415-5.545 2.135-9.815 5.12-14.080 8.96l-5.12 6.4c-1.618 2.376-2.908 4.961-3.84 7.68-1.234 2.417-2.094 5.007-2.56 7.68-0.425 2.985-0.855 5.975-0.855 8.535 0 11.090 4.695 22.185 12.375 30.29 4.265 3.84 8.535 6.83 14.080 8.96 15.785 6.83 34.56 2.99 46.505-8.96 7.68-8.105 12.375-19.2 12.375-30.29 0-2.56-0.425-5.55-0.855-8.535-0.425-2.56-1.28-5.12-2.56-7.68-0.85-2.56-2.13-5.12-3.84-7.68-1.28-2.135-3.41-4.265-5.12-6.4-8.105-7.68-19.2-12.375-30.29-12.375zM362.533 191.985c-5.546 0-11.094 1.28-16.214 3.41-5.12 2.135-9.813 5.12-14.080 8.96-7.68 8.11-12.373 19.2-12.373 30.295 0 5.545 1.28 11.095 3.413 16.215 2.134 5.545 5.12 10.24 8.96 14.080 15.787 15.785 44.8 15.785 60.587 0 7.68-8.11 12.373-19.2 12.373-30.295s-4.693-22.185-12.373-30.295c-8.107-7.68-19.2-12.37-30.294-12.37zM511.867 191.985c-11.094 0-22.187 4.69-30.294 12.37-7.68 8.11-12.374 19.2-12.374 30.295 0 5.545 1.28 11.095 3.414 16.215 2.134 5.545 5.12 10.24 8.96 14.080 15.786 15.785 44.798 15.785 60.589 0 3.84-3.84 6.825-8.535 8.96-14.080 2.13-5.12 3.41-10.67 3.41-16.215 0-11.095-4.69-22.185-12.37-30.295-8.11-7.68-19.2-12.37-30.295-12.37zM661.202 191.985c-11.095 0-22.19 4.69-30.295 12.37-3.948 4.009-7.004 8.806-8.96 14.080-2.135 5.12-3.415 10.67-3.415 16.215s1.28 11.095 3.415 16.215c2.135 5.545 5.12 10.24 8.96 14.080 9.815 9.81 24.745 14.505 38.4 11.52 2.985-0.43 5.545-1.28 8.105-2.56 2.56-0.855 5.12-2.135 7.68-3.84 2.135-1.28 4.27-3.415 6.4-5.12 7.68-8.11 12.375-19.2 12.375-30.295s-4.695-22.185-12.375-30.295c-8.105-7.68-19.2-12.37-30.29-12.37zM874.532 540.143h-725.332c-17.493 0-32 14.507-32 32s14.507 32 32 32h725.332c17.495 0 32-14.506 32-32s-14.505-32-32-32zM682.665-10.685h-341.331c-155.734 0-245.334 89.6-245.334 245.335v362.667c0 155.734 89.6 245.334 245.334 245.334h341.331c155.735 0 245.335-89.6 245.335-245.334v-362.667c0-155.735-89.6-245.335-245.335-245.335zM341.334 778.65c-122.027 0-181.334-59.307-181.334-181.334v-362.667c0-122.025 59.306-181.335 181.334-181.335h341.331c122.030 0 181.335 59.31 181.335 181.335v362.667c0 122.026-59.305 181.334-181.335 181.334h-341.331z" />
<glyph unicode="&#xe933;" glyph-name="multiple-users" d="M511.917 749.291c-16.163 31.331-40.636 57.609-70.739 75.956s-64.675 28.058-99.928 28.065c-105.963 0-192-86.038-192-192s86.037-192 192-192c35.254 0.008 69.825 9.717 99.928 28.065s54.576 44.626 70.739 75.956c16.159-31.334 40.631-57.614 70.735-75.962s64.676-28.056 99.934-28.059c105.958 0 192 86.037 192 192s-86.042 192-192 192c-35.258-0.008-69.828-9.717-99.93-28.065s-54.576-44.626-70.739-75.956zM682.586 810.646c82.406 0 149.331-66.923 149.331-149.333s-66.925-149.334-149.331-149.334c-82.413 0-149.336 66.923-149.336 149.334s66.923 149.333 149.336 149.333zM341.25 810.646c82.411 0 149.333-66.923 149.333-149.333s-66.922-149.334-149.333-149.334c-82.411 0-149.333 66.923-149.333 149.334s66.922 149.333 149.333 149.333zM511.917 410.646c26.453 10.325 55.232 16 85.333 16h170.667c129.6 0 234.669-105.067 234.669-234.665v-85.338c0-16.973-6.746-33.248-18.746-45.254-12.006-12-28.282-18.746-45.254-18.746h-853.336c-16.974 0-33.252 6.746-45.255 18.746-12.002 12.006-18.745 28.282-18.745 45.254v85.338c0 129.598 105.067 234.665 234.667 234.665h170.666c30.102 0 58.88-5.675 85.334-16zM618.584 191.981c0 50.918-20.229 99.757-56.236 135.763s-84.843 56.236-135.764 56.236h-170.666c-50.922 0-99.757-20.228-135.764-56.236-36.007-36.006-56.236-84.844-56.236-135.763v-85.338c0-5.658 2.248-11.078 6.248-15.085 4.001-4 9.427-6.246 15.085-6.246h512c5.658 0 11.084 2.246 15.085 6.246 4.001 4.006 6.249 9.427 6.249 15.085v85.338zM657.6 85.312h280.986c5.658 0 11.085 2.246 15.085 6.246 4 4.006 6.246 9.427 6.246 15.085v85.338c0 50.918-20.23 99.757-56.237 135.763s-84.845 56.236-135.763 56.236h-170.667c-10.901 0-21.611-0.917-32.021-2.666 29.78-21.772 53.998-50.268 70.684-83.169 16.683-32.902 25.368-69.274 25.336-106.163v-85.338c0-7.488-1.28-14.656-3.648-21.331z" />
<glyph unicode="&#xe934;" glyph-name="play" horiz-adv-x="878" d="M173.221 895.944c-83.356 48.468-150.935 8.762-150.935-88.614v-718.593c0-97.47 67.579-137.128 150.935-88.708l619.611 360.207c83.383 48.485 83.383 127.037 0 175.511l-619.611 360.197z" />
<glyph unicode="&#xe935;" glyph-name="video" d="M512-12.8c-254.493 0-460.801 206.305-460.801 460.8 0 254.493 206.308 460.801 460.801 460.801 254.5 0 460.8-206.308 460.8-460.801 0-254.5-206.305-460.8-460.8-460.8zM512-64c282.767 0 512 229.233 512 512 0 282.772-229.233 512-512 512-282.772 0-512-229.228-512-512 0-282.767 229.228-512 512-512zM645.151 448l-235.446 156.962v-313.931l235.446 156.969zM692.721 477.819c21.279-14.189 21.279-45.455 0-59.643l-278.499-185.672c-23.817-15.877-55.721 1.203-55.721 29.824v371.335c0 28.625 31.905 45.699 55.721 29.819l278.499-185.663z" />
<glyph unicode="&#xe936;" glyph-name="chevron-up" d="M489.344 662.656c5.794 5.808 13.805 9.401 22.656 9.401s16.862-3.593 22.655-9.401l384.001-384.001c5.798-5.798 9.384-13.808 9.384-22.656 0-17.695-14.345-32.040-32.040-32.040-8.848 0-16.858 3.586-22.656 9.384v0l-361.344 361.408-361.344-361.408c-5.798-5.798-13.808-9.384-22.656-9.384-17.695 0-32.040 14.345-32.040 32.040 0 8.848 3.586 16.858 9.384 22.656v0z" />
<glyph unicode="&#xe937;" glyph-name="chevron-down" d="M105.344 662.656c5.794 5.808 13.805 9.401 22.656 9.401s16.862-3.593 22.655-9.401l361.345-361.409 361.344 361.408c5.798 5.798 13.808 9.384 22.656 9.384 17.695 0 32.040-14.345 32.040-32.040 0-8.848-3.586-16.858-9.384-22.656v0l-384-384c-5.794-5.808-13.805-9.401-22.656-9.401s-16.862 3.593-22.655 9.401l-384.001 384.001c-5.808 5.794-9.401 13.805-9.401 22.656s3.593 16.862 9.401 22.655l0.001 0.001z" />
<glyph unicode="&#xe938;" glyph-name="globe" d="M900.746 210.115c43.924 71.562 67.123 153.917 67.011 237.886 0.113 83.973-23.086 166.34-67.011 237.906l-0.246 0.399c-40.755 66.425-97.864 121.289-165.862 159.349-68.004 38.061-144.635 58.045-222.561 58.045-77.932 0-154.559-19.985-222.562-58.045s-125.11-92.924-165.863-159.349l-0.246-0.399c-43.818-71.614-67.006-153.939-67.006-237.896s23.188-166.283 67.006-237.896l0.256-0.41c40.754-66.422 97.861-121.283 165.864-159.34s144.629-58.040 222.556-58.040c77.932 0 154.557 19.988 222.556 58.045 68.004 38.062 125.107 92.923 165.862 159.345l0.246 0.399zM570.322 70.431c-8.689-8.381-18.683-15.283-29.594-20.439-8.955-4.255-18.744-6.461-28.657-6.461-9.915 0-19.704 2.207-28.658 6.461-20.761 10.604-38.533 26.245-51.692 45.486-26.872 38.835-46.785 82.048-58.849 127.703 46.353 2.852 92.754 4.306 139.204 4.362 46.428 0 92.831-1.454 139.213-4.362-6.682-23.475-15.022-46.444-24.965-68.731-13.097-31.345-32.108-59.873-56.003-84.019zM108.486 422.41h183.798c1.198-51.287 6.757-102.374 16.62-152.719-50.245-4.424-100.359-10.501-150.344-18.227-29.274 52.516-46.386 110.935-50.074 170.947zM158.56 644.547c49.964-7.741 100.096-13.817 150.395-18.227-9.88-50.337-15.45-101.425-16.65-152.709h-183.818c3.689 60.008 20.801 118.423 50.074 170.936zM453.83 825.59c8.685 8.381 18.681 15.285 29.594 20.439 8.954 4.255 18.743 6.462 28.658 6.462 9.912 0 19.702-2.207 28.657-6.462 20.762-10.604 38.533-26.242 51.692-45.486 26.87-38.834 46.781-82.045 58.849-127.703-46.356-2.853-92.754-4.307-139.203-4.362-46.43 0-92.834 1.454-139.214 4.362 6.679 23.474 15.022 46.442 24.965 68.731 13.093 31.346 32.108 59.873 56.003 84.019zM915.666 473.611h-183.798c-1.198 51.286-6.758 102.376-16.62 152.719 50.243 4.424 100.357 10.5 150.344 18.227 29.271-52.517 46.382-110.935 50.074-170.947zM360.4 273.674c-10.012 48.983-15.666 98.755-16.896 148.736h337.154c-1.219-49.981-6.866-99.758-16.865-148.746-50.519 3.318-101.089 5.012-151.716 5.079-50.587 0-101.146-1.69-151.676-5.069zM663.752 622.347c10.010-48.983 15.662-98.756 16.896-148.736h-337.143c1.219 49.983 6.862 99.76 16.865 148.746 50.517-3.318 101.089-5.010 151.717-5.079 50.586 0 101.14 1.693 151.675 5.079l-0.010-0.010zM731.848 422.41h183.818c-3.692-60.006-20.803-118.42-50.074-170.936-49.971 7.741-100.106 13.819-150.395 18.227 9.876 50.34 15.447 101.427 16.65 152.709zM834.893 691.672c-43.694-6.301-87.511-11.291-131.451-14.971-7.9 29.409-18.084 58.155-30.464 85.975-11.305 25.599-25.533 49.807-42.394 72.141 81.485-24.992 152.991-75.091 204.308-143.145zM226.072 734.024c46.745 46.79 104.253 81.398 167.485 100.792-0.963-1.249-1.946-2.437-2.888-3.697-32.502-46.786-56.177-99.119-69.857-154.419-43.95 3.721-87.798 8.711-131.543 14.971 11.28 14.946 23.577 29.097 36.803 42.353zM189.27 204.349c43.684 6.303 87.501 11.29 131.451 14.971 7.897-29.409 18.083-58.153 30.464-85.975 11.306-25.6 25.531-49.807 42.394-72.141-81.486 24.991-152.992 75.095-204.308 143.145zM798.1 161.997c-46.746-46.792-104.253-81.398-167.485-100.792 0.963 1.249 1.946 2.437 2.888 3.697 32.502 46.787 56.177 99.118 69.857 154.419 43.95-3.722 87.798-8.709 131.543-14.971-11.284-14.945-23.578-29.097-36.803-42.353z" />
<glyph unicode="&#xe939;" glyph-name="medal" d="M996.070 944.481c-3.103 4.655-7.757 7.758-13.962 7.758h-218.762c-6.205 0-10.86-3.103-13.962-7.758l-237.384-398.739-238.934 398.739c-3.103 4.655-7.757 7.758-13.963 7.758h-217.212c-6.206 0-10.861-3.103-13.964-7.758s-3.103-10.861 0-15.515l279.273-487.176c-54.303-52.751-86.885-125.67-86.885-207.903 0-161.357 130.328-291.686 291.685-291.686s291.686 130.33 291.686 291.686c0 80.681-34.135 155.151-86.886 207.903l279.27 487.176c3.108 4.655 3.108 10.861 0 15.515zM332.024 463.511l-263.758 457.697h183.079l235.83-395.636c-55.855-4.655-111.709-27.928-155.151-62.061zM772.654 235.438c0-144.292-116.362-260.654-260.654-260.654-144.291 0-260.655 116.362-260.655 260.654s117.915 260.655 259.103 260.655h1.551c144.292-1.551 260.654-117.914 260.654-260.655zM691.978 463.511c-44.995 35.685-100.849 57.406-156.708 62.061l237.384 395.636h183.081l-263.757-457.697zM555.346 280.443l-27.924 86.886c-1.551 6.205-7.757 10.86-15.516 10.86-6.206 0-12.412-4.654-15.515-10.86l-27.928-86.886h-89.988c-6.206 0-12.412-4.654-15.516-10.86-1.551-6.205 0-13.962 6.206-17.070l72.921-52.751-27.928-86.881c-4.654-13.967 12.412-26.378 23.273-17.070l72.921 52.751 72.922-52.751c12.411-9.308 27.924 3.103 23.27 17.070l-24.822 86.881 72.919 52.751c6.205 4.659 7.757 10.865 6.205 17.070s-7.757 10.86-15.514 10.86h-89.989zM553.795 218.383c-6.205-4.654-7.757-10.86-6.205-17.070l17.065-51.2-43.438 32.584c-3.103 0-6.205 1.551-9.311 1.551-3.103 0-6.206-1.551-9.309-3.103l-43.443-32.584 17.067 51.2c1.551 6.211 0 13.967-6.206 17.070l-43.442 32.579h54.303c6.206 0 12.412 4.654 15.516 10.865l17.064 51.2 17.070-51.2c1.551-6.211 7.757-10.865 15.514-10.865h54.303l-46.546-31.027zM511.97 460.388c-124.121 0-224.97-100.847-224.97-224.971 0-124.119 100.849-224.968 224.97-224.968 124.124 0 224.967 100.849 224.967 224.968 0 124.124-100.844 224.971-224.967 224.971zM511.97 41.477c-107.055 0-193.939 86.886-193.939 193.94s86.885 193.94 193.939 193.94c107.054 0 193.94-86.886 193.94-193.94s-86.886-193.94-193.94-193.94z" />
<glyph unicode="&#xe93a;" glyph-name="graduation" d="M713.687-48.471h-521.311c-43.443 0-77.576 34.135-77.576 77.578v837.817c0 43.443 34.133 77.576 77.576 77.576h639.225c43.443 0 77.573-34.133 77.573-77.576v-724.557c0-9.308-6.205-15.514-15.514-15.514s-15.514 6.205-15.514 15.514v724.557c0 26.376-20.173 46.546-46.546 46.546h-639.225c-26.376 0-46.545-20.169-46.545-46.546v-837.817c0-26.378 20.17-46.546 46.545-46.546h521.311c9.308 0 15.514-6.205 15.514-15.514 0-9.313-6.205-15.519-15.514-15.519zM716.774-48.456h-1.551c-9.308 0-15.514 6.205-15.514 15.519v117.914c0 40.34 32.584 72.919 72.919 72.919h119.47c6.205 0 12.411-3.103 13.962-9.308 3.103-6.205 1.551-12.411-3.103-17.065l-175.324-175.324c-3.103-3.103-6.205-4.654-10.86-4.654zM772.628 126.868c-23.27 0-41.887-18.621-41.887-41.892v-82.232l124.119 124.124h-82.232zM513.526 688.515c-1.55 0-3.102 0-4.653 1.551l-217.212 72.922c-6.206 1.551-10.861 7.757-10.861 13.963s4.654 12.412 10.861 13.964l217.212 72.921c3.103 1.552 6.204 1.552 9.307 0l211.011-72.921c6.205-1.551 10.86-7.757 10.86-13.964s-4.654-12.412-10.86-13.963l-211.011-72.922c-1.551-1.551-3.103-1.551-4.654-1.551zM344.412 776.951l169.114-55.854 162.908 55.854-162.908 55.855-169.114-55.855zM511.964 601.574c-49.649 0-100.849 3.103-153.6 9.309-7.758 1.552-13.964 7.758-13.964 15.516v127.224c0 9.309 6.206 15.515 15.515 15.515s15.515-6.206 15.515-15.515v-113.261c91.539-9.309 181.529-10.861 266.858 0v113.261c0 9.309 6.211 15.515 15.519 15.515s15.514-6.206 15.514-15.515v-127.224c0-7.758-6.205-13.964-13.962-15.516-46.546-6.206-96.195-9.309-147.395-9.309zM716.764 634.156c-9.308 0-15.514 6.206-15.514 15.515v116.364c0 9.309 6.205 15.515 15.514 15.515s15.514-6.206 15.514-15.515v-116.364c0-9.309-6.205-15.515-15.514-15.515zM727.516 627.97h-20.173c-9.308 0-15.514 6.206-15.514 15.515s6.205 15.515 15.514 15.515h20.173c9.308 0 15.514-6.206 15.514-15.515s-6.205-15.515-15.514-15.515zM756.992 477.473h-318.058c-9.309 0-15.515 6.206-15.515 15.515s6.206 15.515 15.515 15.515h318.058c9.313 0 15.519-6.206 15.519-15.515s-6.205-15.515-15.519-15.515zM756.992 348.698h-318.058c-9.309 0-15.515 6.205-15.515 15.514s6.206 15.514 15.515 15.514h318.058c9.313 0 15.519-6.205 15.519-15.514s-6.205-15.514-15.519-15.514zM756.992 219.919h-318.058c-9.309 0-15.515 6.205-15.515 15.519 0 9.308 6.206 15.514 15.515 15.514h318.058c9.313 0 15.519-6.205 15.519-15.514 0-9.313-6.205-15.519-15.519-15.519zM598.738 91.146h-159.804c-9.309 0-15.515 6.205-15.515 15.514s6.206 15.514 15.515 15.514h159.804c9.308 0 15.519-6.205 15.519-15.514s-6.211-15.514-15.519-15.514zM324.121 449.545h-57.406c-9.309 0-15.515 6.206-15.515 15.515v57.406c0 9.309 6.206 15.515 15.515 15.515h57.406c9.309 0 15.515-6.206 15.515-15.515v-57.406c0-9.309-6.206-15.515-15.515-15.515zM282.23 480.576h26.376v26.376h-26.376v-26.376zM324.121 320.768h-57.406c-9.309 0-15.515 6.205-15.515 15.519v57.405c0 9.308 6.206 15.514 15.515 15.514h57.406c9.309 0 15.515-6.205 15.515-15.514v-57.405c0-9.313-6.206-15.519-15.515-15.519zM282.23 351.8h26.376v26.373h-26.376v-26.373zM324.121 191.995h-57.406c-9.309 0-15.515 6.205-15.515 15.514v57.405c0 9.308 6.206 15.519 15.515 15.519h57.406c9.309 0 15.515-6.211 15.515-15.519v-57.405c0-9.308-6.206-15.514-15.515-15.514zM282.23 223.022h26.376v26.378h-26.376v-26.378zM324.121 63.217h-57.406c-9.309 0-15.515 6.205-15.515 15.519v57.405c0 9.308 6.206 15.514 15.515 15.514h57.406c9.309 0 15.515-6.205 15.515-15.514v-57.405c0-9.313-6.206-15.519-15.515-15.519zM282.23 94.249h26.376v26.373h-26.376v-26.373z" />
<glyph unicode="&#xe93b;" glyph-name="ranking" d="M583.111 661.333h-142.222c-18.86 0-36.947-7.492-50.283-20.828s-20.828-31.423-20.828-50.283v-533.333c0-18.859 7.492-36.949 20.828-50.284s31.423-20.827 50.283-20.827h142.222c18.859 0 36.949 7.492 50.284 20.827s20.827 31.425 20.827 50.284v533.333c0 18.86-7.492 36.947-20.827 50.283s-31.425 20.828-50.284 20.828zM440.889 56.889v533.333h142.222v-533.333h-142.222zM938.667 910.222h-142.222c-18.859 0-36.949-7.492-50.284-20.828s-20.827-31.423-20.827-50.283v-782.222c0-18.859 7.492-36.949 20.827-50.284s31.425-20.827 50.284-20.827h142.222c18.859 0 36.949 7.492 50.284 20.827s20.827 31.425 20.827 50.284v782.222c0 18.86-7.492 36.947-20.827 50.283s-31.425 20.828-50.284 20.828zM796.444 56.889v782.222h142.222v-782.222h-142.222zM227.556 412.444h-142.222c-18.86 0-36.947-7.492-50.283-20.828-13.336-13.334-20.828-31.424-20.828-50.283v-284.444c0-18.859 7.492-36.949 20.828-50.284s31.423-20.827 50.283-20.827h142.222c18.86 0 36.947 7.492 50.283 20.827s20.828 31.425 20.828 50.284v284.444c0 18.859-7.492 36.949-20.828 50.283-13.336 13.336-31.423 20.828-50.283 20.828zM85.333 56.889v284.444h142.222v-284.444h-142.222z" />
<glyph unicode="&#xe93c;" glyph-name="instructors" d="M842.913 259.761c-0.021 0-0.021 0 0 0l-139.041 47.779c-0.263 0.105-0.528 0.2-0.801 0.279l-62.86 21.602v43.999c7.619 5.56 14.92 11.639 21.881 18.22 36.959 35.060 60.26 81.059 66.579 130.8h3.479c31.56 0 57.242 25.679 57.242 57.239 0 19.121-9.421 36.080-23.862 46.501 0.54 4.938 0.84 9.9 0.84 14.839v90.981c0 125.72-102.279 228-227.998 228h-52.72c-125.722 0-228.001-102.28-228.001-228v-90.999c0-4.941 0.3-9.9 0.84-14.841-14.441-10.419-23.862-27.359-23.862-46.499 0-31.56 25.681-57.242 57.242-57.242h3.479c6.339-49.92 29.74-96 66.86-131.058 6.861-6.481 14.080-12.46 21.599-17.941v-43.999l-202.78-69.66c-40.46-13.922-66.6-50.502-66.6-93.2v-176.661c0-25.439 20.78-53.879 48.62-53.879h697.839c27.862 0 48.661 28.439 48.661 53.879v176.661c0 42.68-26.161 79.279-66.639 93.2zM505.332 23.801v-50.86c0-2.381-2.020-4.401-4.401-4.401h-26.419c-2.381 0-4.401 2.020-4.401 4.401v113.438c0 9.942 3.5 19.060 9.3 26.24 0.14 0.182 0.282 0.342 0.421 0.521 7.68 9.221 19.24 15.099 32.158 15.099 23.061 0 41.821-18.779 41.821-41.861 0-19.1-12.879-35.759-31.36-40.499-10.079-2.621-17.119-11.699-17.119-22.079zM555.432 146.081c-12.2 8.92-27.22 14.199-43.441 14.199-16.24 0-31.26-5.278-43.459-14.18l-115.859 138.78 36.938 12.7c19.921-50.479 66.981-82.618 122.321-82.618h0.040c55.301 0 102.36 32.058 122.38 82.618l36.959-12.7-115.88-138.799zM289.671 641.019v90.981c0 108.060 87.901 195.96 195.961 195.96h52.72c108.060 0 195.961-87.9 195.961-195.96v-90.999c0-1.361-0.042-2.742-0.1-4.101-0.701 0.021-1.38 0.061-2.081 0.061h-16.84c-7.019 0-12.721 5.72-12.721 12.719v60.26c0 14.42-8.82 26.781-22.5 31.481-21.539 7.38-52.62 27.14-70.779 45.020-3.281 3.216-7.189 5.725-11.478 7.373s-8.872 2.399-13.461 2.207c-9.221-0.44-17.92-4.78-23.88-11.86-69.86-82.981-152.441-71.919-195.4-57.981-10.121 3.321-21.302 1.601-29.901-4.62-8.599-6.218-13.74-16.319-13.74-26.98v-43.92c-0.959-6.74-5.281-13.719-12.779-13.719h-16.78c-0.701 0-1.401-0.019-2.081-0.061-0.079 1.401-0.121 2.76-0.121 4.14zM325.932 539.359c-0.233 4.084-2.020 7.927-4.997 10.733-2.974 2.809-6.912 4.371-11.003 4.368h-18.081c-13.901 0-25.2 11.299-25.2 25.2 0 10.359 6.279 19.279 15.199 23.18 0.161 0.061 0.321 0.119 0.461 0.2 2.939 1.199 6.16 1.88 9.519 1.88h16.782c23.219 0 42.040 18.099 44.719 43.038 0.061 0.582 0.1 1.14 0.1 1.72v44.9c0 0.2 0 0.682 0.479 1.040 0.421 0.3 0.801 0.24 1.161 0.121 50.679-16.461 147.919-29.54 229.86 67.8 0.161 0.2 0.44 0.46 0.88 0.48 0.479 0.060 0.761-0.22 0.94-0.42 21.42-21.080 57.039-43.661 82.839-52.481 0.721-0.258 0.88-0.659 0.88-1.18v-60.26c0-24.678 20.080-44.758 44.76-44.758h16.84c3.379 0 6.579-0.682 9.521-1.88 0.158-0.061 0.3-0.14 0.458-0.2 8.941-3.88 15.202-12.8 15.202-23.18 0-13.901-11.301-25.2-25.2-25.2h-18.081c-8.502 0-15.5-6.621-16-15.102-3.4-59.82-34.86-111.739-81.14-143.339-1.18-0.6-2.281-1.341-3.261-2.22-30.224-19.752-65.555-30.255-101.66-30.22-37.32 0-72.199 11.041-101.46 30.099-1.101 1.001-2.339 1.841-3.7 2.502-46.059 31.618-77.419 83.458-80.819 143.178zM511.991 331.56c33.741 0 66.52 7.78 96.182 22.44v-34.9c-0.461-0.94-0.861-1.92-1.161-2.918-16.279-51-59.76-69.181-95.039-69.181h-0.021c-35.258 0-78.72 18.181-94.978 69.239-0.321 0.98-0.721 1.901-1.161 2.821v34.939c29.908-14.778 62.82-22.458 96.179-22.44zM146.472-10.1v176.661c0 29.258 17.24 53.378 44.98 62.92l128.799 44.26 126.881-151.98c-5.946-10.845-9.055-23.014-9.039-35.382v-113.438c0-1.662 0.158-3.3 0.379-4.901h-275.42c-7.76 0-16.58 11.641-16.58 21.86zM877.512-10.1c0-10.219-8.86-21.86-16.64-21.86h-323.88c0.219 1.601 0.379 3.24 0.379 4.901v44.060c28.879 10.519 48.479 38.079 48.479 69.378 0 12.8-3.261 24.841-9 35.342l126.899 151.999 128.761-44.239c27.359-9.4 45.040-34.102 45.040-62.92v-176.661h-0.040zM464.133 485.9c34.86-22.6 65.019-22.779 94.899-0.579 7.101 5.281 17.14 3.8 22.4-3.3 5.281-7.101 3.8-17.14-3.3-22.4-20.58-15.299-42.019-22.94-64.121-22.94-21.818 0-44.3 7.459-67.3 22.36-1.764 1.145-3.286 2.625-4.48 4.359-1.192 1.734-2.032 3.684-2.469 5.744-0.438 2.057-0.468 4.18-0.084 6.249 0.382 2.069 1.168 4.042 2.313 5.809 4.78 7.398 14.701 9.519 22.142 4.699zM437.132 608.701v-20.58c0-8.841-7.159-16.021-16.021-16.021-8.86 0-16.019 7.161-16.019 16.021v20.58c0 8.839 7.159 16.019 16.019 16.019 8.862 0 16.021-7.18 16.021-16.019zM618.892 608.701v-20.58c0-8.841-7.159-16.021-16.021-16.021-8.86 0-16.019 7.161-16.019 16.021v20.58c0 8.839 7.159 16.019 16.019 16.019 8.862 0 16.021-7.18 16.021-16.019zM566.672 655.299c0 8.841 7.159 16.021 16.019 16.021h40.362c8.839 0 16.019-7.161 16.019-16.021s-7.159-16.019-16.019-16.019h-40.362c-8.86 0-16.019 7.18-16.019 16.019zM441.293 639.281h-40.362c-8.839 0-16.019 7.159-16.019 16.019s7.159 16.021 16.019 16.021h40.362c8.839 0 16.019-7.161 16.019-16.021s-7.159-16.019-16.019-16.019zM812.712 35.54c0-8.839-7.159-16.019-16.019-16.019h-125.182c-8.839 0-16.019 7.159-16.019 16.019s7.159 16.021 16.019 16.021h125.182c8.86-0.021 16.019-7.18 16.019-16.021z" />
<glyph unicode="&#xe93d;" glyph-name="students" d="M825.423 283.646v106.601l-44.986-17.503-0.133 0.298-1.073 1.946c-17.238 26.84-45.117 45.514-76.509 51.205l-108.251 19.698v8.543c40.483 23.508 70.128 63.611 79.365 111.023 29.992 6.202 52.608 32.81 52.608 64.617v162.935c0.026 22.3-7.156 44.012-20.475 61.898-13.317 17.887-32.058 30.991-53.43 37.361l-8.248 8.248c-38.37 38.371-89.379 59.486-143.635 59.486-111.995 0-203.12-91.11-203.12-203.121v-126.808c0-31.807 22.616-58.415 52.606-64.617 9.256-47.411 38.882-87.531 79.365-111.023v-8.543l-108.232-19.682c-31.36-5.69-59.222-24.332-76.479-51.156l-0.989-2.406-45.25 17.601v-106.601c-27.285 0-49.489-22.205-49.489-49.489v-65.985c0-27.285 22.204-49.489 49.489-49.489v-60.772l313.433-121.91 313.432 121.91v60.772c27.285 0 49.489 22.205 49.489 49.489v65.985c0 27.285-22.205 49.489-49.489 49.489zM625.387 406.726l71.429-12.982c21.034-3.828 39.657-15.97 52.080-33.257l-159.604-62.061 36.096 108.3zM463.902 439.305c15.227-4.65 31.36-7.191 48.088-7.191 16.726 0 32.861 2.541 48.086 7.191l-48.086-36.061-48.088 36.061zM486.882 380.842l-33.669-33.652-21.841 65.508 10.508 1.897 45.002-33.752zM582.1 414.578l10.508-1.897-21.841-65.508-33.669 33.652 45.002 33.752zM676.955 601.665v56.813c9.814-5.725 16.496-16.249 16.496-28.407s-6.682-22.684-16.496-28.407zM347.027 601.665c-9.816 5.723-16.498 16.249-16.498 28.407s6.682 22.682 16.498 28.407v-56.813zM347.027 712.553v-18.839c-5.786-1.51-11.336-3.81-16.498-6.828v69.994c0 93.799 76.314 170.128 170.128 170.128 45.431 0 88.173-17.701 120.308-49.836l14.55-14.566 4.438-1.089c15.29-3.8 28.865-12.612 38.563-25.029 9.695-12.418 14.955-27.725 14.934-43.48v-106.121c-5.157 3.025-10.708 5.325-16.496 6.828v18.839h-52.31c-44.707 0-87.431 21.347-114.239 57.095l-13.114 17.519-32.78-32.795c-26.987-26.972-62.85-41.819-100.99-41.819h-16.496zM380.018 597.078v83.242c40.73 3.777 78.522 21.446 107.82 50.726l6.419 6.417c33.075-36.507 80.717-57.902 130.388-57.902h19.316v-82.483c0-72.765-59.206-131.97-131.97-131.97-72.767 0-131.973 59.206-131.973 131.97zM327.163 393.744l71.431 12.982 36.094-108.3-159.637 62.078c12.423 17.303 31.081 29.412 52.112 33.24zM182.061 168.171v65.985c0 9.107 7.407 16.498 16.496 16.498 27.285 0 49.49-22.205 49.49-49.489s-22.205-49.489-49.49-49.489c-9.090 0-16.496 7.389-16.496 16.496zM495.493-22.165l-263.942 102.623v45.217c29.083 12.77 49.489 41.754 49.489 75.49 0 33.734-20.406 62.718-49.489 75.487v65.359l263.942-102.642v-261.534zM446.515 293.809l65.475 65.489 65.473-65.473-65.473-25.472-65.475 25.456zM792.429 80.475l-263.943-102.623v261.518l263.943 102.642v-65.359c-29.084-12.77-49.489-41.754-49.489-75.487 0-33.736 20.406-62.72 49.489-75.49v-45.2zM841.919 168.171c0-9.107-7.408-16.496-16.496-16.496-27.285 0-49.489 22.205-49.489 49.489s22.205 49.489 49.489 49.489c9.088 0 16.496-7.391 16.496-16.498v-65.985z" />
<glyph unicode="&#xe93e;" glyph-name="batch-assign" d="M781.507 464.040c-36.282 21.201-83.060 8.899-104.28-27.399l-96.561-165.281c-1.001-1.701-2.721-2.42-4.641-1.899-44.279 11.978-83.779 11.978-128.1-0.021-1.878-0.519-3.598 0.2-4.62 1.92l-96.54 165.26c-21.22 36.319-68.001 48.6-104.299 27.401-36.261-21.22-48.521-68.001-27.341-104.28l142.259-243.621c0.461-0.798 0.561-1.199 0.561-2.12v-141.84c0-19.959 16.24-36.198 36.201-36.198h235.681c19.959 0 36.198 16.24 36.198 36.198v141.84c0 0.94 0.1 1.341 0.54 2.081l142.301 243.661c21.181 36.298 8.92 83.060-27.359 104.299zM781.207 375.92l-142.341-243.719c-3.279-5.66-4.88-11.62-4.88-18.181v-141.84c0-2.26-1.899-4.159-4.159-4.159h-235.662c-2.26 0-4.159 1.899-4.159 4.159v141.84c0 6.561-1.601 12.5-4.901 18.22l-142.299 243.658c-12.28 21.041-5.181 48.161 15.839 60.46 6.733 3.945 14.397 6.023 22.2 6.021 15.22 0 30.061-7.859 38.281-21.921l96.54-165.239c8.36-14.38 24.739-21.080 40.699-16.701 39 10.561 72.299 10.561 111.26 0.021 16.021-4.38 32.4 2.318 40.739 16.659l96.54 165.26c12.302 21.062 39.422 28.202 60.46 15.921 21.001-12.3 28.12-39.44 15.842-60.46zM511.967 526.441c-62.981 0-114.202-51.242-114.202-114.202s51.24-114.199 114.202-114.199c62.999 0 114.26 51.24 114.26 114.199s-51.261 114.202-114.26 114.202zM511.967 330.061c-45.321 0-82.181 36.859-82.181 82.178 0 45.321 36.859 82.181 82.181 82.181 45.34 0 82.239-36.859 82.239-82.181 0-45.319-36.899-82.178-82.239-82.178zM511.967 646.9c86.319 0 156.558 70.239 156.558 156.56s-70.239 156.56-156.558 156.56c-86.3 0-156.502-70.24-156.502-156.56s70.202-156.56 156.502-156.56zM511.967 928c68.659 0 124.518-55.86 124.518-124.52s-55.859-124.519-124.518-124.519c-68.641 0-124.46 55.859-124.46 124.519-0.021 68.64 55.82 124.52 124.46 124.52zM434.246 808.24c-6.26 6.26-6.26 16.4 0 22.66s16.4 6.26 22.661 0l43.66-43.66 66.52 66.52c6.26 6.26 16.4 6.26 22.661 0s6.26-16.4 0-22.66l-77.84-77.84c-3.121-3.12-7.222-4.7-11.32-4.7-4.101 0-8.201 1.56-11.32 4.7l-55.021 54.98zM912.526 702.399c-3.519 11.101-13.719 18.56-25.46 18.56l-51.74-0.1-15.939 49.281c0 0.020-0.021 0.060-0.021 0.080-3.619 11.020-13.819 18.44-25.358 18.44-11.581 0-21.802-7.4-25.442-18.54l-15.879-49.261-51.819 0.1c-11.562 0-21.741-7.38-25.36-18.378-3.64-11.080 0.279-23.121 9.74-29.94l41.94-30.341-16.179-49.359c-3.5-11.059 0.44-23.040 9.719-29.719 4.68-3.421 10.161-5.141 15.66-5.141 5.52 0 11.041 1.72 15.739 5.16l41.882 30.48 41.8-30.459c9.379-6.861 22-6.9 31.5-0.061 9.379 6.861 13.24 18.879 9.619 29.859l-16.1 49.261 42.021 30.359c9.379 6.861 13.24 18.86 9.679 29.719zM838.807 665.94c-9.36-6.84-13.221-18.86-9.621-29.919l12.139-37.141-31.658 23.080c-4.701 3.382-10.2 5.080-15.681 5.080-5.52 0-11.020-1.72-15.679-5.12l-31.642-23.040 12.181 37.12 0.061 0.221c3.44 10.999-0.482 22.94-9.821 29.78l-31.66 22.9 39.121-0.081c11.578 0 21.779 7.401 25.439 18.541l11.999 37.259 12.020-37.18c3.519-11.141 13.74-18.6 25.439-18.6l39.121 0.079-31.76-22.979zM271.825 563.261c4.741-3.461 10.282-5.201 15.821-5.201 5.46 0 10.92 1.701 15.539 5.080 9.381 6.761 13.321 18.721 9.761 29.94l-16.14 49.201 41.921 30.32c9.479 6.84 13.398 18.879 9.758 29.959-1.748 5.355-5.148 10.017-9.712 13.319s-10.056 5.073-15.688 5.062l-51.779-0.1-15.879 49.26c0 0.040-0.021 0.060-0.021 0.1-1.75 5.363-5.15 10.034-9.716 13.346s-10.063 5.095-15.704 5.094c-11.54 0-21.74-7.4-25.38-18.52l-15.94-49.28-51.76 0.1c-11.7 0-21.9-7.461-25.36-18.381-3.62-11.020 0.24-23.040 9.7-29.959l41.94-30.301-16.080-49.219c-3.64-11.020 0.24-23.040 9.7-29.959 4.569-3.305 10.068-5.076 15.706-5.059 5.639 0.019 11.126 1.825 15.674 5.16l41.82 30.478 41.819-30.438zM182.666 598.861l12.14 37.16c3.6 11.041-0.28 23.059-9.7 29.959l-31.7 22.9 39.16-0.079c11.68 0 21.9 7.48 25.38 18.52l12.040 37.259 12.041-37.34c3.619-11.020 13.84-18.439 25.439-18.439l39.080 0.079-31.739-22.961c-9.26-6.779-13.179-18.718-9.74-29.719l0.061-0.219 12.179-37.12-31.621 23.019c-4.552 3.34-10.051 5.139-15.699 5.141-5.5 0-11.020-1.701-15.78-5.12l-31.54-23.040z" />
<glyph unicode="&#xe93f;" glyph-name="connectibity" d="M262.046 470.717c-0.2-4.345-2.12-8.434-5.336-11.364-3.214-2.93-7.461-4.461-11.806-4.261-4.345 0.202-8.434 2.122-11.364 5.336-2.929 3.216-4.462 7.464-4.261 11.809 0.085 2.162 0.598 4.285 1.507 6.249 0.909 1.962 2.199 3.726 3.793 5.187 1.592 1.464 3.461 2.595 5.495 3.335 2.034 0.738 4.194 1.066 6.353 0.966 2.162-0.102 4.282-0.628 6.237-1.55 1.957-0.924 3.712-2.225 5.164-3.828s2.572-3.479 3.295-5.518c0.724-2.039 1.038-4.201 0.922-6.36zM939.599 217.009c-4.331-9.816-12.207-17.352-22.17-21.215l-49.219-19.081c-4.608-1.792-9.507-2.711-14.45-2.711-16.081 0-31.29 9.74-37.443 25.609l-3.491 9.007-36.45-15.209c1.552-11.297-0.468-22.924-6.058-33.089-6.884-12.521-18.237-21.632-32.002-25.702 3.777-13.198 2.586-27.783-4.48-40.625-10.563-19.207-31.209-29.426-51.77-27.697 0.175-9.293-2.095-18.467-6.579-26.608-6.942-12.623-18.43-21.783-32.347-25.789-7.659-2.225-15.716-2.714-23.589-1.434-0.165-8.653-2.432-17.136-6.609-24.716-6.947-12.625-18.923-22.109-32.863-26.017-4.731-1.334-9.623-2.013-14.541-2.018-9.123-0.005-18.085 2.392-25.989 6.949l-11.892 6.831c-6.933-9.055-16.507-15.718-27.681-19.105-5.215-1.587-10.636-2.397-16.088-2.402-8.906 0-17.72 2.185-25.775 6.491-10.978 5.858-19.635 15.272-24.555 26.701-14.455-5.481-31.053-4.866-45.482 2.851-9.802 5.253-17.776 13.359-22.863 23.247-15.365-7.526-33.967-7.831-50.125 0.81-12.909 6.905-22.372 18.465-26.64 32.547-2.153 7.052-2.867 14.466-2.102 21.802-8.588 0.186-17.010 2.395-24.585 6.444-12.909 6.907-22.372 18.465-26.638 32.549-4.269 14.085-2.815 28.949 4.089 41.861l12.772 23.88c-2.776 6.959-4.203 14.422-5.56 21.723-2.332 12.528-4.231 20.885-9.202 22.814-2.306 0.896-7.674 3.126-26.764 11.625l-4.444-10.054c-6.62-14.971-21.34-23.894-36.742-23.894-5.41 0-10.9 1.101-16.156 3.423l-48.284 21.339c-9.774 4.322-17.292 12.211-21.164 22.221s-3.626 20.904 0.694 30.678l110.856 250.813c4.32 9.775 12.21 17.289 22.22 21.164 10.006 3.873 20.899 3.628 30.678-0.694l48.284-21.341c20.226-8.939 29.41-32.668 20.471-52.897l-7.454-16.863 29.494-13.605c0.389-0.182 0.77-0.377 1.143-0.584 16.538-9.307 34.209-5.162 56.581 0.081 29.938 7.017 66.721 15.63 109.75-9.167 59.478 36.21 105.144 17.594 138.899 3.798 24.399-9.972 38.893-15.253 53.071-7.88l25.688 13.754-6.849 17.669c-7.992 20.622 2.283 43.899 22.896 51.894l49.222 19.081c9.965 3.863 20.859 3.6 30.676-0.728 9.819-4.333 17.354-12.207 21.218-22.167l99.119-255.679c3.87-9.97 3.612-20.864-0.721-30.685zM176.751 230.214l110.853 250.813c1.166 2.639 0.575 5.011 0.121 6.193-0.458 1.18-1.617 3.335-4.257 4.501l-48.286 21.339c-1.008 0.449-2.097 0.682-3.2 0.682-1.27 0-2.324-0.303-2.992-0.563-1.18-0.458-3.334-1.615-4.5-4.257l-110.854-250.81c-1.168-2.641-0.576-5.015-0.12-6.195s1.616-3.333 4.256-4.499l48.286-21.341c4.016-1.778 8.914 0.121 10.692 4.138zM301.498 103.028l31.32 54.2c4.692 10.915 0.272 23.713-10.242 29.324-11.183 5.969-25.142 1.748-31.111-9.418l-24.034-44.935c-2.877-5.374-3.472-11.585-1.685-17.489 1.79-5.902 5.734-10.738 11.108-13.61 7.899-4.224 17.534-3.391 24.643 1.929zM361.37 49.89l34.776 67.351c1.764 9.709-2.984 19.81-11.709 24.469-7.966 4.254-17.676 3.386-24.799-2.029l-38.875-68.278c-2.877-5.376-3.472-11.583-1.685-17.487 1.79-5.904 5.734-10.738 11.108-13.612 11.164-5.972 25.149-1.671 31.183 9.586zM432.144 22.449l30.76 59.113c1.75 9.702-2.998 19.791-11.718 24.446-8.685 4.636-19.633 3.051-26.717-3.661l-33.375-64.638c-0.435-8.832 4.217-17.257 12.076-21.46 9.872-5.278 22.158-2.588 28.975 6.2zM504.308-3.877l23.042 43.094c4.147 7.752 3.423 17.385-1.841 24.546-1.999 2.725-4.589 4.962-7.578 6.547-8.688 4.643-19.642 3.046-26.729-3.686l-30.019-57.695c-0.724-9.021 4.010-17.941 12.025-22.23 11.173-5.976 25.123-1.743 31.099 9.425zM576.23 32.987c-0.791 0.445-14.876 8.681-14.876 8.681-0.915-6.058-2.821-11.999-5.786-17.543l-12.174-22.765 12.093-6.945c4.783-2.746 10.449-3.412 15.956-1.869 5.723 1.603 10.629 5.478 13.459 10.626 5.788 10.517 1.897 23.892-8.671 29.815zM541.994 139.557c-1.841 1.026-3.461 2.404-4.766 4.056-1.308 1.655-2.276 3.549-2.849 5.576-0.573 2.029-0.738 4.15-0.489 6.242 0.251 2.092 0.91 4.115 1.943 5.951s2.42 3.451 4.080 4.75c1.657 1.301 3.556 2.26 5.588 2.823 2.029 0.563 4.152 0.719 6.244 0.461 2.090-0.258 4.11-0.929 5.942-1.971l118.447-66.646c10.554-5.802 23.864-1.936 29.666 8.618 5.751 10.452 1.827 23.796-8.751 29.752-27.767 15.551-59.238 33.178-90.198 50.902-3.642 2.127-6.298 5.609-7.384 9.684-1.089 4.077-0.524 8.418 1.571 12.079 2.097 3.661 5.555 6.346 9.621 7.473 4.066 1.124 8.411 0.598 12.090-1.466 30.843-17.657 62.255-35.249 89.968-50.772l0.005-0.005c4.95-2.767 10.747-3.414 16.323-1.82 5.711 1.634 10.412 5.362 13.235 10.496 3.405 6.193 3.549 13.466 0.398 19.963-2.008 4.136-5.222 7.564-9.223 9.833l-130.902 74.612c-21.325 12.151-48.638 1.089-80.27-11.713-48.209-19.514-108.195-43.799-159.821 22.633-3.677 4.729-5.078 10.575-3.952 16.461 1.126 5.897 4.61 10.819 9.8 13.854 36.762 21.455 67.789 44.856 92.232 69.558 5.369 5.432 10.952 10.647 16.735 15.637-26.373 10.373-49.327 5.011-73.337-0.617-25.47-5.969-51.796-12.144-78.985 2.858l-28.474 13.135-73.084-165.353c16.999-7.566 23.287-10.24 25.407-11.062 17.95-6.968 23.976-23.014 27.217-37.462 16.71 14.236 41.114 17.65 61.622 6.707 15.383-8.211 25.344-22.842 28.202-38.942 11.56 1.662 23.35-0.405 33.657-5.9 12.442-6.621 21.853-17.783 26.277-31.165 13.573 3.735 28.065 2.111 40.474-4.538 12.442-6.619 21.853-17.778 26.277-31.16 13.577 3.735 28.072 2.109 40.483-4.543 6.242-3.321 11.776-7.829 16.286-13.272l68.543-38.8c5.004-2.781 10.845-3.426 16.447-1.813 5.676 1.634 10.349 5.35 13.163 10.463 5.751 10.454 1.825 23.799-8.748 29.75zM801.257 238.462l-65.557 169.1-22.409-11.992c-28.193-14.662-54.586-3.877-80.112 6.556-33.394 13.654-67.931 27.774-117.548-6.263-10.657-7.282-21.532-16.505-32.34-27.427-23.708-23.957-52.927-46.655-86.989-67.584 34.383-34.97 71.503-19.945 113.974-2.751 36.049 14.594 73.328 29.684 108.12 9.854l130.909-74.612c5.073-2.886 9.651-6.563 13.566-10.892l38.386 16.012zM910.492 236.12l-99.119 255.679c-1.043 2.693-3.139 3.952-4.298 4.461-1.050 0.463-2.183 0.703-3.33 0.707-0.977 0-1.948-0.184-2.86-0.54l-49.222-19.081c-4.098-1.587-6.216-6.393-4.627-10.494l99.121-255.677c1.587-4.096 6.386-6.214 10.489-4.627l49.219 19.081c2.693 1.045 3.949 3.139 4.459 4.298 0.51 1.157 1.21 3.5 0.168 6.191zM788.489 471.775c-9.060 0-16.403-7.343-16.403-16.403 0-4.35 1.729-8.52 4.803-11.597 3.077-3.077 7.249-4.803 11.599-4.803s8.522 1.727 11.597 4.803c3.077 3.077 4.806 7.247 4.806 11.597 0 4.352-1.729 8.522-4.806 11.599-3.074 3.077-7.247 4.803-11.597 4.803zM808.832 575.6c0.237-2.232 0.002-4.489-0.689-6.623-0.691-2.136-1.822-4.103-3.323-5.772-1.499-1.669-3.335-3.005-5.383-3.919-2.050-0.915-4.271-1.389-6.514-1.389h-153.125c0.286-1.89 0.542-3.791 0.747-5.709 0.237-2.232 0.005-4.487-0.687-6.623s-1.825-4.103-3.323-5.772c-1.501-1.669-3.335-3.005-5.385-3.919-2.048-0.915-4.268-1.387-6.512-1.389h-225.287c-2.243 0-4.464 0.472-6.514 1.387s-3.884 2.248-5.385 3.919c-1.501 1.669-2.632 3.635-3.323 5.772-0.691 2.134-0.924 4.392-0.684 6.623 0.205 1.92 0.458 3.821 0.745 5.711h-153.124c-2.245 0-4.465 0.47-6.516 1.385s-3.886 2.248-5.386 3.919c-1.501 1.671-2.633 3.638-3.323 5.774s-0.923 4.394-0.683 6.626c4.26 39.806 29.002 72.723 63.113 88.841-10.27 11.397-16.533 26.473-16.533 42.987 0 35.452 28.842 64.292 64.293 64.292 35.449 0 64.291-28.842 64.291-64.292 0-16.575-6.307-31.702-16.642-43.115 17.58-8.362 32.866-21.222 44.076-37.353 12.025 12.774 26.529 22.966 42.622 29.95-13.37 13.282-21.665 31.67-21.665 51.961 0 40.407 32.875 73.283 73.283 73.283s73.283-32.876 73.283-73.283c0-20.294-8.294-38.679-21.667-51.963 16.095-6.984 30.597-17.175 42.624-29.95 11.208 16.13 26.494 28.991 44.074 37.355-10.335 11.411-16.64 26.538-16.64 43.113 0 35.452 28.842 64.292 64.291 64.292 35.451 0 64.293-28.842 64.293-64.292 0-16.514-6.263-31.588-16.533-42.987 34.106-16.114 58.852-49.031 63.111-88.839zM697.958 675.135c17.806 0 32.293 14.485 32.293 32.291s-14.487 32.292-32.293 32.292c-17.806 0-32.291-14.486-32.291-32.292s14.485-32.291 32.291-32.291zM511.993 667.59c22.763 0 41.283 18.518 41.283 41.281 0 22.765-18.52 41.285-41.283 41.285s-41.281-18.52-41.281-41.285c0-22.763 18.52-41.281 41.281-41.281zM326.030 675.135c17.806 0 32.291 14.485 32.291 32.291s-14.485 32.292-32.291 32.292c-17.806 0-32.293-14.486-32.293-32.292s14.487-32.291 32.293-32.291zM393.386 589.898c1.257 2.921 2.623 5.797 4.094 8.618-13.217 26.954-41.062 44.618-71.45 44.618-34.541 0-64.226-21.921-75.101-53.236h142.457zM605.165 566.486c-12.116 40.42-49.469 69.104-93.172 69.104-43.706 0-81.059-28.684-93.172-69.104h186.345zM773.059 589.898c-10.878 31.316-40.56 53.236-75.101 53.236-30.387 0-58.231-17.664-71.45-44.621 1.471-2.821 2.837-5.695 4.094-8.616h142.457zM901.695 522.307c0-4.243 1.685-8.313 4.687-11.313 3-3 7.070-4.687 11.313-4.687s8.313 1.687 11.313 4.687c3.002 3 4.687 7.070 4.687 11.313 0 74.573-19.742 147.868-57.090 211.966-2.153 3.633-5.655 6.267-9.742 7.329s-8.429 0.464-12.076-1.662c-3.649-2.126-6.309-5.608-7.403-9.688-1.091-4.079-0.526-8.424 1.573-12.089 34.502-59.213 52.738-126.939 52.738-195.856zM106.293 506.307c4.244 0 8.313 1.687 11.314 4.687s4.686 7.070 4.686 11.313c0 85.516 27.71 164.671 74.592 229.004l1.148-31.977c0.075-2.099 0.563-4.166 1.437-6.077s2.114-3.631 3.652-5.062c1.538-1.431 3.343-2.546 5.312-3.281 1.969-0.733 4.063-1.073 6.163-0.996 2.1 0.074 4.164 0.563 6.075 1.436s3.632 2.115 5.063 3.654c1.432 1.536 2.546 3.342 3.28 5.311s1.073 4.063 0.997 6.163l-2.44 67.93c71.161 76.010 172.329 123.598 284.42 123.598 82.493 0 162.932-26.326 229.255-74.584l-32.23-1.158c-4.243-0.152-8.248-1.983-11.138-5.089-2.893-3.106-4.431-7.234-4.278-11.475 0.151-4.241 1.983-8.247 5.087-11.138 3.107-2.891 7.235-4.43 11.476-4.278l74.796 2.686c2.425 0.087 4.801 0.724 6.945 1.865s3.998 2.753 5.425 4.717c1.429 1.964 2.39 4.227 2.814 6.617s0.298 4.846-0.37 7.181l-20.536 71.974c-1.164 4.081-3.901 7.532-7.61 9.594s-8.085 2.567-12.167 1.402c-4.080-1.164-7.531-3.902-9.593-7.611s-2.567-8.085-1.403-12.166l6.796-23.818c-70.833 50.032-155.988 77.28-243.267 77.28-121.928 0-231.915-52.034-308.978-135.040l-68.044-19.414c-4.081-1.165-7.532-3.902-9.593-7.611s-2.566-8.085-1.401-12.166c1.165-4.081 3.902-7.532 7.611-9.593s8.085-2.566 12.166-1.401l24.010 6.85c-48.772-68.793-77.47-152.768-77.47-243.326 0-4.243 1.686-8.313 4.686-11.313s7.070-4.687 11.314-4.687z" />
<glyph unicode="&#xe940;" glyph-name="quote" horiz-adv-x="1306" d="M0 357.642h301.179l-200.787-401.569h301.178l200.788 401.569v602.358h-602.358v-602.358zM679.949 960v-602.358h301.179l-200.786-401.569h301.179l200.786 401.569v602.358h-602.358z" />
<glyph unicode="&#xe941;" glyph-name="quote-2" horiz-adv-x="1365" d="M0 960v-1024l512 512v512h-512zM853.333 960v-1024l512 512v512h-512z" />
<glyph unicode="&#xe942;" glyph-name="double-arrow-2" d="M511.373 149.33c8.476-0.046 16.771 2.427 23.836 7.112 7.060 4.685 12.57 11.366 15.816 19.195 3.251 7.828 4.096 16.445 2.427 24.755-1.664 8.31-5.77 15.933-11.786 21.898l-226.132 225.71 226.132 225.705c6.989 8.162 10.644 18.661 10.23 29.4s-4.869 20.924-12.467 28.523c-7.598 7.599-17.782 12.050-28.522 12.465-10.738 0.415-21.238-3.238-29.4-10.228l-256-256c-7.947-7.994-12.407-18.808-12.407-30.081 0-11.269 4.46-22.088 12.407-30.080l256-256c7.947-7.88 18.674-12.324 29.867-12.375zM767.37 149.33c8.479-0.051 16.773 2.427 23.839 7.112 7.060 4.685 12.57 11.366 15.816 19.195 3.251 7.823 4.096 16.44 2.427 24.75-1.664 8.31-5.77 15.933-11.786 21.903l-226.135 225.705 226.135 225.708c8.033 8.034 12.549 18.931 12.549 30.294s-4.516 22.259-12.549 30.293c-8.033 8.034-18.929 12.548-30.295 12.548-11.361 0-22.257-4.514-30.29-12.548l-256.001-256c-7.947-7.994-12.407-18.808-12.407-30.080 0-11.274 4.461-22.087 12.407-30.079l256.001-256c3.953-4.029 8.663-7.24 13.865-9.436 5.197-2.196 10.783-3.338 16.425-3.364z" />
</font>
</defs>
</svg>
